<svg width="22" height="14" viewBox="0 0 22 14" fill="none" xmlns="http://www.w3.org/2000/svg">
<path fill-rule="evenodd" clip-rule="evenodd" d="M12.4836 12.5749L21.3794 3.61517C21.7766 3.21839 22 2.67827 22 2.11483C22 1.55138 21.7766 1.01127 21.3794 0.614489C20.5611 -0.20483 19.2394 -0.20483 18.4211 0.614489L10.9939 8.09505L3.56676 0.614489C2.74843 -0.204831 1.4268 -0.204831 0.608473 0.614488C0.21574 1.01328 -0.00319297 1.55314 3.23325e-05 2.11483C-0.00319302 2.67651 0.21574 3.21637 0.608473 3.61517L9.5043 12.5749C9.89825 12.975 10.4345 13.2 10.9939 13.2C11.5534 13.2 12.0896 12.975 12.4836 12.5749Z" fill="#7981AD"/>
</svg>
