<svg width="46" height="47" viewBox="0 0 46 47" fill="none" xmlns="http://www.w3.org/2000/svg">
<path fill-rule="evenodd" clip-rule="evenodd" d="M27.2796 37.2498C28.5386 37.2498 29.5592 36.2238 29.5592 34.9581V30.3748C29.5592 29.1091 28.5386 28.0831 27.2796 28.0831C26.0206 28.0831 25 29.1091 25 30.3748V34.9581C25 36.2238 26.0206 37.2498 27.2796 37.2498ZM18.1624 37.2498C19.4214 37.2498 20.442 36.2238 20.442 34.9581V30.3748C20.442 29.1091 19.4214 28.0831 18.1624 28.0831C16.9034 28.0831 15.8828 29.1091 15.8828 30.3748V34.9581C15.8828 36.2238 16.9034 37.2498 18.1624 37.2498ZM38.6772 9.75008H35.5313L31.5876 1.84383C31.2591 1.05083 30.5171 0.509091 29.6653 0.440457C28.8136 0.371823 27.9952 0.787818 27.5452 1.5181C27.0953 2.24838 27.0894 3.17029 27.5299 3.90633L30.425 9.75008H15.0149L17.91 3.90633C18.369 2.79825 17.8997 1.52186 16.8342 0.980254C15.7686 0.438646 14.4679 0.815349 13.8523 1.84383L9.90859 9.75008H6.76273C3.43635 9.80094 0.62893 12.2508 0.111234 15.5544C-0.406462 18.8581 1.51577 22.0569 4.6655 23.1334L6.3524 40.2292C6.70489 43.7554 9.66596 46.4345 13.1912 46.4167H32.2943C35.8196 46.4345 38.7806 43.7554 39.1331 40.2292L40.82 23.1334C43.9771 22.0536 45.8991 18.8421 45.3691 15.5323C44.8392 12.2225 42.0119 9.77948 38.6772 9.75008ZM34.5503 39.7708C34.4328 40.9462 33.4458 41.8393 32.2707 41.8333H13.1677C11.9926 41.8393 11.0055 40.9462 10.8881 39.7708L9.26953 23.5H36.1689L34.5503 39.7708ZM38.6784 18.9165H6.76398C5.50499 18.9165 4.48438 17.8905 4.48438 16.6248C4.48438 15.3591 5.50499 14.3331 6.76398 14.3331H38.6784C39.9374 14.3331 40.958 15.3591 40.958 16.6248C40.958 17.8905 39.9374 18.9165 38.6784 18.9165Z" fill="#272525"/>
</svg>
