<svg width="51" height="50" viewBox="0 0 51 50" fill="none" xmlns="http://www.w3.org/2000/svg">
<path d="M44.3667 18.6159C43.9374 18.0792 43.1328 18.0792 42.7037 18.6159C42.3279 19.0451 42.3279 19.6353 42.7037 20.0644C43.8305 21.4057 44.5276 23.1226 44.5276 25.0535C44.5276 26.9314 43.8301 28.7014 42.7037 30.0426C42.3279 30.4718 42.3818 31.062 42.7037 31.4912C43.1329 32.0278 43.9375 31.9739 44.3667 31.4912C45.8153 29.7743 46.6733 27.5211 46.6733 25.107C46.6733 22.5859 45.8149 20.3327 44.3667 18.6158V18.6159Z" fill="#3C336C"/>
<path d="M47.1023 15.29C46.673 14.8073 45.922 14.8608 45.4927 15.3435C45.117 15.7728 45.117 16.4164 45.4927 16.7921C47.4776 18.9379 48.7118 21.8351 48.7118 24.9467C48.7118 28.0583 47.478 31.0091 45.4927 33.1013C45.117 33.5306 45.117 34.1742 45.4927 34.5499C45.922 35.0327 46.673 35.0866 47.1023 34.6034C49.4629 32.082 50.9649 28.6485 50.9649 24.8931C50.9649 21.2449 49.5163 17.8114 47.1023 15.2901V15.29Z" fill="#3C336C"/>
<path d="M8.31537 18.6159C7.88614 18.0793 7.08156 18.1332 6.65238 18.6159C5.20378 20.3329 4.3457 22.586 4.3457 25.0001C4.3457 27.4143 5.20416 29.6674 6.65238 31.3844C7.08161 31.921 7.88619 31.921 8.31537 31.3844C8.69109 30.9551 8.69109 30.365 8.31537 29.9358C7.18857 28.5946 6.49143 26.8776 6.49143 24.9467C6.49143 23.0688 7.18897 21.2988 8.31537 19.9576C8.69072 19.6354 8.6372 18.9918 8.31537 18.616V18.6159Z" fill="#3C336C"/>
<path d="M2.19967 25.0001C2.19967 21.835 3.43348 18.9378 5.41874 16.8455C5.79446 16.4163 5.79446 15.7726 5.41874 15.3969C4.98951 14.9142 4.23848 14.8603 3.8092 15.3434C1.44859 17.8114 0 21.2449 0 25C0 28.7552 1.44859 32.1888 3.86266 34.7104C4.29189 35.1931 5.04292 35.1396 5.4722 34.6568C5.84792 34.2276 5.84792 33.584 5.4722 33.2082C3.43348 31.0625 2.19967 28.1652 2.19967 25.0001V25.0001Z" fill="#3C336C"/>
<path d="M36.8032 0H14.1638C13.0909 0 12.2324 0.858456 12.2324 1.93133V48.0687C12.2324 49.1415 13.0909 50 14.1638 50H36.8032C37.8761 50 38.7346 49.1415 38.7346 48.0687V1.93133C38.7346 0.858465 37.8761 0 36.8032 0ZM23.8741 3.11159H27.0931C27.5759 3.11159 28.0051 3.54082 28.0051 4.02356C28.0051 4.5063 27.6294 4.93553 27.0931 4.93553H23.8741C23.3913 4.93553 22.9621 4.50629 22.9621 4.02356C22.9621 3.54081 23.3378 3.11159 23.8741 3.11159ZM25.4836 46.9957C24.1424 46.9957 23.0695 45.9228 23.0695 44.5816C23.0695 43.2404 24.1424 42.1676 25.4836 42.1676C26.8248 42.1676 27.8977 43.2404 27.8977 44.5816C27.8977 45.9225 26.8248 46.9957 25.4836 46.9957ZM36.4278 39.2164H14.5394V8.10057H36.4814V39.2164H36.4278Z" fill="#3C336C"/>
</svg>
