<svg width="90" height="143" viewBox="0 0 90 143" fill="none" xmlns="http://www.w3.org/2000/svg">
<path d="M71.503 72.3195C64.239 56.2838 55.4673 40.7978 43.2874 27.9504C31.9634 16.006 18.2365 6.5511 3.12741 0.0567138C2.77403 -0.0924921 2.07512 0.0566975 1.94162 0.457197C0.355329 5.13755 1.1956 10.4304 1.67463 15.2443C2.20077 20.5293 3.00178 25.7829 4.06978 30.9816C6.1508 41.1197 9.25271 51.0459 13.3362 60.5479C17.3177 69.8222 22.2415 78.7039 28.0369 86.973C29.474 89.0227 30.9582 91.0409 32.5131 93.0041C33.5183 94.2763 34.2643 95.3129 35.9998 95.2422C39.942 95.093 44.7166 92.69 48.2583 91.0958C53.1271 88.9127 57.7603 86.2113 62.0559 83.0466C66.3279 79.9054 70.3643 76.3637 72.3747 71.3379C72.5396 70.9138 71.2281 71.063 71.0554 71.5028C67.4666 80.5101 56.5903 86.5097 48.2112 90.342C45.9103 91.3943 43.5544 92.3366 41.1514 93.1376C38.6149 93.9857 36.149 95.038 34.0523 92.8863C31.0054 89.7609 28.5474 85.536 26.1915 81.8843C16.3204 66.5868 9.38621 49.4281 5.60894 31.6334C4.58021 26.7803 3.78706 21.8722 3.22951 16.9405C2.62483 11.6084 1.52541 5.46738 3.27662 0.292292C2.88397 0.425792 2.48348 0.5593 2.09083 0.6928C17.1371 7.15577 30.8012 16.5715 42.0702 28.4608C54.2108 41.269 62.9511 56.6843 70.1915 72.665C70.3879 73.1283 71.6836 72.72 71.503 72.3195Z" fill="#272525"/>
<path d="M20.6743 37.7035C26.0535 32.6305 34.4326 31.7667 39.8669 37.2481C41.783 39.1877 43.2044 41.7713 43.5813 44.4963C44.0839 48.093 42.2385 50.9436 40.0475 53.5743C37.1969 56.9982 33.5217 59.731 28.7785 58.8436C25.708 58.2625 23.093 56.3935 21.3182 53.8491C18.3262 49.5693 16.2609 40.9546 21.2161 37.3108C21.813 36.8711 20.5015 36.8475 20.156 37.091C13.9365 41.6614 17.5095 52.8754 22.4883 56.9903C28.1032 61.6314 35.3985 59.9823 40.0475 55.0035C42.851 52.0037 45.5367 48.462 44.9006 44.1351C44.3744 40.5934 42.2463 37.3501 39.38 35.2534C33.2468 30.7772 24.8756 32.5206 19.622 37.4758C19.0566 38.0098 20.3602 38.0019 20.6743 37.7035Z" fill="#272525"/>
<path d="M24.9776 39.9888C28.6606 35.9367 35.5084 37.1068 39.003 40.9861C42.5289 44.9126 39.215 49.0668 35.7283 51.5012C33.3567 53.1582 30.0271 54.2969 27.2628 53.0325C25.92 52.42 24.6007 51.4384 23.6191 50.3547C20.5878 46.9937 23.0851 43.2714 25.1425 40.138C25.4723 39.6354 24.153 39.7454 23.9096 40.1066C22.5589 42.1562 20.5014 45.0225 20.7606 47.6219C21.004 50.0798 23.1557 51.7918 25.0954 53.0168C29.9328 56.0638 33.9535 54.1241 38.1156 50.7395C42.5603 47.1114 43.2121 42.007 38.0135 38.7402C33.5295 35.921 27.6712 35.6304 23.9096 39.7689C23.3992 40.3422 24.6792 40.3186 24.9776 39.9888Z" fill="#272525"/>
<path d="M18.7732 8.7656C17.5874 11.6555 16.0953 14.3726 13.9593 16.6735C12.8207 17.8986 11.5642 18.9744 10.1114 19.8304C8.21098 20.9455 5.91792 20.922 4.08818 21.9271C4.86562 21.4952 3.70339 21.2989 3.27148 21.5345C3.05945 21.6523 2.85527 21.7701 2.64324 21.88C2.2663 22.0921 2.36839 22.4533 2.79245 22.4533C11.2579 22.4454 17.0927 15.9432 20.1003 8.59283C20.2652 8.18448 18.9538 8.33369 18.7732 8.7656Z" fill="#272525"/>
<path d="M54.9176 41.6069C62.4486 38.3479 70.9455 40.6096 76.9766 45.8553C82.3872 50.5749 85.7876 57.0458 88.5989 63.5402C88.9523 63.3595 89.3057 63.1868 89.6669 63.0062C84.8059 61.5455 79.9371 59.7707 74.9819 58.6713C71.6837 57.941 68.5975 57.9724 65.5662 59.5587C64.7809 59.9671 65.951 60.1791 66.3829 59.9514C70.4979 57.7997 75.1233 59.5901 79.1833 60.8152C82.403 61.7811 85.6305 62.7548 88.8502 63.7208C89.078 63.7914 90.0831 63.5794 89.9182 63.1868C86.5964 55.5144 82.348 47.6379 75.1076 43.0126C68.8959 39.0468 61.2 38.1202 54.3994 41.065C53.5512 41.4263 54.3208 41.866 54.9176 41.6069Z" fill="#272525"/>
<path d="M16.0493 64.7804C9.76694 66.9714 5.20437 72.1778 2.82493 78.2953C-0.434044 86.6901 1.05017 95.9094 3.46103 104.312C3.58667 104.76 4.72534 104.438 4.78031 104.053C5.43996 99.616 7.25399 95.5796 9.89257 91.9594C12.9238 87.8052 18.5622 81.1066 24.2792 81.7977C24.6954 81.8448 25.8262 81.1694 25.088 81.0831C19.6931 80.4313 15.3111 84.4127 11.8637 88.0879C7.61523 92.6112 4.37982 98.014 3.46103 104.218C3.90079 104.131 4.34055 104.045 4.78031 103.959C2.62075 96.4356 1.19938 88.3785 3.31182 80.6669C5.16511 73.8898 9.78263 67.686 16.5676 65.3222C17.4393 65.016 16.6461 64.5684 16.0493 64.7804Z" fill="#272525"/>
<path d="M65.9305 81.2168C65.9148 81.1697 68.4356 82.6068 68.8047 82.8895C69.6921 83.5805 70.5324 84.3108 71.3334 85.0961C72.7076 86.4468 73.9641 87.9232 75.0635 89.5095C75.9745 90.8209 77.812 92.7056 76.7048 94.3861C76.2336 95.1008 74.2076 95.729 73.4929 96.1138C71.1763 97.3624 68.8597 98.6032 66.5352 99.8518C64.2186 101.1 61.902 102.341 59.5775 103.59C58.5095 104.163 57.4415 104.736 56.3656 105.317C54.8108 106.15 53.7977 107.131 52.6512 105.2C51.6696 103.551 48.976 90.601 51.1042 89.8472C51.9759 89.5409 51.1827 89.0933 50.5859 89.3053C48.4106 90.0749 49.243 93.7108 49.3765 95.4934C49.5336 97.653 49.8556 99.7968 50.3346 101.909C50.6252 103.189 50.9785 106.189 51.8816 107.139C52.9339 108.247 53.7585 107.556 55.0542 106.864C59.3419 104.571 63.6139 102.263 67.8938 99.9696C70.0298 98.8231 72.1736 97.6687 74.3096 96.5222C75.4169 95.9253 77.3566 95.3521 78.1654 94.3626C79.5475 92.6664 76.6969 89.5409 75.7232 88.2295C73.6186 85.3945 70.9878 82.8266 67.9959 80.9419C66.6452 80.0938 65.5615 79.5676 64.4542 80.8948C64.4071 80.9498 64.3992 81.0126 64.4071 81.0832C64.4699 81.256 64.5406 81.4288 64.6034 81.6016C64.784 82.0335 66.0876 81.6408 65.9305 81.2168Z" fill="#272525"/>
<path d="M74.0545 97.6924C79.3396 97.8024 83.91 105.223 86.5093 109.15C86.847 108.946 87.1846 108.742 87.5302 108.529C85.1978 108.255 82.7477 107.721 80.3997 107.674C79.8186 107.666 79.1432 107.54 78.6014 107.831C76.4261 108.977 78.6564 112.676 79.104 114.364C81.5384 123.552 82.4493 133.054 81.9782 142.541C82.3708 142.407 82.7713 142.274 83.1639 142.14C73.6462 137.122 67.2539 127.659 65.8011 117.042C65.7383 116.602 64.419 116.901 64.4818 117.395C64.6703 118.95 64.2541 120.128 63.0526 121.141C63.4452 121.118 63.8457 121.094 64.2383 121.071C63.8064 119.869 59.3303 104.47 60.5867 104.43C61.0815 104.415 61.9846 103.653 61.0972 103.684C59.0004 103.747 58.9533 105.451 59.2282 107.273C59.9585 112.103 61.2621 116.838 62.9191 121.424C63.0761 121.848 63.885 121.542 64.1049 121.353C65.4791 120.191 66.0053 118.817 65.7932 117.042C65.3535 117.16 64.9137 117.278 64.4739 117.395C65.9503 128.154 72.4761 137.703 82.1116 142.784C82.3786 142.925 83.2739 142.784 83.2974 142.384C83.6194 135.889 83.3289 129.387 82.308 122.955C81.7975 119.759 81.1222 116.594 80.2741 113.469C79.795 111.702 78.2087 109.221 80.7845 108.537C82.2687 108.145 85.1586 109.064 86.7292 109.244C86.9883 109.276 88.0563 109.095 87.7501 108.624C84.868 104.273 80.4704 97.0642 74.5807 96.9385C74.0702 96.9307 73.1671 97.6767 74.0545 97.6924Z" fill="#272525"/>
<path d="M72.0503 102.38C72.7335 101.705 75.4349 104.595 75.7334 105.16C77.2176 106.393 76.3459 107.021 73.0948 107.053C72.7964 107.013 72.4901 107.014 72.1917 107.037C71.5478 107.414 71.3436 107.084 70.9666 108.019C70.6761 108.757 71.3279 110.359 71.4692 111.089C71.7755 112.613 72.0818 114.128 72.388 115.652C72.8121 117.78 74.9245 123.041 73.3304 124.934C73.7544 124.879 74.1785 124.824 74.6025 124.769C72.3644 119.869 70.1264 114.976 67.8961 110.076C67.7155 109.676 66.781 109.911 66.624 110.241C65.9015 111.757 65.179 113.272 64.4565 114.788C64.8806 114.733 65.3047 114.678 65.7287 114.623C64.0246 110.43 64.0482 106.079 65.8465 101.925C66.0193 101.516 64.7157 101.658 64.5272 102.09C62.7053 106.315 62.6818 110.712 64.4094 114.976C64.5743 115.385 65.5324 115.133 65.6816 114.811C66.4041 113.296 67.1265 111.78 67.849 110.265C67.425 110.32 67.0009 110.375 66.5768 110.43C68.8149 115.33 71.053 120.222 73.2832 125.122C73.4874 125.578 74.3355 125.224 74.5554 124.957C75.5684 123.756 75.1208 122.429 74.846 120.992C74.3041 118.133 73.6995 115.291 73.1262 112.44C72.9927 111.772 72.0032 108.961 72.3252 108.451C72.9299 107.508 73.401 108.097 74.2256 107.893C75.6391 107.54 76.7385 107.335 77.995 106.519C78.1364 106.432 78.3484 106.236 78.1992 106.063C76.7464 104.398 73.5895 99.5925 70.9823 102.16C70.4483 102.702 71.7441 102.687 72.0503 102.38Z" fill="#272525"/>
<path d="M18.6955 9.88045C14.0622 22.2881 10.7247 35.1041 8.69866 48.1871C8.62013 48.6976 9.94728 48.4698 10.018 48.0222C12.0519 34.9392 15.3815 22.1232 20.0147 9.71555C20.1797 9.28364 18.8604 9.44069 18.6955 9.88045Z" fill="#272525"/>
<path d="M13.9667 17.0506C10.7863 25.3905 8.57174 34.013 7.30741 42.8476C7.23674 43.3659 8.56388 43.1303 8.6267 42.6826C9.88317 33.8481 12.1056 25.2255 15.286 16.8857C15.4509 16.4538 14.1316 16.6109 13.9667 17.0506Z" fill="#272525"/>
<path d="M10.6939 20.0187C8.77777 25.7042 7.21503 31.4761 5.98997 37.3423C5.88788 37.837 7.21504 37.625 7.30927 37.1773C8.53433 31.3033 10.0971 25.5314 12.0132 19.8538C12.1702 19.4061 10.8509 19.5711 10.6939 20.0187Z" fill="#272525"/>
<path d="M7.85706 22.0528C6.4985 26.0185 5.44621 30.0549 4.68448 34.1698C4.59024 34.6724 5.91738 34.4526 6.00376 34.005C6.7655 29.8822 7.82565 25.8536 9.17636 21.8879C9.33342 21.4403 8.00626 21.613 7.85706 22.0528Z" fill="#272525"/>
<path d="M6.72631 22.2803C6.65563 22.1075 6.58496 21.9269 6.51429 21.7541C6.33367 21.3065 5.29707 21.6285 5.19499 22.0133C4.62172 24.1336 4.1427 26.2696 3.76576 28.4291C3.67938 28.9317 5.00652 28.7119 5.08505 28.2642C5.46199 26.1047 5.94102 23.9686 6.51429 21.8484C6.07452 21.9347 5.63475 22.0211 5.19499 22.1075C5.26566 22.2803 5.33634 22.4609 5.40702 22.6336C5.59549 23.0891 6.89907 22.6965 6.72631 22.2803Z" fill="#272525"/>
<path d="M21.123 11.043C16.3562 24.5501 12.5475 38.3634 9.71263 52.4044C9.61054 52.8992 10.9377 52.6871 11.0319 52.2395C13.8668 38.1985 17.6677 24.3851 22.4423 10.8781C22.5993 10.4383 21.28 10.6032 21.123 11.043Z" fill="#272525"/>
<path d="M23.2186 12.3462C18.2948 26.6621 14.5176 41.3235 11.8869 56.2363C11.8005 56.7389 13.1276 56.519 13.2061 56.0714C15.8369 41.1586 19.6141 26.4972 24.5379 12.1813C24.6871 11.7336 23.3678 11.9064 23.2186 12.3462Z" fill="#272525"/>
<path d="M25.9228 14.2627C23.6926 22.0449 21.4623 29.835 19.2321 37.6173C19.0986 38.0806 20.4257 37.9 20.5514 37.4524C22.7816 29.6701 25.0119 21.88 27.2421 14.0977C27.3756 13.6266 26.0484 13.815 25.9228 14.2627Z" fill="#272525"/>
<path d="M16.6295 45.117C15.4908 50.2686 14.36 55.4201 13.2213 60.5716C13.1114 61.0585 14.4385 60.8544 14.5406 60.4067C15.6793 55.2552 16.8101 50.1037 17.9488 44.9522C18.0587 44.4653 16.7316 44.6694 16.6295 45.117Z" fill="#272525"/>
<path d="M29.2647 16.265C29.2961 16.2572 29.3275 16.2493 29.351 16.2415C29.5238 16.1944 30.0107 15.998 29.9243 15.731C29.9086 15.6839 29.8929 15.6447 29.8772 15.5975C29.7201 15.1185 28.8013 15.5268 28.605 15.7624C27.9375 16.5399 27.8668 17.9377 27.6155 18.9115C27.1444 20.7648 26.6732 22.6181 26.1942 24.4635C25.2911 27.9816 24.3958 31.4997 23.4928 35.0179C23.3671 35.4969 24.6942 35.3005 24.812 34.8529C25.6209 31.7039 26.4219 28.5628 27.2307 25.4137C27.6077 23.9295 27.9846 22.4531 28.3694 20.9689C28.715 19.6025 28.927 16.854 29.8379 15.7939C29.4139 15.8488 28.9898 15.9038 28.5657 15.9588C28.5815 16.0059 28.5972 16.0452 28.6129 16.0923C28.8013 15.9195 28.9977 15.7546 29.1861 15.5818C29.1547 15.5897 29.1233 15.5976 29.0998 15.6054C28.2988 15.8253 28.4715 16.4928 29.2647 16.265Z" fill="#272525"/>
<path d="M18.7347 52.1059C18.185 56.2916 16.1824 60.0767 15.5385 64.2387C15.46 64.7492 16.7871 64.5214 16.8578 64.0738C17.5096 59.9118 19.5042 56.1266 20.0539 51.941C20.1246 51.4227 18.7975 51.6583 18.7347 52.1059Z" fill="#272525"/>
<path d="M32.273 18.7233C32.2888 18.6997 32.3123 18.684 32.328 18.6604C32.3987 18.5819 32.3908 18.4641 32.328 18.3856C32.3045 18.3542 32.2809 18.3306 32.2495 18.2992C31.9746 17.9851 31.2286 18.2678 31.0244 18.5427C29.8858 20.0583 29.7208 23.2387 29.2732 25.0841C28.9513 26.4113 28.6293 27.7384 28.3152 29.0656C28.0246 30.2906 27.899 32.835 27.0666 33.7931C27.4906 33.7381 27.9147 33.6831 28.3387 33.6281C28.3309 33.5889 28.323 33.5496 28.3152 33.5025C28.0639 33.6831 27.8126 33.8637 27.5613 34.0444C27.5848 34.0444 27.6163 34.0443 27.6398 34.0365C28.2916 33.9972 28.7392 33.2512 27.8204 33.3062C27.7969 33.3062 27.7655 33.3062 27.7419 33.314C27.5142 33.3297 26.9331 33.5261 26.988 33.8559C26.9959 33.8952 27.0037 33.9344 27.0116 33.9815C27.098 34.4841 28.1189 34.013 28.2838 33.8166C29.4853 32.4188 29.5952 28.9871 30.0271 27.1888C30.3412 25.8616 30.6632 24.5345 30.993 23.2152C31.3071 21.9508 31.4563 19.6106 32.2416 18.5662C31.8333 18.6447 31.4249 18.7311 31.0166 18.8096C31.0244 18.7704 31.0244 18.7311 31.0323 18.6919C30.6711 19.1159 31.9903 19.0374 32.273 18.7233Z" fill="#272525"/>
<path d="M21.2768 54.713C20.4208 60.2414 18.7717 65.6835 17.7587 71.1963C17.6644 71.6989 18.9994 71.479 19.078 71.0313C20.091 65.5186 21.7401 60.0686 22.5961 54.548C22.6825 54.0297 21.3475 54.2575 21.2768 54.713Z" fill="#272525"/>
<path d="M35.1655 19.9562C35.1027 19.54 35.142 19.6185 34.82 19.3437C34.498 19.0767 33.6735 19.273 33.5478 19.6814C32.7704 22.2179 32.0322 24.7544 31.3333 27.3144C30.9249 28.7986 29.48 31.8299 29.9355 33.2984C29.9826 33.4554 30.2024 33.5025 30.3359 33.4947C30.3752 33.4947 30.4145 33.4868 30.4537 33.4868C30.9406 33.4633 31.8516 32.6937 30.9642 32.7408C31.5689 32.7094 32.7861 26.6391 32.9274 26.1286C33.5399 23.9141 34.1917 21.7153 34.8671 19.5165C34.443 19.6264 34.019 19.7442 33.5949 19.8541C33.6813 20.0033 33.7598 20.1526 33.8462 20.3018C33.909 20.7572 35.2362 20.451 35.1655 19.9562Z" fill="#272525"/>
<path d="M36.5368 22.5475C35.1389 24.2751 35.0526 26.9058 34.6128 29.0104C34.3772 30.1648 33.0579 33.2981 33.7804 34.2798C34.0317 34.6253 34.8091 34.2876 35.0054 34.0363C35.029 34.0049 35.0604 33.9735 35.084 33.9342C35.1939 33.7929 35.1154 33.683 34.9976 33.6044C34.974 33.5887 34.9505 33.573 34.9269 33.5573C34.5735 33.3139 33.3563 33.84 33.8746 34.1934C33.8432 34.1306 33.8118 34.0678 33.7804 34.0049C34.1887 33.9264 34.5971 33.84 35.0054 33.7615C34.55 33.1411 35.8457 29.2853 36.0263 28.4136C36.419 26.5132 36.5211 24.1102 37.7697 22.5789C38.1309 22.1234 36.8116 22.2098 36.5368 22.5475Z" fill="#272525"/>
<path d="M38.8375 24.9426C37.8873 25.9871 37.5025 27.5263 37.047 28.8299C36.4031 30.6753 35.8848 32.56 35.4607 34.4683C35.3743 34.8373 36.0497 34.751 36.2068 34.7117C36.2696 34.696 36.3324 34.6882 36.3874 34.6724C36.5758 34.6332 36.9135 34.484 36.9606 34.2563C36.9763 34.1934 36.9842 34.1306 36.9999 34.0678C37.0941 33.5652 35.767 33.7851 35.6806 34.2327C35.6649 34.2955 35.657 34.3583 35.6413 34.4211C35.8298 34.2798 36.0261 34.1463 36.2146 34.005C36.1518 34.0207 36.089 34.0285 36.034 34.0442C36.2853 34.1227 36.5366 34.2091 36.78 34.2877C37.102 32.827 37.4789 31.3821 37.9344 29.9528C38.3899 28.5236 38.8925 26.2541 39.8976 25.139C40.4159 24.5893 39.1359 24.6128 38.8375 24.9426Z" fill="#272525"/>
<path d="M41.6234 27.5813C40.9088 29.0812 40.2963 30.6125 39.8408 32.2145C39.5345 33.2982 38.6864 35.2064 39.4089 36.2038C39.6681 36.565 40.9481 36.1174 40.634 35.6854C40.0607 34.9002 40.9795 32.6464 41.2386 31.7747C41.6627 30.3455 42.2124 28.9555 42.8563 27.6126C43.1312 27.0394 41.8119 27.1886 41.6234 27.5813Z" fill="#272525"/>
<path d="M45.2364 30.6359C45.205 30.4239 45.1736 30.204 45.1422 29.992C45.0715 29.513 43.9171 29.9135 43.8229 30.2512C43.2967 32.128 42.7784 34.0049 42.2523 35.8817C41.8753 37.2324 41.0429 38.9522 41.1136 40.35C41.1215 40.4521 41.2942 40.5228 41.3728 40.5307C41.412 40.5385 41.4513 40.5385 41.4905 40.5464C41.8596 40.5935 42.3936 40.4914 42.5585 40.1066C42.5743 40.0752 42.5821 40.0438 42.5978 40.0202C42.7706 39.604 41.4591 39.7532 41.2785 40.1852C41.2628 40.2166 41.255 40.248 41.2393 40.2715C41.5926 40.1223 41.946 39.981 42.3072 39.8318C42.7392 39.8867 44.9066 30.9737 45.1579 30.0863C44.7181 30.1727 44.2783 30.259 43.8386 30.3454C43.87 30.5574 43.9014 30.7773 43.9328 30.9893C43.9878 31.437 45.3149 31.1307 45.2364 30.6359Z" fill="#272525"/>
<path d="M46.8628 33.612C45.2844 36.7139 44.1614 39.965 43.486 43.3811C43.3839 43.8758 44.719 43.6638 44.8053 43.2161C45.465 39.8708 46.5487 36.6825 48.0957 33.6434C48.3706 33.078 47.0591 33.2272 46.8628 33.612Z" fill="#272525"/>
<path d="M48.3881 37.0914C41.1869 53.3784 34.2685 69.7832 27.6327 86.3137C27.46 86.7377 28.7793 86.5807 28.952 86.1487C35.5878 69.6261 42.5062 53.2135 49.7074 36.9265C49.888 36.5182 48.5844 36.6595 48.3881 37.0914Z" fill="#272525"/>
<path d="M36.6938 57.2888C35.4687 61.5215 33.0265 65.4245 31.2282 69.4452C29.2492 73.8664 27.4666 78.3661 25.8489 82.9365C25.6918 83.3763 27.0111 83.2114 27.1682 82.7716C28.7859 78.209 30.5685 73.7015 32.5475 69.2803C34.3379 65.2753 36.788 61.3567 38.0131 57.1239C38.1466 56.6606 36.8273 56.8412 36.6938 57.2888Z" fill="#272525"/>
<path d="M32.4532 59.354C33.0186 60.0215 31.0397 63.571 30.7648 64.2464C30.0188 66.0918 29.2806 67.9294 28.5346 69.7748C27.0504 73.4579 25.5662 77.1488 24.082 80.8318C23.9092 81.248 25.2285 81.0988 25.4013 80.6669C27.1053 76.4263 28.8173 72.1935 30.5214 67.9529C31.3381 65.9269 32.1548 63.9008 32.9715 61.8748C33.3249 60.9952 34.3929 59.6917 33.6704 58.8435C33.3877 58.4902 32.1234 58.9613 32.4532 59.354Z" fill="#272525"/>
<path d="M29.0084 59.6842C26.3934 65.299 23.9825 71.0003 21.7916 76.7957C21.6267 77.2277 22.946 77.0706 23.1109 76.6308C25.3018 70.8353 27.7048 65.1341 30.3277 59.5193C30.5083 59.1266 29.2048 59.2601 29.0084 59.6842Z" fill="#272525"/>
<path d="M26.3422 59.1972C26.5935 60.3123 25.3606 62.0557 24.9365 63.053C24.4261 64.2702 23.9235 65.4874 23.4445 66.7125C22.4157 69.3432 21.4655 72.0132 20.5781 74.6989C20.4289 75.1466 21.7482 74.9816 21.8974 74.534C22.9026 71.4871 23.9863 68.4715 25.18 65.4953C25.8553 63.8069 28.0699 60.6343 27.6615 58.836C27.5594 58.3884 26.2323 58.726 26.3422 59.1972Z" fill="#272525"/>
<path d="M23.9953 58.4043C22.354 63.0533 20.7206 67.71 19.0794 72.359C18.9223 72.7987 20.2416 72.6339 20.3987 72.1941C22.0399 67.5452 23.6733 62.8884 25.3146 58.2394C25.4717 57.7996 24.1524 57.9646 23.9953 58.4043Z" fill="#272525"/>
<path d="M50.748 38.5203C41.9527 54.3205 38.5995 72.5471 29.0425 87.9703C28.7205 88.4886 30.0398 88.3708 30.2754 88.0017C39.8325 72.5786 43.1857 54.3519 51.981 38.5517C52.2794 38.002 50.9601 38.1356 50.748 38.5203Z" fill="#272525"/>
<path d="M52.054 40.6879C45.756 58.0743 39.8977 75.6335 31.0867 91.9519C30.7883 92.5016 32.1076 92.3602 32.3196 91.9833C41.1542 75.6021 47.0517 57.9722 53.3733 40.523C53.5304 40.0832 52.2111 40.2403 52.054 40.6879Z" fill="#272525"/>
<path d="M54.0668 42.6122C50.1403 51.5488 47.2347 60.8703 44.0857 70.0975C42.5701 74.5266 40.9995 78.9478 39.209 83.2747C38.1253 85.8898 36.9631 88.4812 35.6831 91.0099C35.1412 92.0779 33.7669 93.6563 34.0654 94.8971C34.1046 95.062 34.3324 95.0856 34.4659 95.0934C35.0234 95.1248 35.3846 94.9913 35.7145 94.5437C35.7773 94.4573 35.7773 94.3553 35.7145 94.2689C35.6752 94.2217 35.6438 94.1825 35.6045 94.1354C35.3218 93.782 34.0497 94.2453 34.3795 94.6537C34.7643 95.1327 38.0625 88.7011 38.3688 88.0415C39.2797 86.0861 40.1278 84.115 40.9367 82.1203C42.7036 77.7777 44.2506 73.3565 45.7584 68.9195C48.7739 60.0222 51.6088 51.0698 55.3939 42.463C55.5667 42.0389 54.2553 42.1803 54.0668 42.6122Z" fill="#272525"/>
<path d="M55.5715 45.6353C52.1398 53.5432 48.9279 61.3412 46.4621 69.6025C43.8628 78.3271 40.5881 86.7612 36.4653 94.8889C36.1826 95.4465 37.5019 95.3052 37.6982 94.9204C41.6797 87.0674 44.9308 78.9082 47.4751 70.482C50.0745 61.8673 53.3177 53.7238 56.8987 45.4704C57.0636 45.062 55.76 45.2034 55.5715 45.6353Z" fill="#272525"/>
<path d="M57.8582 48.7449C57.9132 48.7371 57.9603 48.7293 58.0153 48.7136C58.2587 48.6664 58.8084 48.5251 58.7692 48.1717C58.7613 48.101 58.7534 48.0304 58.7456 47.9518C58.722 47.732 58.3137 47.7555 58.1723 47.7633C56.2955 47.8968 55.5966 50.7946 55.1097 52.2003C53.5077 56.8492 51.9921 61.5217 50.3586 66.155C47.0683 75.4921 43.5659 84.7507 39.8671 93.9308C39.6944 94.3549 41.0136 94.1978 41.1864 93.7659C44.2176 86.2349 47.1232 78.6568 49.8796 71.0237C51.2225 67.3014 52.5418 63.5635 53.8218 59.8098C54.4657 57.9329 55.094 56.0561 55.7144 54.1714C56.2248 52.6243 57.6069 49.8915 57.442 48.5094C57.6933 48.3287 57.9446 48.1481 58.1959 47.9675C58.1409 47.9754 58.0938 47.9832 58.0388 47.999C57.4106 48.1246 56.9473 48.902 57.8582 48.7449Z" fill="#272525"/>
<path d="M60.1652 50.166C60.1574 50.0639 60.1417 49.9619 60.1338 49.8676C60.1103 49.7969 60.0631 49.7498 60.0003 49.7263C58.9873 49.3886 58.6025 49.797 58.0606 50.598C56.8984 52.3021 56.4115 55.294 55.7519 57.2415C54.9351 59.6524 54.142 62.0633 53.3646 64.482C50.4433 73.6149 47.8125 82.8421 45.4488 92.14C45.331 92.619 46.6581 92.4227 46.7681 91.9751C48.6057 84.7661 50.5925 77.5964 52.7599 70.4816C53.7886 67.1127 54.8488 63.7595 55.956 60.4142C56.5686 58.5609 57.1968 56.7076 57.8329 54.8543C58.2884 53.5271 58.6182 50.9513 59.6783 50.0404C59.3249 50.1111 58.9716 50.1818 58.626 50.2525C58.7046 50.3388 58.7752 50.433 58.8538 50.5194C58.8852 50.9513 60.2123 50.6686 60.1652 50.166Z" fill="#272525"/>
<path d="M59.3642 52.0749C56.2937 64.7339 52.8698 77.3064 49.0926 89.7769C48.9512 90.2402 50.2783 90.0596 50.4118 89.612C54.1891 77.1415 57.613 64.569 60.6835 51.91C60.8013 51.4231 59.4741 51.6195 59.3642 52.0749Z" fill="#272525"/>
<path d="M61.0776 54.9171C57.9286 66.3431 54.7717 77.777 51.6227 89.203C51.4892 89.6742 52.8163 89.4857 52.942 89.0381C56.091 77.6121 59.2479 66.1782 62.3969 54.7522C62.5304 54.281 61.2033 54.4695 61.0776 54.9171Z" fill="#272525"/>
<path d="M62.8671 58.3022C60.4798 67.7493 57.8805 77.1335 55.0691 86.4628C54.9278 86.9261 56.2549 86.7455 56.3884 86.2979C59.1998 76.9686 61.7991 67.5843 64.1864 58.1372C64.3042 57.6582 62.977 57.8546 62.8671 58.3022Z" fill="#272525"/>
<path d="M64.9487 61.349C63.9356 65.5347 62.8362 69.6888 61.619 73.8195C61.0693 75.6963 60.496 77.5653 59.9071 79.4265C59.4045 81.0049 58.415 82.8268 58.4543 84.4916C58.4543 84.6487 58.7527 84.688 58.8548 84.688C58.9333 84.688 59.004 84.688 59.0825 84.688C59.3495 84.688 59.9306 84.5623 60.0013 84.2325C60.017 84.1697 60.0249 84.1068 60.0406 84.0519C60.1427 83.5571 58.8155 83.7692 58.7213 84.2168C58.7056 84.2796 58.6977 84.3424 58.682 84.3974C58.9883 84.2482 59.2945 84.0911 59.6008 83.9419C60.4175 83.9498 62.9383 73.6782 63.2681 72.5316C64.3518 68.7701 65.3413 64.9849 66.2679 61.1841C66.3857 60.7051 65.0586 60.9014 64.9487 61.349Z" fill="#272525"/>
<path d="M66.3252 64.6155C65.2807 70.3874 63.8829 76.0573 62.1239 81.6486C61.9825 82.104 63.3018 81.9312 63.4431 81.4836C65.2022 75.8923 66.6 70.2225 67.6445 64.4506C67.7387 63.948 66.4116 64.1679 66.3252 64.6155Z" fill="#272525"/>
<path d="M69.1337 68.2673C69.118 68.0945 69.0944 67.9296 69.0787 67.7568C69.0237 67.3013 67.8301 67.6547 67.7594 68.016C67.2019 70.8744 66.4873 73.6936 65.5606 76.45C65.1365 77.7065 63.2126 80.6592 64.1628 81.8057C64.4533 82.1513 65.7177 81.6879 65.3878 81.2874C64.7282 80.4943 67.0212 75.916 67.3589 74.8166C68.0657 72.5235 68.6232 70.1991 69.0866 67.8432C68.6468 67.9296 68.207 68.016 67.7673 68.1023C67.783 68.2751 67.8066 68.44 67.8223 68.6128C67.8615 69.0604 69.1887 68.7699 69.1337 68.2673Z" fill="#272525"/>
<path d="M68.8751 71.1807C67.8621 73.3717 67.0768 75.6255 66.5035 77.9735C66.3857 78.4526 67.7129 78.2562 67.8228 77.8086C68.3961 75.4606 69.1813 73.2068 70.1944 71.0159C70.375 70.6232 69.0714 70.7567 68.8751 71.1807Z" fill="#272525"/>
<path d="M71.4439 103.236C73.2972 103.189 74.2631 104.297 74.6793 105.804C75.1034 105.663 75.5274 105.514 75.9515 105.372C75.2212 104.854 74.7029 104.163 74.3966 103.299C74.004 103.464 73.6035 103.629 73.2108 103.794C73.4778 103.998 73.7527 104.21 74.0197 104.414C74.428 104.242 74.8364 104.069 75.2447 103.896C74.5851 103.142 74.004 102.687 73.1402 102.216C72.8653 102.066 71.9936 102.216 71.9543 102.616C71.7816 104.265 71.8444 105.687 72.1585 107.312C72.5983 107.194 73.0381 107.076 73.4778 106.959C72.9203 105.043 72.3627 103.134 71.8051 101.218C71.6716 100.755 70.4309 101.1 70.4859 101.572C70.7057 103.535 70.9178 105.498 71.1377 107.461C71.5774 107.343 72.0172 107.226 72.4569 107.108C71.5303 105.435 70.9649 103.77 70.6822 101.87C70.6115 101.407 69.3472 101.752 69.3629 102.223C69.4179 104.21 69.465 106.189 69.5199 108.176C69.9597 108.058 70.3995 107.94 70.8392 107.823C70.2503 105.663 69.6691 103.496 69.0802 101.336C68.9545 100.857 67.7452 101.226 67.7609 101.689C67.8394 104.194 67.9179 106.692 67.9886 109.197C68.4284 109.079 68.8681 108.961 69.3079 108.843C68.7504 106.181 68.3184 103.519 68.0279 100.818C67.9808 100.362 66.7007 100.692 66.7086 101.171C66.7243 103.888 66.7479 106.613 66.7636 109.33C67.2033 109.212 67.6431 109.095 68.0829 108.977C67.3525 106.888 66.9363 104.768 66.5672 102.592C66.4887 102.153 65.2794 102.467 65.248 102.852C65.0673 105.137 64.8946 107.43 64.7139 109.715C65.138 109.605 65.562 109.487 65.9861 109.377C65.5149 108.718 65.2636 107.995 65.2322 107.202C64.7925 107.32 64.3527 107.438 63.9129 107.556C64.1328 108.608 64.3448 109.668 64.5647 110.72C64.6668 111.207 65.782 110.791 65.884 110.461C66.5437 108.317 67.1955 106.181 67.8551 104.037C68.1143 103.197 68.2792 101.25 69.4179 101.132C70.2424 101.045 71.8444 102.922 72.3234 103.448C72.6611 103.244 72.9988 103.04 73.3443 102.828C71.7659 102.325 70.1717 99.7968 73.0459 102.121C72.9595 102.058 74.4673 103.582 74.3338 103.598C73.9568 103.637 72.5512 101.674 72.8339 101.517C73.5721 101.1 74.9463 104.336 75.0405 104.697C75.4332 104.532 75.8337 104.367 76.2264 104.202C75.017 103.676 72.881 102.129 71.4361 102.914C70.1482 103.613 70.3602 105.851 70.8235 106.959C70.8942 107.124 71.067 107.147 71.224 107.155C72.8339 107.257 74.3731 106.472 75.7709 105.741C75.4175 105.702 75.0563 105.663 74.7029 105.632C74.2788 106.864 73.4621 107.775 72.2528 108.357C72.5276 108.49 72.8025 108.616 73.0695 108.749C74.3888 107.932 75.2133 106.967 75.8337 105.529C76.03 105.058 74.8914 105.341 74.7657 105.42C72.3549 106.81 70.3681 108.561 68.6718 110.767C69.0959 110.744 69.5199 110.72 69.944 110.697C70.0854 109.283 70.3838 108.042 70.9021 106.723C70.4623 106.778 70.0225 106.833 69.5828 106.888C69.465 108.309 69.2451 109.197 68.5226 110.516C68.9467 110.461 69.3707 110.406 69.7948 110.351C69.5278 109.762 69.2529 109.173 68.9859 108.592C68.7896 108.16 67.5174 108.498 67.6666 108.945C68.7346 112.244 70.0775 115.385 71.7266 118.44C71.9544 118.864 73.2265 118.503 73.0459 118.086C71.7423 115.079 70.8549 112 70.3681 108.757C69.9283 108.875 69.4885 108.993 69.0488 109.11C70.3131 112.173 71.3654 115.291 72.2135 118.487C72.3313 118.942 73.627 118.605 73.5328 118.133C73.0066 115.526 72.4805 112.927 71.9543 110.32C71.5146 110.438 71.0748 110.555 70.6351 110.673C71.5381 114.733 72.4412 118.785 73.3443 122.845C73.7841 122.727 74.2239 122.61 74.6636 122.492C72.1507 117.725 69.9519 112.833 68.0593 107.791C67.8944 107.343 66.6693 107.665 66.74 108.144C66.8971 109.181 67.0541 110.226 67.2112 111.262C67.6352 111.121 68.0593 110.972 68.4834 110.83C67.6824 109.951 67.9022 108.702 66.473 108.969C66.2217 109.016 65.7976 109.126 65.7191 109.417C65.4443 110.516 65.6406 111.686 65.6877 112.817C65.7034 113.233 67.0306 112.974 67.007 112.464C66.9128 110.241 66.8107 108.011 66.7164 105.789C66.7007 105.365 65.4285 105.647 65.3971 106.048C65.2244 108.404 65.0595 110.76 64.8867 113.108C65.3265 113.021 65.7662 112.935 66.206 112.848C65.9704 110.39 65.7348 107.94 65.4914 105.482C65.0516 105.6 64.6118 105.718 64.1721 105.836C64.3841 107.328 64.5961 108.82 64.8082 110.312C64.871 110.744 66.1196 110.445 66.1275 110.053C66.1432 108.561 66.1824 103.645 67.6823 102.789C70.2267 101.328 72.9203 104.399 74.483 106.063C74.8599 105.867 75.2447 105.679 75.6217 105.482C74.1296 104.595 72.826 103.582 71.601 102.365C71.224 102.561 70.8392 102.75 70.4623 102.946C72.0407 103.778 73.6192 104.619 75.2055 105.451C75.5589 105.239 75.9044 105.027 76.2578 104.815C74.2239 103.88 72.2842 102.82 70.3838 101.619C70.0304 101.831 69.6849 102.043 69.3315 102.255C70.0618 102.53 70.6979 102.954 71.2476 103.519C72.6454 104.776 71.6716 105.404 68.3263 105.412C67.9415 105.223 66.7321 105.781 67.274 106.048C68.8839 106.849 71.334 107.179 72.7868 105.765C74.5301 104.077 71.868 102.31 70.3838 101.611C70.0304 101.446 68.7818 101.894 69.3315 102.247C71.224 103.448 73.1637 104.509 75.2055 105.443C75.5746 105.616 76.8153 105.098 76.2578 104.807C74.6793 103.975 73.1009 103.134 71.5146 102.302C71.2397 102.153 69.9911 102.498 70.3759 102.883C71.6717 104.163 73.0067 105.192 74.5694 106.118C74.8521 106.283 76.0693 105.93 75.7081 105.537C74.1061 103.833 71.0041 100.417 68.2478 101.265C65.1066 102.231 64.8396 107.697 64.8082 110.21C65.2479 110.123 65.6877 110.037 66.1275 109.951C65.9154 108.459 65.7034 106.967 65.4914 105.475C65.4286 105.027 64.125 105.341 64.1721 105.828C64.4077 108.286 64.6433 110.736 64.8867 113.194C64.926 113.626 66.1824 113.327 66.206 112.935C66.3788 110.579 66.5437 108.223 66.7164 105.875C66.2767 105.961 65.8369 106.048 65.3971 106.134C65.4914 108.357 65.5935 110.587 65.6877 112.809C66.1275 112.691 66.5672 112.574 67.007 112.456C66.9599 111.451 66.795 110.226 67.0384 109.244C66.7871 109.393 66.5358 109.542 66.2845 109.692C66.3473 109.684 67.0463 111.129 67.2426 111.341C67.5096 111.639 68.5854 111.372 68.5148 110.909C68.3577 109.872 68.2007 108.828 68.0436 107.791C67.6038 107.909 67.1641 108.027 66.7243 108.144C68.6168 113.186 70.8157 118.086 73.3286 122.845C73.5485 123.254 74.7578 122.979 74.6479 122.492C73.7448 118.432 72.8417 114.38 71.9387 110.32C71.8366 109.864 70.5251 110.194 70.6194 110.673C71.1455 113.28 71.6716 115.88 72.1978 118.487C72.6376 118.369 73.0773 118.251 73.5171 118.133C72.669 114.937 71.6167 111.82 70.3524 108.757C70.1717 108.317 68.9624 108.631 69.0331 109.11C69.5278 112.354 70.4073 115.432 71.7109 118.44C72.1507 118.322 72.5904 118.204 73.0302 118.086C71.3889 115.039 70.0382 111.89 68.9702 108.592C68.5305 108.71 68.0907 108.828 67.651 108.945C67.918 109.534 68.1928 110.123 68.4598 110.705C68.6483 111.113 69.5592 110.862 69.732 110.54C70.4152 109.291 70.7686 108.152 70.8864 106.723C70.9335 106.142 69.7084 106.527 69.5671 106.888C69.0409 108.207 68.7504 109.448 68.609 110.862C68.554 111.451 69.7084 111.027 69.8812 110.791C71.4753 108.71 73.2894 107.116 75.5667 105.812C75.2133 105.773 74.8521 105.734 74.4987 105.702C74.0982 106.864 73.3443 107.752 72.2371 108.364C71.4675 108.843 72.6375 108.985 73.0538 108.757C74.483 107.964 75.3547 106.982 76.0065 105.475C76.2106 105.003 75.0563 105.294 74.9385 105.365C73.9569 106.33 72.936 106.542 71.8758 106.001C71.4753 105.129 71.5617 104.438 72.1271 103.935C72.881 103.511 74.2945 104.485 75.1662 104.87C75.4411 104.988 76.4698 104.846 76.352 104.375C75.8416 102.349 73.4307 99.2314 71.2005 101.038C71.1219 101.1 71.0434 101.218 71.067 101.32C71.546 103.221 73.8391 105.812 75.8808 104.603C75.9986 104.532 76.1714 104.391 76.1321 104.234C75.6452 102.168 72.4569 99.4277 70.2581 100.582C70.1089 100.661 70.0068 100.786 70.0068 100.951C70.0225 102.435 71.2712 103.174 72.5276 103.566C72.7632 103.645 73.9019 103.338 73.5485 102.946C72.402 101.697 70.1011 99.3649 68.2085 100.566C67.3133 101.132 67.1719 102.2 66.8657 103.15C66.0725 105.639 65.3343 108.144 64.5647 110.642C65.0045 110.555 65.4443 110.469 65.884 110.383C65.6642 109.33 65.4521 108.27 65.2322 107.218C65.138 106.762 63.8423 107.092 63.9129 107.571C64.0464 108.514 64.282 109.11 64.7611 109.911C64.9574 110.241 66.0018 109.935 66.0332 109.574C66.2139 107.289 66.3866 104.995 66.5672 102.71C66.1275 102.797 65.6877 102.883 65.248 102.969C65.617 105.145 66.0332 107.265 66.7636 109.354C66.9285 109.833 68.0907 109.464 68.0829 109C68.0671 106.283 68.0436 103.558 68.0279 100.841C67.5881 100.959 67.1484 101.077 66.7086 101.195C67.007 103.896 67.4311 106.558 67.9886 109.22C68.0907 109.692 69.3236 109.33 69.3079 108.867C69.2294 106.362 69.1508 103.865 69.0802 101.36C68.6404 101.477 68.2006 101.595 67.7609 101.713C68.3499 103.872 68.931 106.04 69.5199 108.199C69.6456 108.678 70.855 108.309 70.8392 107.846C70.7843 105.859 70.7371 103.88 70.6822 101.894C70.2424 102.011 69.8027 102.129 69.3629 102.247C69.6456 104.139 70.211 105.804 71.1377 107.485C71.3654 107.901 72.5119 107.634 72.4569 107.131C72.2371 105.168 72.025 103.205 71.8051 101.242C71.3654 101.36 70.9256 101.477 70.4859 101.595C71.0434 103.511 71.601 105.42 72.1585 107.336C72.292 107.791 73.5721 107.453 73.4778 106.982C73.1873 105.467 73.1166 104.006 73.2736 102.475C72.881 102.608 72.4805 102.742 72.0879 102.875C72.8732 103.229 73.5171 103.747 74.0118 104.43C74.3024 104.76 75.5667 104.328 75.2369 103.912C74.7657 103.323 74.9463 103.464 74.2474 103.166C74.0197 103.072 72.8574 103.213 73.0616 103.66C73.5014 104.611 73.9019 105.192 74.7107 105.899C74.9777 106.134 76.1164 105.954 75.9829 105.467C75.4332 103.496 73.9569 102.459 71.9387 102.506C71.4596 102.498 70.5565 103.26 71.4439 103.236Z" fill="#272525"/>
</svg>
