<svg width="32" height="31" viewBox="0 0 32 31" fill="none" xmlns="http://www.w3.org/2000/svg">
<path d="M30.0641 10.0746L23.1316 8.73097C22.4649 8.59698 21.7981 8.19406 21.5322 7.52222L18.0663 1.20875C17.1327 -0.402916 14.7335 -0.402916 13.9339 1.20875L10.468 7.52222C10.0681 8.19406 9.53437 8.59698 8.86854 8.73097L1.93609 10.0746C0.069775 10.4776 -0.597068 12.761 0.602595 14.1048L5.40182 19.3436C5.93466 19.8805 6.06857 20.5523 6.06857 21.2242L5.26884 28.3436C5.00195 30.2242 7.00218 31.5677 8.60163 30.7611L15.0004 27.6717C15.6671 27.4028 16.3339 27.4028 16.9997 27.6717L23.3984 30.7611C25.1317 31.5669 26.998 30.2242 26.7312 28.3436L25.9315 21.2242C25.7985 20.5523 26.0644 19.7465 26.5982 19.3436L31.3974 14.1048C32.597 12.6271 31.9303 10.4776 30.0639 10.0746H30.0641Z" fill="#1FAB8A"/>
</svg>
