<svg width="557" height="556" viewBox="0 0 557 556" fill="none" xmlns="http://www.w3.org/2000/svg">
<path d="M278.893 0C431.515 0.500312 556.893 125.984 556.01 277.554C555.951 326.491 543.013 374.547 518.494 416.902C493.976 459.253 458.74 494.403 416.329 518.819C373.918 543.234 325.832 556.059 276.892 556.001C124.16 556.28 -0.721649 429.848 0.00313903 275.557C0.650821 202.098 30.3469 131.881 82.6041 80.2519C134.861 28.6192 205.431 -0.228358 278.893 0.00893574V0ZM280.172 52.5987C240.462 52.2148 201.356 62.3605 166.837 82.0082C132.324 101.652 103.628 130.092 83.6775 164.431C63.727 198.775 53.2364 237.787 53.2672 277.498C51.8749 400.315 153.794 502.848 276.949 503.126C316.651 503.215 355.671 492.802 390.045 472.937C424.423 453.076 452.933 424.473 472.685 390.033C492.438 355.59 502.727 316.539 502.513 276.837C501.788 153.683 401.708 52.7685 280.162 52.5997L280.172 52.5987Z" fill="#EEF1F6"/>
<path d="M266.275 435.568H245.813C245.46 435.273 245.068 435.032 244.646 434.846C238.564 432.445 233.588 427.881 230.672 422.028C227.755 416.176 227.108 409.455 228.857 403.152C238.142 364.842 247.705 326.59 256.991 288.278C258.282 282.973 259.213 277.585 259.771 272.156C260.155 270.783 259.721 269.313 258.658 268.367C257.592 267.421 256.083 267.165 254.768 267.708C252.561 268.189 250.417 268.918 248.373 269.876C243.703 271.823 239.201 274.103 234.528 275.938C231.142 277.861 226.856 277.008 224.463 273.933V266.428C227.635 261.976 231.227 257.841 235.195 254.087C249.207 242.968 263.607 232.457 278.062 221.892C281.157 219.848 284.481 218.169 287.96 216.889C292.525 214.899 297.598 214.376 302.473 215.388C310.71 216.466 318.049 221.136 322.523 228.14C326.995 235.145 328.143 243.766 325.657 251.694C316.574 288.759 307.495 325.642 298.412 362.338C296.962 368.342 295.883 374.435 295.189 380.574C294.832 381.951 295.329 383.409 296.453 384.278C297.578 385.151 299.114 385.267 300.359 384.577C303.807 383.522 307.03 381.854 310.365 380.516C313.7 379.182 318.537 377.126 322.71 375.734V375.738C325.138 374.838 327.865 375.629 329.439 377.681C331.204 379.694 331.471 382.61 330.106 384.91C329.094 387.055 327.802 389.056 326.271 390.86C322.826 394.649 319.111 398.178 315.147 401.425C299.98 414.328 283.616 425.762 266.276 435.562L266.275 435.568Z" fill="#EEF1F6"/>
<path d="M292.744 198.046C282.404 198.135 272.451 194.101 265.087 186.845C257.722 179.585 253.549 169.692 253.491 159.348C253.433 149.008 257.489 139.068 264.773 131.727C272.052 124.381 281.958 120.239 292.298 120.207C302.641 120.176 312.566 124.264 319.892 131.567C327.215 138.866 331.33 148.783 331.33 159.127C331.404 169.412 327.374 179.305 320.13 186.609C312.889 193.916 303.034 198.031 292.745 198.047L292.744 198.046Z" fill="#EEF1F6"/>
</svg>
