<svg width="21" height="20" viewBox="0 0 21 20" fill="none" xmlns="http://www.w3.org/2000/svg">
<g clip-path="url(#clip0_8232_3812)">
<path d="M10.1816 1.80078C12.8535 1.80078 13.1699 1.8125 14.2207 1.85937C15.1973 1.90234 15.7246 2.06641 16.0762 2.20312C16.541 2.38281 16.8769 2.60156 17.2246 2.94922C17.5762 3.30078 17.791 3.63281 17.9707 4.09765C18.1074 4.44922 18.2715 4.98047 18.3144 5.95312C18.3613 7.00781 18.373 7.32422 18.373 9.99218C18.373 12.6641 18.3613 12.9805 18.3144 14.0312C18.2715 15.0078 18.1074 15.5352 17.9707 15.8867C17.791 16.3516 17.5723 16.6875 17.2246 17.0352C16.873 17.3867 16.541 17.6016 16.0762 17.7812C15.7246 17.918 15.1934 18.082 14.2207 18.125C13.166 18.1719 12.8496 18.1836 10.1816 18.1836C7.50976 18.1836 7.19336 18.1719 6.14257 18.125C5.16601 18.082 4.63867 17.918 4.28711 17.7812C3.82226 17.6016 3.48633 17.3828 3.13867 17.0352C2.78711 16.6836 2.57226 16.3516 2.39258 15.8867C2.25586 15.5352 2.0918 15.0039 2.04883 14.0312C2.00195 12.9766 1.99023 12.6602 1.99023 9.99218C1.99023 7.32031 2.00195 7.0039 2.04883 5.95312C2.0918 4.97656 2.25586 4.44922 2.39258 4.09765C2.57226 3.63281 2.79101 3.29687 3.13867 2.94922C3.49023 2.59766 3.82226 2.38281 4.28711 2.20312C4.63867 2.06641 5.16992 1.90234 6.14257 1.85937C7.19336 1.8125 7.50976 1.80078 10.1816 1.80078ZM10.1816 0C7.46679 0 7.12695 0.0117187 6.06054 0.0585937C4.99804 0.105469 4.26758 0.277344 3.63476 0.523437C2.97461 0.78125 2.41601 1.12109 1.86133 1.67969C1.30273 2.23437 0.96289 2.79297 0.705078 3.44922C0.458984 4.08594 0.287109 4.8125 0.240234 5.875C0.193359 6.94531 0.181641 7.28515 0.181641 10C0.181641 12.7148 0.193359 13.0547 0.240234 14.1211C0.287109 15.1836 0.458984 15.9141 0.705078 16.5469C0.96289 17.207 1.30273 17.7656 1.86133 18.3203C2.41601 18.875 2.97461 19.2187 3.63086 19.4726C4.26758 19.7187 4.99414 19.8906 6.05664 19.9375C7.12304 19.9844 7.46289 19.9961 10.1777 19.9961C12.8926 19.9961 13.2324 19.9844 14.2988 19.9375C15.3613 19.8906 16.0918 19.7187 16.7246 19.4726C17.3808 19.2187 17.9394 18.875 18.4941 18.3203C19.0488 17.7656 19.3926 17.207 19.6465 16.5508C19.8926 15.9141 20.0644 15.1875 20.1113 14.125C20.1582 13.0586 20.1699 12.7187 20.1699 10.0039C20.1699 7.28906 20.1582 6.94922 20.1113 5.88281C20.0644 4.82031 19.8926 4.08984 19.6465 3.45703C19.4004 2.79297 19.0605 2.23437 18.5019 1.67969C17.9473 1.125 17.3887 0.78125 16.7324 0.527344C16.0957 0.28125 15.3691 0.109375 14.3066 0.0625C13.2363 0.0117188 12.8965 0 10.1816 0Z" fill="#EC3397"/>
<path d="M10.1816 4.86328C7.3457 4.86328 5.04492 7.16406 5.04492 10C5.04492 12.8359 7.3457 15.1367 10.1816 15.1367C13.0176 15.1367 15.3184 12.8359 15.3184 10C15.3184 7.16406 13.0176 4.86328 10.1816 4.86328ZM10.1816 13.332C8.3418 13.332 6.84961 11.8398 6.84961 10C6.84961 8.16016 8.3418 6.66797 10.1816 6.66797C12.0215 6.66797 13.5137 8.16016 13.5137 10C13.5137 11.8398 12.0215 13.332 10.1816 13.332Z" fill="#EC3397"/>
<path d="M16.7207 4.66016C16.7207 5.32422 16.1816 5.85938 15.5215 5.85938C14.8574 5.85938 14.3223 5.32032 14.3223 4.66016C14.3223 3.99609 14.8613 3.46094 15.5215 3.46094C16.1816 3.46094 16.7207 4 16.7207 4.66016Z" fill="#EC3397"/>
</g>
<defs>
<clipPath id="clip0_8232_3812">
<rect width="20" height="20" fill="white" transform="translate(0.181641)"/>
</clipPath>
</defs>
</svg>
