<svg width="432" height="422" viewBox="0 0 432 422" fill="none" xmlns="http://www.w3.org/2000/svg">
<path d="M190.661 348.126C191.405 337.415 187.994 328.206 178.274 323.029C167.191 317.122 154.603 314.751 143.612 308.643C132.916 302.706 124.064 292.335 116.545 282.816C109.058 273.329 102.687 263.005 97.5555 252.076C87.5257 230.668 80.1623 204.671 82.4876 180.875C85.0919 154.196 99.2608 129.967 116.623 110.14C152.929 68.7028 220.347 53.0923 270.279 77.8645C282.339 83.8482 293.051 91.7698 303.469 100.234C307.747 103.706 311.933 107.349 315.514 111.55C317.948 114.418 319.684 117.426 321.652 120.619C323.59 123.75 326.086 126.386 327.993 129.61C335.713 142.601 338.472 156.32 340.565 171.125C341.604 178.472 342.363 185.867 342.875 193.261C343.417 201.09 344.409 209.523 343.479 217.32C341.914 230.435 335.356 244.387 329.434 256.029C323.528 267.624 316.366 278.584 308.166 288.676C299.392 299.481 289.408 309.278 278.557 317.991C268.806 325.819 258.451 330.594 260.28 344.949C260.42 346.111 263.923 345.321 263.753 344.018C262.621 335.105 266.434 329.71 273.395 324.641C278.402 320.998 283.239 317.138 287.905 313.076C297.097 305.046 305.577 296.195 313.126 286.614C327.745 268.059 338.813 246.759 345.324 224.048C349.339 210.066 346.781 193.819 345.216 179.511C343.557 164.366 341.759 148.461 334.752 134.741C331.62 128.618 327.729 123.502 324.102 117.782C320.738 112.48 317.017 107.892 312.351 103.66C302.818 94.9942 292.245 87.0106 281.115 80.5308C237.012 54.8285 177.623 60.8433 136.233 89.553C115.088 104.218 97.9431 126.169 87.6032 149.654C76.6278 174.535 77.2014 199.819 84.1618 225.692C91.1687 251.75 104.469 275.856 123.103 295.404C127.753 300.287 132.621 305.263 138.372 308.844C144.635 312.751 151.58 315.216 158.494 317.68C165.144 320.052 172.167 322.331 178.15 326.176C185.715 331.028 187.793 340.127 187.219 348.576C187.095 349.971 190.583 349.289 190.661 348.126Z" fill="#272525"/>
<path d="M187.383 348.607C190.886 353.257 199.195 353.459 204.435 353.97C212.326 354.73 219.86 355.381 227.642 353.629C236.059 351.738 244.616 351.227 253.018 349.273C256.863 348.374 261.529 347.46 263.11 343.476C263.56 342.359 260.087 342.762 259.638 343.91C258.15 347.677 249.654 348.002 246.306 348.824C240.741 350.203 234.897 350.11 229.269 351.413C222.154 353.056 215.876 352.839 208.714 352.25C203.459 351.816 194.157 351.971 190.592 347.258C189.91 346.312 186.546 347.506 187.383 348.607Z" fill="#272525"/>
<path d="M187.03 346.84C182.938 351.816 184.72 362.9 185.309 368.713C186.038 375.906 186.162 385.998 189.976 392.385C193.742 398.663 200.982 401.019 207.663 402.725C215.74 404.786 224.653 406.879 233.025 406.492C239.938 406.166 247.813 404.151 253.766 400.554C260.804 396.291 264.184 391.548 265.951 383.518C267.578 376.154 267.672 368.016 267.082 360.544C266.679 355.35 266.524 347.801 263.424 343.491C262.773 342.577 260.339 343.46 260.076 344.391C260.029 344.561 259.983 344.732 259.936 344.902C260.432 344.546 260.944 344.173 261.44 343.817C261.347 343.848 261.254 343.863 261.161 343.894C259.083 344.437 259.533 346.173 261.626 345.631C262.68 345.352 263.253 345.011 263.563 343.956C262.447 344.251 261.331 344.561 260.215 344.856C262.695 348.313 263.129 354.823 263.47 358.931C263.982 365.318 263.672 371.519 263.284 377.906C262.819 385.502 260.866 392.896 254.479 397.562C246.868 403.128 236.296 405.406 226.994 404.228C220.623 403.422 213.818 402.027 207.663 400.229C201.075 398.307 194.378 395.33 191.991 388.308C189.975 382.355 189.557 375.131 188.921 368.946C188.317 363.148 186.146 351.971 190.285 346.933C191.231 345.739 187.759 345.956 187.03 346.84Z" fill="#272525"/>
<path d="M194.319 397.95C193.079 401.531 194.164 407.593 195.109 411.205C196.024 414.693 197.853 417.095 201.31 418.18C205.852 419.607 211.03 419.545 215.711 419.886C221.168 420.289 226.811 420.692 232.268 420.242C236.872 419.855 241.336 418.382 245.863 417.514C248.901 416.94 252.622 416.491 255.35 414.925C262.869 410.631 262.047 401.469 262.047 394.09C262.047 393.021 258.574 393.672 258.574 395.02C258.574 403.578 259.226 412.662 248.731 415.018C241.91 416.553 234.717 418.429 227.757 418.351C220.858 418.273 213.293 418.335 206.534 416.832C201.31 415.669 199.047 413.53 198.272 408.275C197.791 405.066 196.706 400.632 197.776 397.516C198.194 396.338 194.722 396.772 194.319 397.95Z" fill="#272525"/>
<path d="M210.381 408.693C210.319 408.647 210.257 408.6 210.195 408.554C209.202 409.065 208.195 409.561 207.203 410.073C209.404 411.266 211.745 411.933 214.241 411.607C214.938 411.514 215.961 411.173 216.209 410.429C216.271 410.243 216.333 410.057 216.395 409.887C216.442 409.716 216.395 409.561 216.271 409.422C214.489 407.623 211.512 406.879 209.326 405.608C207.079 404.29 205.094 402.368 202.723 401.361C201.808 401.919 200.878 402.477 199.963 403.035C203.126 404.275 206.087 406.6 209.621 405.81C210.195 405.686 211.218 405.205 211.125 404.477C210.877 402.57 206.443 400.4 205.125 399.64C203.699 398.818 202.18 397.95 200.537 398.818C195.623 401.423 203.11 407.453 205.544 408.988C206.304 409.468 209.342 408.647 208.536 407.468C206.567 404.554 203.513 402.291 200.583 400.4C199.824 399.903 198.413 400.461 197.808 400.958C194.305 403.794 201.948 413.003 205.141 413.499C205.745 413.592 208.381 413.204 207.947 412.088C206.598 408.631 204.49 404.709 200.692 403.639C199.746 403.376 198.305 403.888 197.886 404.802C195.592 409.84 202.986 416.367 207.776 416.506C212.287 416.63 211.621 413.468 209.45 410.817C207.094 407.934 203.591 406.802 201.575 410.739C199.793 414.212 202.056 416.382 205.497 415.157C206.024 414.971 206.552 414.568 206.552 413.979C206.536 411.964 203.42 410.538 202.258 408.91C200.552 406.461 200.413 403.376 198.832 401.082C198.243 400.229 195.018 401.19 195.483 402.229C197.715 407.143 210.939 424.908 216.287 413.654C220.209 405.391 205.032 406.879 201.203 409.732C200.63 410.15 200.831 410.863 201.529 410.956C204.66 411.375 207.714 412.181 210.846 412.6C213.683 412.972 216.504 412.786 219.31 413.53C219.883 412.894 220.472 412.243 221.046 411.607C216.55 411.22 211.047 407.592 207.172 405.36C206.397 404.911 203.389 405.655 204.18 406.879C205.777 409.36 210.474 410.197 213.062 410.522C215.202 410.786 220.643 409.871 222.131 411.142C222.596 410.631 223.046 410.104 223.511 409.592C220.829 410.228 210.613 406.29 208.009 404.182C207.249 404.74 206.49 405.298 205.714 405.841C208.908 405.701 212.349 406.941 215.481 407.53C217.682 407.949 220.875 407.809 222.86 408.926C223.247 408.352 223.619 407.794 224.007 407.22C219.465 408.414 213.667 404.864 209.187 404.259C208.52 404.166 205.141 405.407 206.738 406.042C213.14 408.616 220.689 407.112 227.03 409.515C227.65 409.639 228.27 409.763 228.874 409.887C229.944 411.452 229.696 412.15 228.146 411.995C226.937 412.941 223.139 412.708 221.744 412.832C217.077 413.204 212.706 412.724 208.055 412.305C207.606 412.956 207.156 413.623 206.707 414.274C213.388 414.801 220.395 414.615 226.999 415.374C227.278 414.77 227.557 414.165 227.836 413.561C220.426 415.886 212.287 413.437 204.753 414.15C204.164 414.212 202.211 414.878 202.909 415.793C204.583 418.025 209.388 417.715 211.838 417.793C214.938 417.901 218.07 417.7 221.155 417.514C222.286 417.452 225.511 416.584 226.596 417.095C226.828 416.584 227.061 416.057 227.293 415.545C222.302 417.436 216.101 416.894 211.497 419.824C210.21 420.645 211.187 421.389 212.334 421.296C219.248 420.723 225.728 416.987 232.223 414.801C235.587 413.669 241.586 413.08 243.803 410.104C244.314 409.422 243.353 409.127 242.857 409.081C234.378 408.414 225.805 411.933 217.388 412.646C217.388 413.251 217.388 413.871 217.388 414.475C227.107 412.119 237.091 410.77 246.826 408.461C248.934 407.965 248.454 406.244 246.361 406.724C240.982 407.934 235.726 408.771 230.27 409.468C228.657 409.67 220.906 411.545 219.759 410.507C219.294 411.018 218.845 411.545 218.38 412.057C225.107 410.631 232.378 410.894 239.168 411.452C240.501 411.561 242.857 409.67 240.517 409.484C233.122 408.879 225.216 408.771 217.899 410.321C217.527 410.398 215.791 411.204 216.519 411.871C218.504 413.7 224.673 412.026 226.952 411.747C233.665 410.941 240.206 409.949 246.81 408.461C246.655 407.887 246.5 407.298 246.345 406.724C236.61 409.034 226.642 410.383 216.907 412.739C215.295 413.127 214.83 414.739 216.907 414.568C225.015 413.886 233.355 410.414 241.493 411.065C241.183 410.724 240.873 410.383 240.548 410.042C240.889 409.592 241.509 410.042 240.718 409.918C240.16 409.825 238.997 410.507 238.501 410.693C235.571 411.731 232.626 412.724 229.681 413.762C224.224 415.7 218.628 418.893 212.783 419.389C213.062 419.886 213.341 420.382 213.62 420.862C217.822 418.196 223.945 418.754 228.626 416.971C229.123 416.785 230.301 415.871 229.324 415.421C227.681 414.661 225.898 415.266 224.177 415.436C220.813 415.778 208.52 417.684 206.087 414.444C205.466 414.987 204.846 415.545 204.242 416.088C212.132 415.328 220.503 417.746 228.27 415.312C228.905 415.111 230.781 413.7 229.107 413.499C222.224 412.693 215 412.863 208.04 412.305C206.707 412.197 204.35 414.072 206.691 414.274C213.853 414.909 220.503 415.157 227.65 413.917C230.456 413.437 233.68 413.096 234.874 410.166C234.92 409.995 234.874 409.84 234.75 409.701C232.889 407.344 228.099 407.453 225.418 407.065C220.255 406.321 214.365 406.337 209.481 404.368C208.66 404.957 207.854 405.562 207.032 406.151C212.799 406.941 218.55 410.507 224.456 408.972C225.046 408.817 226.735 407.902 225.604 407.267C223.356 405.98 220.085 406.135 217.589 405.67C214.117 405.019 210.598 403.732 207.048 403.903C206.629 403.918 203.73 404.725 204.753 405.562C207.559 407.825 212.008 408.957 215.326 410.367C218.38 411.669 220.705 412.119 223.945 411.359C224.286 411.282 226.084 410.46 225.325 409.809C220.86 406.027 211.264 411.638 207.358 405.562C206.366 406.073 205.358 406.569 204.366 407.081C209.001 409.747 214.21 413.158 219.651 413.623C220.565 413.7 223.325 412.212 221.387 411.7C217.62 410.693 213.667 410.894 209.823 410.228C208.164 409.949 206.676 409.391 205.187 409.856C203.327 410.429 206.815 410.042 206.986 410.073C208.52 410.321 212.504 410.166 213.45 412.042C212.117 414.816 210.737 415.421 209.311 413.855C208.644 413.421 208.055 412.925 207.513 412.336C204.381 409.422 200.676 405.267 198.909 401.361C197.793 401.748 196.677 402.12 195.561 402.508C196.77 404.275 197.018 407.019 198.149 408.972C199.095 410.615 203.002 413.297 203.017 414.987C203.374 414.599 203.715 414.196 204.071 413.809C206.443 412.972 203.172 410.042 206.164 412.243C207.094 412.925 208.133 414.522 207.637 415.684C208.288 415.297 208.954 414.894 209.605 414.506C205.668 415.002 199.498 408.383 201.296 404.446C200.366 404.833 199.436 405.221 198.491 405.608C201.467 406.445 203.405 410.553 204.397 413.096C205.327 412.631 206.257 412.15 207.203 411.685C205.296 411.39 198.661 403.097 200.521 401.593C199.591 401.779 198.677 401.965 197.746 402.151C200.444 403.887 203.436 406.228 205.234 408.895C206.226 408.383 207.234 407.887 208.226 407.375C207.094 406.662 201.808 401.888 202.847 401.655C203.219 401.578 207.559 405.345 207.575 405.469C208.071 405.019 208.582 404.585 209.078 404.135C207.59 404.476 204.087 401.981 202.661 401.423C201.653 401.035 198.429 402.477 199.901 403.097C201.436 403.748 212.675 410.91 212.675 410.925C213.326 410.538 213.993 410.135 214.644 409.747C212.938 409.84 211.357 409.406 209.885 408.461C209.094 408.027 205.87 409.205 206.893 409.98C206.955 410.026 207.017 410.073 207.079 410.119C208.133 410.801 211.326 409.437 210.381 408.693Z" fill="#272525"/>
<path d="M242.087 412.041C238.041 413.203 233.948 414.009 229.762 414.443C227.499 414.676 225.205 414.474 223.035 415.141C222.368 415.343 220.539 416.707 222.197 416.955C230.972 418.257 241.373 416.815 250.024 415.203C250.69 415.079 253.232 413.699 251.326 413.296C247.264 412.444 242.412 412.506 238.289 412.599C235.653 412.661 233.266 412.723 231.189 414.459C231.034 414.583 230.739 414.955 230.848 415.203C233.979 422.086 256.209 416.738 253.542 411.948C251.93 409.049 241.622 410.273 239.653 410.475C234.832 410.971 226.445 412.273 223.19 416.459C222.818 416.939 223.283 417.358 223.748 417.435C229.328 418.489 235.126 415.87 240.257 413.932C244.582 412.289 251.326 410.63 254.488 406.909C254.876 406.46 254.38 405.995 253.93 405.933C248.566 405.096 242.722 407.002 237.389 407.778C234.103 408.258 229.809 407.747 226.879 409.545C225.577 410.335 226.569 411.141 227.716 411.017C233.033 410.459 238.459 409.545 243.745 408.599C245.683 408.258 249 407.917 249.977 405.871C250.148 405.53 250.163 405.158 249.745 404.987C243.373 402.429 235.064 404.925 228.507 405.251C228.352 405.871 228.212 406.491 228.057 407.111C235.173 405.437 242.49 404.6 249.76 404.026C249.481 403.53 249.202 403.034 248.923 402.553C244.629 405.452 236.676 406.196 233.994 411.11C233.483 412.041 234.754 412.18 235.374 412.103C239.761 411.653 243.962 409.498 247.714 407.281C249.342 406.305 253.713 404.414 253.853 402.119C253.915 401.143 252.457 401.344 251.884 401.468C246.613 402.646 242.412 406.894 237.203 408.134C237.513 408.661 237.824 409.188 238.118 409.715C243.559 407.018 253.372 405.716 257.232 400.538C257.573 400.073 257.154 399.624 256.674 399.562C254.38 399.236 252.488 400.476 251.434 402.538C250.954 403.483 252.178 403.577 252.814 403.53C255.418 403.375 256.751 401.515 257.868 399.298C258.643 397.732 255.232 398.414 254.628 399.22C252.302 402.367 250.814 406.041 248.52 409.235C249.605 409.266 250.675 409.281 251.76 409.312C252.953 407.002 256.131 400.941 258.55 399.732C257.744 399.654 256.937 399.561 256.131 399.484C256.968 404.135 252.194 409.064 249.45 412.382C250.566 412.32 251.682 412.258 252.798 412.196C253.667 408.909 256.24 402.817 259.216 400.74C258.317 400.802 257.418 400.848 256.519 400.91C258.178 403.499 255.062 410.366 253.496 412.444C254.581 412.475 255.651 412.49 256.736 412.521C257.247 411.529 257.744 410.537 258.209 409.514C258.844 408.196 256.534 408.491 255.899 408.77C251 410.893 246.536 414.118 241.234 415.234C241.885 415.374 242.552 415.498 243.203 415.637C242.288 413.436 258.116 406.057 258.395 405.948C257.697 405.623 257.015 405.282 256.317 404.956C254.256 406.816 251.713 408.305 249.31 409.7C247.776 411.219 246.024 411.777 244.04 411.359C245.311 409.901 246.799 408.739 248.489 407.871C250.551 406.677 247.435 406.258 246.334 406.847C243.249 408.46 239.622 410.01 236.258 410.878C232.863 411.762 230.863 412.025 234.94 411.327C240.784 410.32 246.365 407.948 252.318 407.514C252.318 406.909 252.318 406.289 252.318 405.685C246.024 407.204 239.978 408.909 233.483 409.56C231.235 409.793 225.964 410.568 230.491 409.064C232.01 408.553 233.607 408.212 235.173 407.84C240.474 406.615 245.885 405.933 251.202 404.724C250.768 404.259 250.334 403.794 249.884 403.344C246.319 405.251 242.521 405.778 238.599 406.336C235.963 406.708 231.142 408.103 228.646 406.801C228.414 407.312 228.181 407.84 227.949 408.351C231.266 407.049 235.545 407.514 239.064 407.018C243.218 406.429 247.342 405.483 251.574 405.778C251.264 405.437 250.954 405.096 250.628 404.755C248.21 409.328 236.986 411.87 232.506 413.234C230.522 413.839 228.491 414.118 227.081 415.746C226.678 416.195 227.189 416.66 227.639 416.722C233.421 417.668 238.893 415.715 244.598 414.986C244.443 414.428 244.303 413.87 244.148 413.312C237.994 415.668 230.46 416.211 223.934 416.18C223.081 416.18 220.213 417.838 222.197 418.102C226.275 418.675 230.398 418.737 234.475 418.164C234.196 417.668 233.917 417.187 233.638 416.691C231.886 417.59 227.375 417.947 225.406 417.931C224.538 417.931 221.701 419.621 223.67 419.854C230.786 420.737 237.436 419.513 243.993 416.66C247.714 415.048 255.651 411.808 256.488 407.188C256.767 405.607 253.574 406.878 253.14 407.374C252.86 407.685 252.581 407.995 252.318 408.305C251.326 409.421 254.814 409.219 255.558 408.382C255.837 408.072 256.116 407.762 256.379 407.452C255.263 407.514 254.147 407.576 253.031 407.638C252.38 411.265 245.45 414.025 242.645 415.25C237.25 417.59 231.7 418.722 225.825 417.993C225.251 418.629 224.662 419.28 224.089 419.916C227.887 419.947 232.413 419.497 235.824 417.745C237.188 417.048 236.087 416.118 234.987 416.273C231.53 416.753 227.809 416.722 224.352 416.242C223.779 416.877 223.19 417.528 222.616 418.164C230.181 418.21 238.444 417.482 245.543 414.753C247.078 414.164 246.675 412.878 245.094 413.079C241.575 413.529 238.103 414.381 234.599 414.939C228.445 415.916 232.026 415.451 233.328 414.908C234.925 414.242 236.63 413.823 238.258 413.25C243.001 411.575 251.295 409.715 253.884 404.863C254.256 404.15 253.558 403.887 252.938 403.84C248.07 403.499 243.389 404.615 238.599 405.251C234.615 405.778 230.367 405.468 226.585 406.956C226.058 407.173 224.941 408.01 225.887 408.506C229.344 410.32 234.553 408.801 238.133 408.289C243.032 407.592 247.652 406.754 252.054 404.398C253.806 403.468 251.76 402.786 250.737 403.018C247.14 403.84 224.011 405.824 224.631 411.002C224.662 411.281 225.096 411.436 225.298 411.483C234.32 413.219 244.102 409.529 252.783 407.436C254.395 407.049 254.845 405.452 252.783 405.607C247.295 406.01 241.838 407.762 236.506 409.095C233.855 409.746 230.243 410.242 228.569 412.645C228.243 413.11 228.615 413.56 229.127 413.622C235.514 414.366 243.017 410.769 248.489 407.902C247.776 407.561 247.047 407.219 246.334 406.878C244.303 408.057 237.234 412.428 241.249 414.536C243.063 415.498 247.931 412.707 249.31 411.994C252.705 410.227 256.255 408.15 259.108 405.576C260.534 404.274 257.697 404.336 257.03 404.584C254.938 405.375 238.149 412.847 239.73 416.645C240.025 417.358 241.125 417.172 241.699 417.048C247.373 415.854 252.039 412.552 257.263 410.273C256.488 410.025 255.728 409.777 254.953 409.529C254.488 410.537 253.992 411.545 253.481 412.537C252.69 414.102 256.116 413.405 256.72 412.614C258.875 409.762 261.96 403.127 259.728 399.639C259.278 398.926 257.511 399.468 257.03 399.809C253.139 402.522 250.489 408.227 249.295 412.723C248.892 414.226 252.225 413.048 252.643 412.537C255.713 408.832 260.503 403.824 259.573 398.631C259.418 397.763 257.573 398.166 257.154 398.383C253.341 400.29 250.365 405.685 248.504 409.312C247.714 410.847 251.14 410.211 251.744 409.39C254.039 406.196 255.511 402.522 257.852 399.375C256.767 399.344 255.697 399.329 254.612 399.298C254.504 399.53 253.512 401.67 253.279 401.685C253.744 402.011 254.194 402.352 254.659 402.677C256.007 400.073 247.59 404.011 246.985 404.259C243.575 405.685 240.056 406.708 236.738 408.351C234.909 409.25 236.01 410.335 237.653 409.932C242.877 408.677 247.094 404.429 252.333 403.266C251.682 403.049 251.016 402.832 250.365 402.615C250.163 405.902 237.544 410.056 235.839 410.242C236.304 410.568 236.754 410.909 237.219 411.234C239.622 406.847 247.171 406.274 251.062 403.639C252.318 402.786 251.388 402.073 250.225 402.166C242.629 402.77 235.002 403.701 227.577 405.437C226.491 405.685 225.22 407.39 227.127 407.297C230.103 407.157 233.033 406.723 235.994 406.429C238.165 406.227 241.156 405.933 243.42 406.181C244.412 406.289 246.195 405.84 244.52 406.661C243.172 407.328 240.893 407.188 239.374 407.406C235.638 407.917 231.902 408.754 228.15 409.157C228.429 409.653 228.708 410.149 228.987 410.63C230.336 409.808 235.405 409.963 236.862 409.746C240.149 409.266 243.544 408.506 246.861 408.289C248.396 408.181 249.729 407.297 248.07 408.677C247.032 409.545 245.311 409.901 244.071 410.444C239.932 412.227 235.436 414.304 231.003 415.172C227.623 415.839 228.057 415.358 230.941 414.304C233.235 413.467 235.622 412.878 238.056 412.568C238.738 412.475 249.109 411.436 249.791 413.002C250.38 414.366 245.357 415.978 244.489 416.118C242.304 416.583 240.071 416.629 237.824 416.226C237.824 415.684 237.824 415.156 237.839 414.614C239.885 413.746 247.094 414.831 249.171 415.25C249.605 414.614 250.039 413.978 250.473 413.343C242.335 414.862 232.506 416.35 224.29 415.141C224.011 415.746 223.732 416.35 223.453 416.955C226.042 416.164 229.406 416.474 232.088 416.102C235.622 415.622 239.064 414.831 242.49 413.854C244.613 413.188 244.179 411.436 242.087 412.041Z" fill="#272525"/>
<path d="M184.406 358.063C187.197 358.59 190.096 361.272 192.917 362.078C196.529 363.117 200.435 363.535 204.156 363.892C211.984 364.636 219.952 363.675 227.812 363.969C234.478 364.233 241.392 365.302 247.996 364C252.848 363.039 260.041 363.179 264.257 360.342C266.288 358.993 263.172 358.761 262.102 359.319C261.808 359.474 261.498 359.629 261.203 359.784C259.141 360.853 262.211 361.396 263.358 360.807C263.653 360.652 263.963 360.497 264.257 360.342C263.544 360.001 262.815 359.66 262.102 359.319C260.366 360.481 257.622 360.202 255.669 360.512C251.964 361.117 248.368 362.295 244.601 362.574C238.09 363.039 231.47 361.985 224.944 361.97C217.751 361.954 210.481 362.497 203.35 361.628C199.8 361.194 196.002 360.807 192.715 359.319C190.313 358.234 189.134 356.668 186.546 356.187C185.429 355.97 182.453 357.691 184.406 358.063Z" fill="#272525"/>
<path d="M188.335 371.721C201.124 378.355 218.098 376.635 232.066 377.472C239.057 377.89 245.134 377.115 252.001 376.17C256.528 375.55 261.287 375.751 265.473 373.689C266.914 372.992 266.666 371.876 265.023 372.015C264.573 372.046 264.124 372.093 263.674 372.124C263.054 372.17 261.845 372.573 261.706 373.302C261.675 373.441 261.644 373.596 261.613 373.736C261.349 375.053 264.852 374.495 265.085 373.302C265.116 373.162 265.147 373.007 265.178 372.868C264.527 373.255 263.86 373.658 263.209 374.046C263.659 374.015 264.108 373.968 264.558 373.937C264.403 373.379 264.263 372.821 264.108 372.263C260.837 373.86 256.078 373.705 252.482 374.247C246.018 375.209 240.003 375.891 233.43 375.503C219.928 374.712 203.449 376.449 191.125 370.046C190.086 369.519 186.908 370.992 188.335 371.721Z" fill="#272525"/>
<path d="M187.798 386.029C193.844 389.75 200.432 391.625 207.532 392.028C214.911 392.447 222.383 392.819 229.762 393.113C236.661 393.393 243.9 393.191 250.721 392.152C255.046 391.486 260.549 391.47 264.254 388.974C264.952 388.509 265.246 387.781 264.239 387.517C264.115 387.486 263.991 387.455 263.867 387.409C262.766 387.114 259.79 388.773 261.743 389.3C261.867 389.331 261.991 389.362 262.115 389.408C262.115 388.928 262.099 388.432 262.099 387.951C259.263 389.843 253.372 390.06 249.946 390.463C242.846 391.315 235.359 391.501 228.243 390.912C215.407 389.843 201.936 391.362 190.542 384.339C189.597 383.75 186.388 385.161 187.798 386.029Z" fill="#272525"/>
<path d="M331.506 84.5919C331.832 84.8554 349.783 69.617 351.504 68.1753C353.674 66.3461 355.751 64.4083 357.859 62.5171C358.929 61.5559 360.898 58.8741 362.122 58.6105C364.293 58.1455 363.921 59.2616 365.176 61.3234C366.308 63.1836 367.548 64.9044 368.788 66.6871C369.811 68.1443 373.129 71.8803 372.555 73.57C372.788 73.7095 373.036 73.8645 373.268 74.0041C371.951 74.0971 370.649 74.2831 369.362 74.5776C365.378 75.4302 361.456 76.8099 357.534 77.988C348.543 80.6854 339.148 84.9174 329.723 85.46C328.514 85.5375 326.638 87.4133 328.809 87.4133C329.32 87.4133 329.847 87.4133 330.359 87.4133C331.661 87.4133 334.048 85.4445 331.708 85.4445C331.196 85.4445 330.669 85.4445 330.157 85.4445C329.847 86.0956 329.553 86.7467 329.243 87.3978C341.086 86.7002 352.93 81.2435 364.231 77.895C367.347 76.9649 371.238 76.8719 374.198 75.6627C374.772 75.4302 375.439 75.3682 375.811 74.7792C377.485 72.2368 373.377 67.3072 371.997 65.3384C370.277 62.8581 367.889 56.1923 364.928 55.3086C362.262 54.518 359.828 57.6184 358.278 59.0911C348.682 68.1598 337.66 75.5698 328.189 84.7625C327.972 84.9795 327.615 85.4445 327.971 85.7236C328.065 85.8011 328.158 85.8786 328.266 85.9561C329.227 86.7312 332.452 85.367 331.506 84.5919Z" fill="#272525"/>
<path d="M75.4831 111.008C75.5451 112.14 75.4676 111.907 76.2582 112.713C77.2503 112.202 78.258 111.706 79.2501 111.194C74.739 108.295 69.9799 106.016 65.5464 102.854C61.7794 100.157 58.0279 97.3973 54.1834 94.824C50.3854 92.2816 46.3394 90.0648 42.3399 87.8325C40.5881 86.8559 37.9838 86.7164 38.9294 83.957C39.2394 83.0424 42.7119 81.2907 43.4715 80.7636C47.5795 77.8493 52.4627 74.5783 57.2528 72.9351C60.3067 71.8965 60.5702 73.3382 62.3374 76.02C63.8411 78.2988 65.0658 80.8411 66.2129 83.3215C70.414 92.4366 72.4447 102.265 76.6458 111.38C77.1883 112.543 80.2267 111.721 80.1182 110.45C80.1027 110.326 80.1028 110.202 80.0873 110.078C79.9942 108.946 76.5063 109.675 76.6148 111.008C76.6303 111.132 76.6303 111.256 76.6458 111.38C77.8084 111.07 78.9555 110.76 80.1182 110.45C77.3123 104.358 75.6381 98.0639 73.4214 91.7701C71.1116 85.1972 68.0732 79.2289 64.7092 73.1521C63.3451 70.6873 62.663 68.9976 59.5781 69.6022C57.0203 70.0983 54.1989 72.3616 51.9201 73.5242C49.1142 74.9504 46.3239 76.3921 43.673 78.0818C41.3012 79.601 35.0539 82.2828 34.7438 85.3522C34.4648 88.0806 40.4331 90.0338 42.1073 90.995C48.8197 94.824 55.129 99.025 61.3763 103.552C66.2285 107.071 71.4681 109.675 76.4597 112.884C77.2038 113.364 80.4127 112.341 79.4516 111.365C79.2811 110.946 79.0951 110.512 78.9246 110.093C78.8936 108.962 75.4056 109.675 75.4831 111.008Z" fill="#272525"/>
<path d="M58.0503 231.412C43.2304 236.466 27.8989 234.916 12.7224 237.83C10.1801 238.326 3.12669 238.481 1.42147 240.946C0.413841 242.403 1.21996 242.868 1.87104 244.14C3.48325 247.302 5.54504 249.953 6.73869 253.487C7.87034 256.851 8.07185 261.641 12.5829 261.269C16.7685 260.928 21.6516 256.433 24.9225 254.107C31.2163 249.627 37.8977 245.814 44.2535 241.442C47.5709 239.148 50.9194 237.102 54.6709 235.567C56.5311 234.807 58.0658 234.358 59.678 233.118C61.2282 231.924 57.7868 231.862 56.8876 232.544C53.8027 234.9 48.8266 236.032 45.4317 238.171C40.8586 241.055 36.1615 243.891 31.7124 246.93C27.4338 249.86 23.2173 253.007 18.7993 255.704C16.4895 257.115 13.7456 259.517 11.3428 256.495C9.94761 254.743 9.4205 250.247 8.53689 248.108C7.79279 246.31 6.98671 245.178 5.94808 243.612C4.10334 240.838 5.11095 241.334 8.00982 240.683C14.0091 239.334 19.9929 238.481 26.1162 238.032C37.3086 237.21 47.7725 236.776 58.5154 233.118C60.5306 232.466 60.1276 230.715 58.0503 231.412Z" fill="#272525"/>
<path d="M385.703 219.816C384.602 219.816 383.502 219.816 382.417 219.816C381.967 220.467 381.518 221.134 381.068 221.785C392.57 221.614 404.026 220.7 415.482 219.707C418.366 219.459 421.265 219.227 424.133 218.808C426.442 218.467 427.372 217.444 427.621 219.568C427.791 221.01 426.489 224.157 426.055 225.583C425.078 228.807 423.605 231.954 422.179 234.992C421.032 237.442 419.792 239.783 418.056 241.875C416.428 243.829 416.583 244.015 414.723 242.511C411.095 239.566 407.499 236.558 403.623 233.892C400.135 231.504 396.647 228.606 392.803 226.792C389.718 225.335 383.44 223.676 381.595 220.421C380.789 220.901 379.983 221.382 379.177 221.878C379.75 221.847 380.308 221.816 380.882 221.785C382.169 221.723 384.556 219.692 382.231 219.816C381.657 219.847 381.099 219.878 380.525 219.909C380.107 219.925 377.58 220.421 378.107 221.366C381.084 226.621 390.307 228.311 394.927 231.613C398.322 234.047 401.825 236.357 405.22 238.868C407.235 240.356 409.313 241.736 411.126 243.472C411.979 244.294 412.537 245.58 413.622 246.154C417.234 248.092 419.792 244.015 421.575 241.55C426.768 234.295 429.372 225.614 431.93 217.196C431.977 217.026 431.93 216.871 431.806 216.731C430.643 215.63 429.868 215.785 428.303 216.002C423.823 216.623 419.42 217.506 414.847 217.894C404.042 218.824 393.237 219.661 382.386 219.831C381.099 219.847 378.681 221.8 381.037 221.8C382.138 221.8 383.238 221.8 384.323 221.8C385.657 221.785 388.044 219.816 385.703 219.816Z" fill="#272525"/>
<path d="M82.642 333.058C82.735 332.965 82.8435 332.872 82.9365 332.763C82.0064 332.577 81.0763 332.376 80.1462 332.19C71.9456 340.421 64.3186 349.862 57.7613 359.442C56.4591 361.349 53.4827 364.031 55.4515 366.139C56.9552 367.751 60.8927 367.55 62.908 367.736C67.171 368.139 71.4806 369.658 75.7126 369.86C77.3558 369.937 78.627 369.86 79.6656 368.294C80.6732 366.775 80.4252 363.457 80.5648 361.737C80.8128 358.838 80.8592 355.923 81.0763 353.024C81.3243 349.784 81.6033 346.529 81.9754 343.305C82.3164 340.297 82.0685 336.809 83.4791 334.158C82.363 334.22 81.2468 334.282 80.1307 334.344C80.1152 334.469 80.1152 334.593 80.0997 334.717C79.9912 336.112 83.4791 335.445 83.5721 334.282C83.5877 334.158 83.5876 334.034 83.6031 333.91C83.7116 332.469 80.6577 333.306 80.2547 334.096C78.596 337.212 78.813 340.251 78.503 343.754C78.1464 347.986 77.5884 352.203 77.3713 356.45C77.2783 358.14 77.7899 366.635 76.5962 367.55C75.5421 368.356 68.3336 366.139 67.109 365.984C65.2642 365.767 62.7839 366.155 61.0942 365.426C57.9938 364.093 58.7999 362.775 60.4121 360.388C61.6833 358.497 63.001 356.652 64.3651 354.823C70.0234 347.196 76.2707 339.491 82.9675 332.779C84.3937 331.353 80.9988 331.399 80.1772 332.205C80.0842 332.298 79.9757 332.391 79.8827 332.5C78.41 333.91 81.8204 333.864 82.642 333.058Z" fill="#272525"/>
<path d="M352.844 299.93C355.867 305.682 361.913 309.201 367.757 311.603C371.028 312.937 374.438 313.913 377.802 314.983C380.67 315.897 386.189 316.781 388.406 319.122C388.592 318.719 388.762 318.331 388.948 317.928C388.111 318.486 386.483 318.238 385.46 318.703C383.74 319.494 382.654 320.874 381.368 322.253C379.104 324.687 367.385 336.639 364.641 333.849C363.463 332.655 363.757 327.571 363.06 325.819C361.711 322.455 360.161 319.261 359.045 315.789C357.975 312.534 356.72 309.309 356.301 305.899C356.037 303.697 356.456 301.837 355.045 299.961C354.332 299.016 350.984 300.209 351.821 301.326C353.015 302.907 352.689 304.519 352.829 306.302C353.015 308.689 353.619 310.627 354.348 312.89C355.541 316.657 356.72 320.409 358.316 324.036C359.138 325.912 360.114 327.648 360.549 329.679C360.905 331.384 360.208 333.709 360.874 335.244C361.572 336.825 361.618 336.98 363.401 337.027C367.943 337.135 374.531 331.694 377.864 329.136C380.624 327.012 382.422 324.036 385.088 321.866C387.057 320.269 389.119 320.269 391.103 318.967C391.444 318.734 392.064 318.207 391.646 317.773C388.654 314.611 382.034 313.789 377.973 312.503C370.113 310.007 360.44 306.844 356.332 299.031C355.696 297.822 352.332 298.954 352.844 299.93Z" fill="#272525"/>
<path d="M113.409 176.846C115.936 189.201 118.711 201.509 121.873 213.725C123.377 219.538 125.067 225.305 126.617 231.118C127.656 234.994 128.508 240.249 131.237 243.38C131.795 244.016 133.903 243.427 133.81 242.497C133.655 240.962 133.05 239.753 132.213 238.482C131.733 237.737 129.144 238.606 129.733 239.52C130.585 240.807 130.989 241.737 131.144 243.21C131.996 242.915 132.849 242.621 133.717 242.326C130.772 238.947 130.043 233.071 128.896 228.901C127.299 223.026 125.609 217.197 124.106 211.307C121.114 199.649 118.494 187.914 116.076 176.133C115.874 175.218 113.208 175.869 113.409 176.846Z" fill="#272525"/>
<path d="M112.12 161.204C110.554 161.638 109.918 162.739 109.934 164.304C109.965 166.01 110.786 167.11 112.275 167.901C112.957 168.257 114.135 167.87 114.569 167.281C115.577 165.947 116.755 163.514 116.166 161.824C115.329 159.452 111.577 160.739 111.779 163.033C111.856 163.901 114.538 163.328 114.445 162.32C114.429 162.165 114.429 162.01 114.445 161.839C113.918 161.871 113.391 161.902 112.864 161.933C114.739 162.661 112.879 166.211 112.104 167.219C112.864 167.017 113.639 166.8 114.398 166.599C113.468 166.103 112.864 165.498 112.678 164.444C112.616 164.041 112.585 163.638 112.631 163.235C112.647 163.064 112.693 162.909 112.709 162.739C112.755 162.258 113.174 162.32 112.476 162.506C112.864 162.398 113.778 162.041 113.623 161.483C113.484 160.971 112.476 161.111 112.12 161.204Z" fill="#272525"/>
<path d="M144.254 170.969C142.952 173.821 143.96 174.937 144.875 177.697C145.96 180.921 146.378 184.564 147.153 187.882C148.781 194.842 150.068 201.771 150.982 208.871C151.835 215.522 152.61 222.172 153.292 228.838C153.804 233.861 154.455 239.86 157.168 244.231C157.602 244.929 159.602 244.247 159.741 243.549C160.02 242.123 159.974 240.914 159.912 239.441C159.881 238.604 157.199 239.131 157.245 240.154C157.354 241.395 157.307 242.635 157.075 243.875C157.927 243.642 158.78 243.41 159.648 243.193C156.873 238.728 156.377 232.372 155.881 227.288C155.261 220.885 154.47 214.53 153.664 208.158C152.874 201.942 151.897 195.803 150.44 189.695C149.696 186.595 148.983 183.479 148.301 180.363C147.556 177.03 145.386 173.992 146.936 170.612C147.277 169.837 144.642 170.101 144.254 170.969Z" fill="#272525"/>
<path d="M145.057 169.93C150.405 169.883 155.723 169.542 160.838 171.433C164.807 172.891 168.651 175.092 171.798 177.944C177.487 183.107 180.758 193.245 181.471 200.779C182.386 210.406 179.053 219.877 173.379 227.582C170.915 230.93 168.481 235.224 165.272 237.922C162.605 240.169 159.179 240.247 156.591 242.572C157.397 242.588 158.187 242.603 158.993 242.619C159.024 242.433 159.071 242.262 159.102 242.076C159.304 241.069 156.622 241.503 156.436 242.417C156.405 242.603 156.358 242.774 156.327 242.96C156.11 244.045 158.389 243.316 158.73 243.006C160.652 241.286 162.962 241.301 165.055 240.154C166.403 239.41 167.52 238.294 168.574 237.177C171.752 233.767 174.697 229.582 177.27 225.691C182.572 217.645 185.347 208.003 183.952 198.391C182.743 189.927 179.053 180.301 172.046 175.092C164.001 169.108 155.831 168.364 146.127 168.442C145.104 168.426 143.274 169.945 145.057 169.93Z" fill="#272525"/>
<path d="M219.185 174.102C213.03 173.574 206.969 173.559 200.799 173.233C198.706 173.125 195.017 172.334 193.436 174.458C192.583 175.621 192.924 177.155 192.955 178.489C193.048 182.023 192.831 185.573 193.033 189.107C193.436 195.882 193.792 202.563 193.885 209.353C193.978 216.313 193.002 223.227 192.955 230.203C192.94 233.211 191.963 238.528 193.994 241.21C196.474 244.465 202.536 243.008 205.961 243.008C209.093 243.008 212.255 243.194 215.387 243.147C217.727 243.116 219.882 242.264 222.192 242.202C223.184 242.171 225.013 240.636 223.231 240.698C221.448 240.745 219.898 241.163 218.115 241.411C215.588 241.752 213.061 241.52 210.519 241.52C206.69 241.504 197.079 243.008 195.808 238.605C194.769 235.055 195.591 229.304 195.668 225.785C195.777 220.98 196.536 216.22 196.567 211.415C196.66 200.811 195.622 190.332 195.622 179.744C195.622 177.651 195.095 175.094 197.823 174.582C199.389 174.288 201.667 174.815 203.28 174.815C208.302 174.815 213.139 175.202 218.13 175.621C219.169 175.698 220.967 174.257 219.185 174.102Z" fill="#272525"/>
<path d="M192.966 208.097C196.501 208.407 200.004 209.43 203.585 209.709C207.337 210.004 211.119 209.756 214.886 209.725C215.878 209.709 217.708 208.206 215.925 208.221C211.956 208.252 207.988 208.5 204.035 208.128C200.64 207.818 197.353 206.888 194.005 206.593C192.982 206.485 191.184 207.927 192.966 208.097Z" fill="#272525"/>
<path d="M236.903 230.854C236.329 231.598 236.329 231.629 235.941 232.482C236.825 232.373 237.724 232.265 238.608 232.141C239.398 220.545 238.67 208.671 238.67 197.044C238.67 190.208 238.422 183.356 238.67 176.535C238.778 173.683 238.995 170.846 239.429 168.025C239.538 167.327 239.708 164.924 240.127 164.196C240.778 163.08 239.755 163.359 240.825 164.134C242.669 165.482 244.142 168.939 245.336 170.861C247.18 173.822 248.917 176.83 250.591 179.884C253.35 184.906 255.939 190.037 258.543 195.138C261.225 200.393 263.923 205.648 266.418 211.012C268.558 215.6 270.294 220.452 273.162 224.653C273.983 224.312 274.805 223.956 275.642 223.615C275.471 223.429 275.301 223.227 275.131 223.041C274.526 222.359 271.968 223.32 272.65 224.08C272.821 224.266 272.991 224.467 273.162 224.653C273.735 225.305 276.262 224.514 275.642 223.615C271.782 217.957 269.519 211.058 266.527 204.919C263.489 198.703 260.311 192.564 257.117 186.426C254.327 181.046 251.443 175.698 248.25 170.52C246.715 168.04 243.863 160.987 240.22 161.405C237.166 161.762 237.12 166.118 236.779 168.35C235.833 174.628 235.91 181 235.988 187.325C236.065 194.332 236.034 201.338 236.034 208.345C236.034 216.344 236.515 224.498 235.972 232.466C235.895 233.676 238.313 232.823 238.639 232.125C238.902 231.707 239.166 231.304 239.414 230.885C240.111 229.971 237.445 230.172 236.903 230.854Z" fill="#272525"/>
<path d="M235.996 204.841C240.987 204.779 245.901 204.252 250.815 203.322C252.645 202.981 254.458 202.609 256.272 202.206C258.349 201.741 261.589 200.051 263.605 199.973C264.597 199.927 266.426 198.392 264.643 198.47C261.155 198.609 257.946 200.454 254.52 201.182C248.723 202.407 242.971 203.275 237.034 203.337C236.042 203.353 234.213 204.872 235.996 204.841Z" fill="#272525"/>
<path d="M312.342 170.458C307.258 162.335 299.181 157.777 290.453 158.614C283.291 159.296 275.075 164.272 274.951 173.589C274.765 186.456 286.733 191.742 295.089 196.036C302.545 199.881 309.97 204.996 310.87 215.321C312.032 228.699 301.413 239.101 289.926 234.481C288.872 234.062 286.454 235.21 288.361 235.969C303.553 242.077 321.287 225.133 311.49 206.81C306.095 196.718 294.995 194.935 286.903 189.06C280.114 184.13 274.657 174.457 280.687 166.04C288.655 154.94 303.134 160.97 309.35 170.892C309.955 171.884 312.931 171.419 312.342 170.458Z" fill="#272525"/>
<path d="M199.208 41.3729C196.712 39.7141 195.534 33.5598 194.356 30.9555C192.604 27.111 190.574 23.4215 188.481 19.7631C186.543 16.3836 184.528 13.0507 182.667 9.64026C180.513 5.70275 183.753 6.55537 186.713 5.78027C188.868 5.2222 194.681 1.73424 196.278 2.43183C198.216 3.29995 197.968 9.33024 198.03 10.9269C198.402 21.4218 196.914 31.7771 196.681 42.241C197.844 42.0084 198.991 41.7914 200.154 41.5589C200.154 41.4349 200.154 41.2953 200.154 41.1713C200.154 40.1017 196.681 40.7528 196.681 42.1015C196.681 42.2255 196.681 42.365 196.681 42.489C196.681 43.5431 200.138 42.8921 200.154 41.8069C200.433 29.5293 203.037 16.7402 201.053 4.49363C200.712 2.35435 200.557 0.49407 198.309 0.0445123C197.069 -0.20352 195.968 0.649098 194.899 1.02115C191.24 2.27681 187.752 3.82704 183.908 4.49363C182.094 4.80367 178.73 4.72613 177.986 6.98943C177.226 9.29922 180.885 13.5933 181.815 15.221C185.473 21.5613 189.38 27.8551 192.093 34.676C193.271 37.6214 193.658 41.2023 196.449 43.0626C197.379 43.6827 200.588 42.2875 199.208 41.3729Z" fill="#272525"/>
</svg>
