<svg width="128" height="178" viewBox="0 0 128 178" fill="none" xmlns="http://www.w3.org/2000/svg">
<path d="M48.4985 81.3139C47.6033 78.7852 49.6451 75.432 50.4775 73.0605C51.5769 69.9193 52.857 66.8645 54.247 63.8411C57.0897 57.6451 60.1837 51.4963 63.9375 45.795C71.1936 34.7774 80.2637 25.6365 89.6401 16.4722C93.865 12.3415 98.1292 8.14803 102.645 4.33935C103.336 3.75824 105.283 1.96776 105.747 1.98347C107.089 2.00703 106.681 2.10126 106.948 3.25564C107.176 4.22155 106.972 5.61938 107.003 6.59314C107.129 9.91494 107.364 13.2367 107.451 16.5585C107.796 30.2384 106.257 43.8946 104.105 57.3938C102.998 64.3672 101.577 70.9794 99.8411 77.8272C98.0585 84.8634 97.2182 92.1038 95.5141 99.1793C95.3178 99.996 97.5638 99.6662 97.7523 98.8966C99.4564 91.8211 100.297 84.5807 102.079 77.5445C103.878 70.4611 105.307 63.5898 106.461 56.373C108.825 41.5702 110.223 26.6417 109.532 11.6426C109.453 9.99346 109.335 8.34435 109.265 6.69524C109.202 5.14821 109.579 3.10643 109.178 1.58296C108.864 0.389315 108.542 -0.0504331 107.215 0.00453753C105.503 0.075214 103.744 1.70076 102.48 2.66667C99.5819 4.8655 96.9905 7.48838 94.3205 9.9542C83.9075 19.5583 73.8087 29.3117 65.3667 40.7377C60.4744 47.3578 56.54 54.5118 53.0297 61.9407C51.3649 65.4588 49.7865 69.024 48.4751 72.6992C47.517 75.3928 45.2632 79.0758 46.2683 81.9186C46.5353 82.6882 48.7577 82.0521 48.4985 81.3139Z" fill="#272525"/>
<path d="M45.9684 82.6647C51.9759 83.984 57.1196 86.8896 62.758 89.3162C68.4121 91.7506 74.0663 94.1771 79.6969 96.6587C83.906 98.5198 88.9555 102.635 93.6986 102.745C96.1566 102.808 96.5492 101.512 97.0204 99.3208C97.201 98.4884 94.9551 98.8339 94.7823 99.6035C94.2248 102.164 93.2667 101.386 90.8716 100.287C88.8927 99.3836 87.0393 98.1743 85.0683 97.2241C80.7177 95.1274 76.2258 93.329 71.7968 91.4051C63.7632 87.9184 55.8474 83.3165 47.3191 81.4475C46.6202 81.2983 44.7041 82.3899 45.9684 82.6647Z" fill="#272525"/>
<path d="M72.0074 31.3849C71.9367 31.542 71.8739 31.6991 71.8032 31.8483C72.4001 31.597 73.0048 31.3535 73.6016 31.1022C68.2851 30.5132 62.9373 29.5473 57.613 30.9295C52.7285 32.1938 48.37 34.903 44.8597 38.4918C40.6349 42.8188 37.2895 48.2059 34.1719 53.3575C31.1799 58.3205 27.0493 64.2102 26.7117 70.1628C26.7038 70.3512 26.7588 70.4847 26.9394 70.5632C29.9235 71.8982 33.1903 71.215 36.355 71.1601C38.0434 71.1287 39.7318 71.113 41.4202 70.9952C44.043 70.8067 46.6974 69.7858 49.3045 69.7701C50.1448 69.7623 51.6761 68.4901 50.1762 68.5058C46.7916 68.5293 43.6191 69.7073 40.2266 69.8487C37.6901 69.9507 34.8394 70.3198 32.3108 70.1392C29.3816 69.9272 28.7848 68.8749 29.5544 66.3384C30.1434 64.3909 31.1642 62.6082 32.1223 60.8256C33.6772 57.9357 35.24 55.0537 36.9676 52.258C40.3915 46.7296 44.0588 40.7142 49.1632 36.5679C56.1838 30.8666 63.809 31.4007 72.2352 32.3273C72.8713 32.398 73.7507 32.2331 74.0334 31.5813C74.1041 31.4242 74.167 31.2671 74.2376 31.1179C74.5439 30.419 72.3294 30.6546 72.0074 31.3849Z" fill="#272525"/>
<path d="M107.089 43.8083C113.332 49.0933 119.473 55.5092 122.756 63.0873C126.078 70.7596 125.057 79.1465 124.114 87.2351C123.667 91.1144 122.866 94.6953 121.837 98.4648C121.625 99.2343 121.444 102.203 120.879 102.886C119.277 104.81 116.96 101.944 115.83 101.025C109.767 96.1167 104.089 90.8396 99.896 84.2117C99.5033 83.5913 97.328 84.3059 97.8228 85.0834C100.422 89.1826 103.548 92.8185 107.081 96.1403C110.215 99.0851 113.694 102.603 117.322 104.92C123.321 108.744 124.091 98.292 125.01 94.9152C126.266 90.2663 126.879 85.1933 127.161 80.3873C127.428 75.8404 127.727 70.5083 126.415 66.1264C123.635 56.8128 116.426 49.0776 109.178 42.9445C108.566 42.4262 106.477 43.29 107.089 43.8083Z" fill="#272525"/>
<path d="M95.7412 34.1177C92.4116 30.4268 85.5717 32.0288 82.0221 34.6282C76.58 38.6096 78.4805 46.0149 83.5064 49.3838C88.1239 52.4779 94.2727 53.3417 96.9191 47.3264C98.1521 44.5307 98.4504 41.3267 97.6887 38.3819C97.2254 36.5992 96.5815 33.411 94.7047 32.5471C94.045 32.2409 92.0032 33.2068 92.922 33.6308C94.9873 34.581 95.9925 40.3844 95.8983 42.324C95.8119 43.9967 95.4192 45.795 94.7596 47.3342C94.579 47.8839 94.3119 48.3944 93.9586 48.8577C92.3094 49.3289 90.6604 49.8 89.0113 50.2712C88.2731 50.1848 87.2207 49.4074 86.5846 49.0619C83.2471 47.2164 80.3416 43.7297 80.962 39.6697C81.7394 34.5967 89.8358 30.7488 93.668 34.9972C94.1863 35.5705 96.3145 34.7617 95.7412 34.1177Z" fill="#272525"/>
<path d="M86.4258 63.0714C84.8081 59.4276 77.3322 59.2784 74.1831 60.5977C71.6152 61.6736 68.9923 64.0609 67.9557 66.668C66.55 70.2097 69.3457 73.5237 71.7958 75.9031C75.6987 79.6961 82.5307 82.4525 86.575 77.3716C88.7503 74.6309 89.0409 71.4662 88.0985 68.2857C87.4153 65.9691 87.0855 62.8829 84.5804 61.8149C83.9129 61.5322 81.879 62.506 82.8056 62.8986C85.0751 63.8646 86.7557 69.9192 86.5515 72.1887C86.4887 72.919 86.1667 73.7828 85.9311 74.4739C85.083 76.924 84.9259 76.9161 82.091 77.7407C79.3582 78.5338 79.209 78.581 77.1201 77.3559C75.9657 76.6806 74.8506 75.9581 73.8769 75.0236C72.6125 73.8064 71.5445 72.33 70.6414 70.8223C68.9216 67.9559 70.3587 65.1838 72.7068 63.1107C74.8977 61.171 82.4994 59.8281 84.1956 63.6682C84.5333 64.4457 86.7242 63.7546 86.4258 63.0714Z" fill="#272525"/>
<path d="M57.5275 86.756C55.5564 89.905 53.3733 92.7871 50.9468 95.5984C49.8473 96.8706 45.9524 100.883 46.5021 102.862C46.9732 104.551 50.5778 104.802 51.9128 105.218C56.4518 106.64 60.9279 108.218 65.4512 109.687C68.985 110.833 72.3775 112.27 75.8721 113.464C77.0343 113.856 78.4007 114.477 79.5001 113.644C81.2042 112.349 80.9843 108.218 81.1963 106.412C81.6047 102.933 82.3586 99.4778 81.9503 95.9675C81.8639 95.2058 79.8142 95.779 79.7121 96.4073C79.7042 96.4779 79.6886 96.5408 79.6807 96.6114C79.5472 97.4753 81.7932 97.0905 81.9188 96.3287C81.9267 96.2581 81.9424 96.1952 81.9503 96.1246C81.2042 96.2738 80.4581 96.4151 79.7121 96.5643C80.089 99.7605 79.4372 102.855 79.0367 106.011C78.864 107.378 78.7855 108.752 78.5734 110.111C78.5734 110.111 77.4897 113.597 78.7619 112.616C78.1258 113.11 72.3696 110.283 71.2623 109.914C68.1368 108.886 64.9957 107.912 61.8859 106.844C59.1531 105.909 56.4125 104.998 53.6718 104.095C52.7766 103.805 50.986 103.506 50.1772 102.949C49.439 103.067 49.1485 102.745 49.3134 101.983C49.0464 101.355 49.172 100.813 49.6824 100.342C50.6405 97.8365 52.9886 95.8026 54.6613 93.7922C56.4989 91.5934 58.1008 89.2297 59.6164 86.8031C60.1504 85.9314 57.9123 86.1356 57.5275 86.756Z" fill="#272525"/>
<path d="M57.7149 111.611C51.5033 109.106 43.9802 117.728 41.7657 122.597C41.5458 123.076 42.5509 123.092 42.7316 123.076C43.721 122.982 44.0744 122.785 45.0246 122.479C44.7027 122.581 49.0453 121.168 49.3359 121.419C50.5531 122.44 47.6632 129.476 47.4276 130.921C46.9643 133.74 47.4119 136.285 47.836 139.08C48.0637 140.572 48.0951 145.096 49.3438 146.211C51.4876 148.119 54.3146 143.541 55.1863 142.559C57.2281 140.266 59.4662 137.887 61.3116 135.452C62.9765 133.253 63.7853 130.78 64.9318 128.322C64.2643 128.549 63.5968 128.777 62.9214 129.005C65.8741 130.081 64.7747 134.549 67.1385 135.758C67.641 136.018 68.5441 135.774 68.9211 135.405C70.6644 133.685 70.8372 130.151 70.6016 127.866C70.1383 123.288 68.0259 118.278 64.4999 115.262C62.8743 113.872 59.6075 111.022 57.3223 111.595C54.7387 112.247 53.4508 116.668 53.2309 118.867C53.1838 119.354 53.8591 119.401 54.1968 119.346C56.1601 119.024 57.7307 118.144 59.4741 117.155C58.8694 117.092 58.2647 117.029 57.66 116.966C57.6129 121.128 53.1602 124.419 52.7205 128.73C52.6969 128.942 52.7833 129.021 52.9482 129.131C57.9977 132.562 67.0679 117.194 61.83 113.864C61.2174 113.472 59.1521 114.375 60.0473 114.948C64.0366 117.477 56.5449 128.856 55.0136 127.788C54.2283 127.238 59.8666 118.521 59.8823 116.684C59.8902 115.851 58.4689 116.267 58.0684 116.495C57.7464 116.676 55.2413 117.979 54.4795 118.113C54.8015 118.27 55.1235 118.435 55.4455 118.592C55.634 116.652 56.4821 113.456 58.2883 112.443C57.7621 112.514 57.236 112.584 56.702 112.655C61.2096 114.681 64.9476 117.775 66.7302 122.463C67.9003 125.526 69.9813 132.217 67.0992 135.052C67.6961 134.934 68.2929 134.816 68.8819 134.698C68.0259 134.258 67.4683 131.479 67.0442 130.63C66.4317 129.405 66.0234 128.439 64.6649 127.945C63.9974 127.701 62.9764 127.945 62.6545 128.628C61.021 132.138 59.5683 134.785 57.0789 137.706C54.9586 140.203 52.8932 143.918 50.1683 145.692C50.6944 145.622 51.2206 145.551 51.7546 145.48C50.6552 145.009 50.4353 141.35 50.2625 140.368C49.7835 137.698 49.1788 134.62 49.4223 131.918C49.7521 128.314 52.4535 124.081 51.7782 120.539C51.7389 120.351 51.4954 120.28 51.3462 120.233C48.5584 119.377 45.7078 121.631 42.9985 121.882C43.3205 122.039 43.6425 122.204 43.9645 122.361C45.433 119.134 51.6761 111.029 55.9009 112.734C56.6077 112.961 58.6416 111.988 57.7149 111.611Z" fill="#272525"/>
<path d="M83.1018 33.662C81.6647 35.0048 82.026 37.7219 82.0181 39.5124C82.0103 41.6563 81.4448 45.1665 82.6856 47.0512C82.9604 47.4674 84.4054 46.9805 84.0677 46.4701C83.0861 44.978 83.5416 42.1432 83.518 40.4705C83.4945 38.9392 82.9605 35.154 84.2876 33.9133C84.9237 33.3164 83.4631 33.3243 83.1018 33.662Z" fill="#272525"/>
<path d="M87.5247 33.8032C87.5404 33.7325 87.556 33.6619 87.5796 33.5833C87.7131 33.0336 86.2132 33.2614 86.0875 33.7718C84.831 38.8605 83.9201 44.5618 84.8389 49.7997C84.9253 50.2944 85.9776 49.9096 86.1817 49.7211C86.5744 49.3678 86.5901 49.3442 86.7158 48.8259C86.8493 48.2762 85.3494 48.5039 85.2237 49.0144C85.1452 49.1714 85.0667 49.3206 84.9803 49.4777C85.4279 49.4541 85.8755 49.4227 86.3231 49.3992C85.4122 44.2162 86.331 38.6249 87.5717 33.5833C87.077 33.6462 86.5823 33.709 86.0797 33.7718C86.064 33.8425 86.0483 33.9132 86.0247 33.9917C85.9069 34.5414 87.4069 34.3137 87.5247 33.8032Z" fill="#272525"/>
<path d="M89.6926 33.0102C87.855 38.0361 86.4572 44.4598 87.2582 49.8233C87.3367 50.3338 88.6873 49.949 88.7502 49.5328C88.758 49.4699 88.7738 49.3993 88.7816 49.3364C88.868 48.7553 87.3681 49.0145 87.2895 49.5249C87.2817 49.5877 87.266 49.6584 87.2582 49.7212C87.7529 49.627 88.2476 49.5249 88.7502 49.4307C87.957 44.1299 89.3706 37.7848 91.1847 32.8296C91.3574 32.327 89.8732 32.5076 89.6926 33.0102Z" fill="#272525"/>
<path d="M92.4699 33.0496C91.7238 36.7561 91.072 40.4863 90.6951 44.2479C90.5066 46.1326 89.5565 49.1324 90.0748 50.915C90.224 51.4333 91.7161 51.0328 91.5669 50.5145C91.2684 49.4779 91.8417 47.8367 91.9516 46.7765C92.0773 45.4808 92.1715 44.1772 92.3128 42.8814C92.6898 39.5204 93.2944 36.1829 93.9619 32.8689C94.0719 32.3035 92.572 32.547 92.4699 33.0496Z" fill="#272525"/>
<path d="M94.1089 35.3111C93.5356 37.7926 93.1272 40.3056 92.8602 42.8421C92.5854 45.4493 92.7817 48.0407 92.3027 50.6322C92.1927 51.2055 93.677 50.9385 93.7948 50.4437C93.8105 50.373 93.8261 50.3024 93.8418 50.2317C93.9753 49.682 92.4755 49.9097 92.3499 50.4202C92.3341 50.4908 92.3184 50.5615 92.3027 50.6322C92.7974 50.5694 93.2922 50.5065 93.7948 50.4437C94.2816 47.8287 94.0696 45.2686 94.3523 42.6536C94.6271 40.125 95.0277 37.6042 95.601 35.1226C95.7266 34.5729 94.2267 34.8007 94.1089 35.3111Z" fill="#272525"/>
<path d="M71.6943 63.5584C71.71 63.4878 71.7258 63.4171 71.7494 63.3464C71.2546 63.4092 70.7599 63.4721 70.2573 63.5349C69.6055 66.3619 70.3201 69.2047 70.1238 72.0632C70.1159 72.1888 70.1552 72.2752 70.273 72.3302C70.3515 72.3694 70.43 72.4009 70.5085 72.4401C70.9483 72.6443 72.3069 72.0082 71.6943 71.7176C71.5137 71.6313 71.5609 68.4037 71.5452 68.1053C71.4352 66.4954 71.3803 64.9249 71.7494 63.3464C71.875 62.7967 70.3829 63.0323 70.2573 63.5349C70.2416 63.6056 70.2258 63.6762 70.2023 63.7469C70.0688 64.2966 71.5687 64.0689 71.6943 63.5584Z" fill="#272525"/>
<path d="M73.8524 61.8856C72.5174 63.2834 72.6353 65.2388 72.4311 67.0528C72.1091 69.9741 71.4102 72.7619 72.0384 75.6832C72.1484 76.1937 73.4598 75.8089 73.5304 75.3927C73.5383 75.3299 73.554 75.2592 73.5619 75.1964C73.6561 74.6231 72.1562 74.8744 72.0698 75.3848C72.0619 75.4476 72.0463 75.5183 72.0384 75.5811C72.5332 75.4869 73.0278 75.3848 73.5304 75.2906C72.9807 72.7305 73.4755 70.3118 73.8054 67.7675C74.0331 66.0555 73.7582 63.4798 75.0461 62.1369C75.6429 61.5008 74.1901 61.5244 73.8524 61.8856Z" fill="#272525"/>
<path d="M75.3849 61.6814C75.4163 64.4378 75.275 67.1942 75.4635 69.9427C75.6441 72.542 75.1414 75.3062 75.7854 77.8427C75.9189 78.361 77.0498 77.9527 77.2225 77.6621C77.2618 77.5993 77.3011 77.5365 77.3403 77.4658C77.6937 76.869 76.2016 77.0103 75.9504 77.4344C75.9111 77.4972 75.8718 77.56 75.8325 77.6307C76.3116 77.5679 76.7906 77.5051 77.2696 77.4501C76.6492 75.0235 77.1283 72.0865 76.9477 69.55C76.7514 66.8015 76.8926 64.0451 76.8691 61.2887C76.8691 60.8175 75.377 61.1003 75.3849 61.6814Z" fill="#272525"/>
<path d="M78.7531 61.7598C77.7636 67.1548 77.7872 73.7356 78.6589 79.1462C78.7453 79.6724 80.0646 79.2562 80.151 78.8557C80.1824 78.6908 80.2216 78.518 80.253 78.3531C80.3708 77.7955 78.8709 78.0311 78.761 78.5415C78.7296 78.7065 78.6903 78.8792 78.6589 79.0441C79.1536 78.9499 79.6484 78.8478 80.151 78.7536C79.2871 73.3665 79.2479 66.982 80.2452 61.5792C80.3473 61.0059 78.8473 61.2494 78.7531 61.7598Z" fill="#272525"/>
<path d="M82.0429 60.9983C81.9408 66.8173 81.0219 72.4636 81.3989 78.2905C81.4224 78.369 81.4775 78.4161 81.5481 78.4475C81.6267 78.4868 81.6973 78.5182 81.7758 78.5575C82.2156 78.7617 83.5741 78.1334 82.9616 77.835C81.87 77.3167 82.8124 70.3983 82.8831 69.5187C83.1265 66.6053 83.4799 63.7311 83.5349 60.802C83.5427 60.1973 82.0507 60.5036 82.0429 60.9983Z" fill="#272525"/>
<path d="M84.8551 63.5349C84.6117 67.7834 84.9257 72.236 84.2425 76.4373C84.1483 77.0106 85.6482 76.7593 85.7346 76.2488C86.41 72.0554 86.0959 67.5949 86.3472 63.3465C86.3786 62.7418 84.8865 63.0323 84.8551 63.5349Z" fill="#272525"/>
<path d="M92.3939 11.7841C94.7498 14.2814 97.2313 16.5273 100.373 17.9565C102.689 19.0167 105.398 19.1973 107.566 20.4538C107.911 20.658 108.477 20.4302 108.759 20.2182C108.869 20.1318 108.971 20.0533 109.081 19.9669C109.749 19.4486 108.265 19.425 107.888 19.7235C107.778 19.8098 107.676 19.8884 107.566 19.9748C107.966 19.8962 108.359 19.8177 108.759 19.7392C106.702 18.5455 104.228 18.3963 102.022 17.4382C98.7626 16.0326 96.2104 13.7631 93.7917 11.203C93.4227 10.8261 92.0091 11.3679 92.3939 11.7841Z" fill="#272525"/>
<path d="M99.5007 7.82586C98.1735 8.31274 97.5767 9.11374 96.7443 10.2524C97.2076 10.2603 97.671 10.276 98.1343 10.2838C98.7939 9.1216 99.5399 7.99863 100.372 6.94633C100.804 6.39663 99.3279 6.57725 99.0845 6.80499C97.773 8.03005 96.4223 9.16871 95.2444 10.5194C95.7077 10.5273 96.171 10.543 96.6344 10.5508C97.2469 9.67915 98.0243 8.9724 98.9667 8.42269C98.5662 8.38343 98.1657 8.33631 97.7574 8.29704C97.7809 9.05092 97.5532 9.72628 97.0584 10.3388C96.6658 11.022 98.1343 10.6372 98.3463 10.4802C99.4222 9.66345 100.082 8.40698 101.126 7.62954C100.679 7.62168 100.231 7.61382 99.7834 7.59812C99.3201 9.03521 98.4249 10.3938 97.6631 11.6895C97.2783 12.3413 98.786 12.0272 99.053 11.7209C100.592 9.93829 101.605 7.77089 103.121 6.03539C102.642 6.05895 102.163 6.09037 101.684 6.11392C101.668 7.7866 100.757 8.93312 100.09 10.4016C99.4379 11.8152 99.1395 13.3622 98.15 14.5951C98.6133 14.6029 99.0766 14.6187 99.5399 14.6265C100.561 12.734 101.621 10.8728 102.642 8.96455C103.396 7.55102 104.142 5.21869 105.17 4.02504C104.691 4.0486 104.212 4.08001 103.733 4.10357C103.286 8.13213 100.796 11.4932 99.5949 15.2783C99.5635 15.3882 99.6498 15.506 99.7441 15.5453C103.058 16.8489 105.296 6.59295 106.427 5.2501C105.948 5.27365 105.469 5.30507 104.99 5.32863C104.982 8.93313 101.825 11.9329 101.432 15.506C101.362 16.15 102.681 15.7181 102.87 15.4275C104.762 12.5298 105.249 9.01952 106.945 6.01969C106.466 6.04325 105.987 6.07464 105.508 6.0982C104.982 8.20279 104.236 10.2289 103.694 12.3099C104.189 12.2471 104.684 12.1842 105.186 12.1214C105.524 10.6922 108.005 5.25009 104.715 5.682C103.466 5.84691 102.493 7.19763 101.723 8.03004C100.082 9.82051 99.0374 11.9408 97.561 13.8412C98.0244 13.8491 98.4876 13.8648 98.9509 13.8726C99.8383 12.5612 100.828 10.8178 99.7284 9.33361C99.1865 8.59543 98.2599 8.14783 97.3961 8.68183C93.8308 10.9042 101.629 16.1421 102.87 17.1316C103.301 16.9117 103.726 16.6997 104.157 16.4798C101.817 14.9092 99.4928 11.9486 96.6422 11.2968C96.3281 11.2262 95.4957 11.3675 95.4407 11.7916C95.1894 13.7391 98.9196 15.8044 100.388 14.1553C102.014 12.3256 97.5374 10.5901 96.2338 10.5116C95.9119 10.4958 95.4328 10.6372 95.2522 10.9199C93.5246 13.5428 98.0008 14.9328 99.9012 15.1526C100.239 15.1919 101.032 15.1055 101.103 14.6579C101.613 11.5168 91.5771 11.2969 97.6395 16.6369C98.739 17.6028 100.922 19.0006 102.116 17.4143C103.411 15.6866 100.105 10.9356 98.4484 10.4409C96.4381 9.84406 96.1082 11.556 96.7129 13.0952C97.5845 15.3097 100.796 18.8121 103.521 18.2467C107.793 17.3593 104.346 9.74198 102.32 13.3543C101.456 14.9014 102.43 17.909 104.511 17.3593C107.33 16.6133 107.063 11.4696 106.074 9.55352C105.893 9.20799 105.32 9.32577 105.037 9.44356C103.058 10.2917 102.956 15.7181 105.053 16.4327C105.461 16.574 106.074 16.4641 106.341 16.0871C107.778 14.0768 108.202 10.6922 107.762 8.30488C107.668 7.81014 106.301 8.16354 106.27 8.59546C106.16 10.166 106.278 11.6345 106.403 13.213C106.521 14.6186 106.199 16.3149 106.812 17.5871C107.032 18.0425 107.872 17.752 108.155 17.5085C108.979 16.7861 109.034 16.0322 108.17 15.2862C107.817 14.9877 107.197 15.2155 106.882 15.4589C106.168 16.0008 105.335 16.9588 104.393 16.8175C104.087 17.0845 103.788 17.3593 103.482 17.6263C104.958 17.8305 106.325 17.5792 107.825 17.697C108.217 17.7284 109.403 17.0531 108.571 16.8724C106.906 16.5034 105.516 15.4118 103.867 15.1919C103.6 15.1605 102.336 15.3804 102.72 15.8908C103.718 17.218 108.068 19.1184 109.529 17.6185C109.647 17.5007 109.749 17.3593 109.623 17.2023C108.532 15.8594 106.089 14.6422 104.589 16.2049C102.862 18.0033 105.54 18.8278 106.969 19.0399C107.338 19.0948 107.888 18.9849 108.115 18.6472C108.618 17.9012 108.414 16.8803 108.563 15.9615C108.641 15.4825 107.738 15.6474 107.526 15.7495C106.317 16.3384 104.456 17.3279 103.223 16.1971C102.147 15.2155 104.04 11.6424 104.338 11.0377C105.296 9.07447 106.545 7.25258 106.176 4.99094C106.081 4.42552 104.919 4.95168 104.739 5.17156C103.435 6.74215 103.294 8.70538 102.846 10.6372C102.713 11.2262 104.11 10.8885 104.283 10.5587C105.697 7.87299 107.204 5.00665 107.581 1.95971C107.644 1.46498 106.772 1.66131 106.545 1.74769C103.812 2.80784 102.697 6.54583 100.443 8.26562C100.875 8.31274 101.307 8.35985 101.731 8.40697C102.469 7.06412 103.623 5.62702 104.684 4.57473C105.375 3.88367 106.066 3.49103 106.505 2.5958C106.812 1.96756 105.595 2.19531 105.351 2.36022C103.443 3.62454 101.786 5.32862 99.7519 6.39662C100.137 6.47515 100.522 6.55369 100.906 6.63222C101.464 5.54066 102.705 4.55119 103.639 3.82872C103.192 3.82086 102.744 3.813 102.296 3.7973C101.888 4.79462 100.844 5.60347 100.05 6.29453C99.3829 6.87564 100.891 6.80497 101.244 6.53797C102.163 5.84691 102.783 4.96739 103.639 4.24492C104.841 3.23189 105.602 2.24242 105.453 4.55903C105.351 6.18459 104.754 7.68449 104.77 9.33361C104.778 9.82835 106.176 9.45141 106.262 9.04306C106.608 7.40179 107.039 5.7841 107.416 4.15069C106.922 4.21351 106.427 4.27633 105.924 4.33915C105.704 6.83639 105.877 9.64775 106.27 12.1528C106.348 12.6711 107.683 12.2706 107.762 11.8623C108.06 10.2681 109.097 6.50657 107.778 5.07733C107.432 4.70824 106.505 5.05376 106.341 5.46212C105.296 8.01432 105.61 10.9827 105.241 13.6841C105.163 14.2888 106.608 13.9669 106.733 13.4957C107.409 10.9749 108.579 7.77874 106.859 5.3993C106.639 5.10089 105.924 5.32077 105.705 5.46998C104.723 6.12177 104.794 6.72644 104.417 7.86511C103.584 10.4095 102.925 12.9146 102.312 15.5296C102.186 16.0793 103.686 15.8516 103.804 15.3411C104.236 13.4957 104.589 11.6031 105.163 9.79696C105.43 8.94884 105.854 6.42017 106.631 5.90188C106.246 5.92544 105.862 5.94899 105.477 5.97255C107.087 8.20279 105.869 11.3204 105.241 13.6684C105.736 13.6056 106.231 13.5428 106.733 13.48C107.102 10.7864 106.788 7.80231 107.833 5.25796C107.354 5.3836 106.875 5.5171 106.396 5.64274C107.495 6.82854 106.529 10.7079 106.278 12.035C106.773 11.9408 107.267 11.8387 107.77 11.7445C107.432 9.5692 107.228 6.3495 107.424 4.14283C107.479 3.5303 106.042 3.85226 105.932 4.33129C105.555 5.9647 105.131 7.58242 104.778 9.22368C105.273 9.12945 105.767 9.02736 106.27 8.93313C106.254 7.70022 108.186 2.50156 106.168 1.77909C104.032 1.0095 101.181 5.45426 100.066 6.29453C100.467 6.37306 100.859 6.45944 101.26 6.53797C102.226 5.6977 103.309 4.81819 103.804 3.60883C104.04 3.02772 102.61 3.45962 102.461 3.57742C101.417 4.38627 100.145 5.39929 99.532 6.59294C99.2022 7.24474 100.451 6.95419 100.686 6.82854C102.728 5.76054 104.37 4.0643 106.286 2.79212C105.901 2.71359 105.516 2.63507 105.131 2.55654C104.589 3.66381 103.482 4.2135 102.689 5.09303C101.849 6.01967 100.953 7.2683 100.357 8.36771C99.9797 9.05877 101.425 8.67397 101.645 8.50906C103.592 7.02486 104.841 3.2476 107.142 2.36022C106.796 2.28954 106.451 2.21885 106.105 2.14817C105.736 5.11659 104.283 7.91224 102.909 10.5273C103.388 10.5037 103.867 10.4723 104.346 10.4487C104.77 8.619 104.896 6.70289 106.136 5.20298C105.657 5.2658 105.178 5.32861 104.699 5.38358C105.225 8.64255 99.4614 13.9904 102.053 17.1159C103.694 19.1027 106.49 17.1551 108.131 16.3541C107.786 16.2835 107.44 16.2128 107.094 16.1421C106.922 16.5897 106.749 17.0374 106.576 17.485C106.529 17.5635 106.482 17.7206 106.576 17.7912C106.631 18.0661 106.694 18.3409 106.749 18.6158C107.134 18.4823 107.519 18.3566 107.895 18.2231C106.804 18.0582 108.123 17.5635 107.958 17.2023C107.935 17.1473 106.93 16.8332 106.505 16.6683C105.704 16.362 104.652 15.9929 104.118 15.294C103.733 15.5296 103.356 15.7573 102.972 15.9929C104.503 16.1892 106.105 17.3201 107.676 17.6735C107.927 17.3986 108.17 17.1237 108.422 16.8489C107.079 16.7389 105.752 16.9981 104.409 16.8096C103.945 16.7468 102.65 17.4928 103.498 17.6185C105.673 17.9483 106.474 16.9353 108.092 15.7024C107.66 15.7573 107.236 15.8123 106.804 15.8751C106.859 16.3384 106.922 16.8018 106.977 17.2651C107.424 17.2415 107.872 17.2101 108.32 17.1866C107.872 16.2599 108.068 15.0663 108.005 14.0847C107.895 12.1607 107.636 10.3467 107.77 8.39913C107.275 8.49337 106.78 8.59545 106.278 8.68969C106.67 10.8335 106.262 14.2103 104.958 16.04C105.39 15.9222 105.814 15.8123 106.246 15.6945C105.108 15.3097 104.448 10.5508 105.634 10.0404C105.288 10.0011 104.943 9.96971 104.597 9.93044C105.288 11.2576 105.493 12.8596 105.116 14.3281C104.77 15.6867 103.993 17.1787 103.663 14.9171C103.38 13.0009 103.757 13.3386 103.883 14.7757C103.922 15.1919 104.236 16.2442 103.961 16.6212C102.964 17.9954 101.079 16.2363 100.349 15.5924C99.9797 15.2704 97.5139 11.7916 97.8908 11.6974C98.4327 11.556 100.467 14.8935 100.577 15.3176C101.315 18.0111 98.841 16.1028 98.0322 15.0034C96.0454 12.3256 99.8698 13.3151 99.6185 14.8307C100.019 14.6658 100.419 14.5009 100.82 14.336C100.726 14.3281 95.0794 12.7182 96.6029 11.6581C96.65 11.6267 97.8752 12.1999 97.9537 12.2785C99.5007 13.8805 96.7208 13.37 96.9485 11.6031C96.548 11.768 96.1475 11.933 95.747 12.0979C98.4876 12.7261 100.726 15.6709 102.995 17.1944C103.349 17.43 104.691 16.8646 104.283 16.5426C102.689 15.2783 100.891 14.281 99.6028 12.6633C98.9353 11.8309 98.362 10.7157 98.4327 10.2838C99.006 10.4645 99.0767 10.9749 98.6447 11.8073C98.4013 12.5455 98.0478 13.2208 97.5845 13.8334C97.1919 14.4145 98.6918 14.226 98.9745 13.8648C99.9954 12.5533 102.045 7.78659 103.749 7.45677C104.048 6.79712 104.299 6.77357 104.511 7.3861C104.856 7.66095 104.911 7.99077 104.66 8.36771C104.723 9.51424 103.985 11.1712 103.718 12.302C103.584 12.8518 105.076 12.6161 105.21 12.1136C105.752 10.0247 106.498 8.01432 107.024 5.90188C107.173 5.31291 105.759 5.6663 105.587 5.98041C103.898 8.97238 103.404 12.4984 101.511 15.3882C101.99 15.3647 102.469 15.3333 102.948 15.3097C103.341 11.7288 106.498 8.76822 106.505 5.13231C106.505 4.45695 105.288 4.94382 105.068 5.21082C103.93 6.56152 103.624 8.43053 102.956 10.0325C102.548 11.0063 101.063 12.9852 100.961 14.0061C100.828 15.349 101.613 13.692 101.982 13.1345C102.493 12.357 102.728 11.234 103.097 10.3781C104.008 8.27348 104.99 6.22385 105.249 3.91509C105.328 3.23973 104.008 3.75803 103.812 3.99362C102.634 5.36003 102.139 7.36254 101.283 8.93313C100.255 10.8257 99.1944 12.7104 98.1814 14.5951C97.8201 15.2626 99.3122 14.9485 99.5713 14.6265C100.482 13.4878 100.741 12.2314 101.307 10.9121C102.053 9.17656 103.199 7.88867 103.215 5.92544C103.223 5.25008 102.006 5.74482 101.778 6.00397C100.262 7.73947 99.2494 9.90688 97.7102 11.6895C98.1735 11.6973 98.6369 11.7131 99.1002 11.7209C99.9169 10.3309 100.828 8.94884 101.323 7.41752C101.519 6.80499 100.137 7.2683 99.9797 7.3861C98.9039 8.1871 98.2913 9.40431 97.1997 10.2367C97.6317 10.2838 98.0636 10.3309 98.4876 10.3781C98.9274 9.60848 99.2023 9.02736 99.2886 8.12428C99.3436 7.55101 98.3227 7.87298 98.0793 7.99863C96.8542 8.62686 96.1475 9.45928 95.2837 10.5351C94.8596 11.0691 96.3752 10.9121 96.6737 10.5665C97.7888 9.2865 99.0844 8.21851 100.325 7.06412C99.8933 7.01701 99.4615 6.96989 99.0374 6.92278C98.2128 7.97507 97.4589 9.09804 96.7992 10.2603C96.438 10.8964 97.9222 10.6451 98.1892 10.2917C98.6761 9.51423 99.3279 8.90172 100.152 8.44625C101.063 8.07716 100.176 7.57457 99.5007 7.82586Z" fill="#272525"/>
<path d="M34.3757 108.171C26.9154 112.796 23.0674 122.204 19.2116 129.703C14.6805 138.514 10.3064 147.514 6.36424 156.608C5.15489 159.403 -2.61165 177.41 2.90112 177.779C3.34873 177.811 4.33819 177.559 4.45598 177.002C4.5031 176.798 4.54235 176.586 4.58947 176.381C4.76224 175.549 2.51631 175.894 2.3514 176.664C2.30428 176.868 2.26503 177.08 2.21792 177.284C2.73621 177.025 3.25449 176.766 3.77278 176.507C1.18131 176.334 7.84848 158.053 8.70445 156.097C12.4817 147.412 16.6516 138.836 20.9629 130.402C24.6773 123.146 28.5645 113.299 35.7657 108.83C37.0457 108.045 35.0981 107.723 34.3757 108.171Z" fill="#272525"/>
<path d="M31.9671 136.654C25.9675 147.616 18.5464 158.375 15.0047 170.445C14.7927 171.167 16.3005 170.885 16.5597 170.767C17.2507 170.453 17.5413 170.311 17.6276 169.518C17.7219 168.631 15.4759 169.039 15.3895 169.801C15.4838 169.817 15.578 169.832 15.6723 169.848C16.1906 169.958 16.7088 170.06 17.2271 170.17C20.7295 158.241 28.0956 147.546 34.0324 136.709C34.5586 135.774 32.3205 136.002 31.9671 136.654Z" fill="#272525"/>
</svg>
