<svg width="21" height="20" viewBox="0 0 21 20" fill="none" xmlns="http://www.w3.org/2000/svg">
<g clip-path="url(#clip0_8232_3813)">
<path d="M18.8869 0H1.83967C1.44811 0 1.07258 0.155548 0.795706 0.432425C0.518829 0.709301 0.363281 1.08483 0.363281 1.47639V18.5236C0.363281 18.9152 0.518829 19.2907 0.795706 19.5676C1.07258 19.8445 1.44811 20 1.83967 20H18.8869C19.2785 20 19.654 19.8445 19.9309 19.5676C20.2077 19.2907 20.3633 18.9152 20.3633 18.5236V1.47639C20.3633 1.08483 20.2077 0.709301 19.9309 0.432425C19.654 0.155548 19.2785 0 18.8869 0ZM6.32439 17.0375H3.31745V7.48611H6.32439V17.0375ZM4.81884 6.1625C4.47775 6.16058 4.14488 6.05766 3.86223 5.86674C3.57958 5.67582 3.35981 5.40544 3.23068 5.08974C3.10154 4.77404 3.06882 4.42716 3.13664 4.09288C3.20446 3.7586 3.36978 3.4519 3.61174 3.21148C3.8537 2.97107 4.16146 2.80772 4.49617 2.74205C4.83088 2.67638 5.17754 2.71133 5.49241 2.84249C5.80727 2.97365 6.07623 3.19514 6.26534 3.47901C6.45444 3.76288 6.55522 4.09641 6.55495 4.4375C6.55817 4.66586 6.51537 4.89253 6.42912 5.104C6.34287 5.31547 6.21493 5.50742 6.05292 5.66839C5.89091 5.82936 5.69815 5.95607 5.48613 6.04096C5.27411 6.12585 5.04717 6.16718 4.81884 6.1625ZM17.4077 17.0458H14.4022V11.8278C14.4022 10.2889 13.748 9.81389 12.9036 9.81389C12.0119 9.81389 11.1369 10.4861 11.1369 11.8667V17.0458H8.12995V7.49306H11.0216V8.81667H11.0605C11.3508 8.22917 12.3674 7.225 13.9188 7.225C15.5966 7.225 17.4091 8.22083 17.4091 11.1375L17.4077 17.0458Z" fill="#0A66C2"/>
</g>
<defs>
<clipPath id="clip0_8232_3813">
<rect width="20" height="20" fill="white" transform="translate(0.363281)"/>
</clipPath>
</defs>
</svg>
