<svg width="256" height="63" viewBox="0 0 256 63" fill="none" xmlns="http://www.w3.org/2000/svg">
<path d="M217.666 27.1337C217.578 26.6881 217.488 26.2427 217.444 25.7526C217.222 23.2129 216.153 21.0298 214.726 18.9802C213.924 17.8664 212.855 17.0198 211.741 16.2178C210.538 15.2822 209.113 14.7922 207.731 14.2575C207.463 14.1684 208.043 12.9654 209.38 11.3169C209.602 11.0496 209.602 10.7823 209.424 10.5149C208.667 9.17829 207.641 8.15353 206.128 7.66344C203.989 6.95056 202.162 7.307 200.603 8.95552C199.979 9.62384 199.444 10.3367 198.91 11.0496C198.776 11.2278 198.686 11.4951 198.42 11.406C198.152 11.3615 198.242 11.0941 198.242 10.9159C198.062 9.04462 197.662 7.21789 197.083 5.43571C196.905 4.85651 196.771 4.76739 196.191 4.76739C195.345 4.72285 194.632 5.03472 194.008 5.56938C193.474 6.05947 192.984 6.63868 192.315 6.99512C191.869 7.26244 191.825 7.39611 192.181 7.84165C192.805 8.6882 193.34 9.57928 193.786 10.5595C194.052 11.1832 194.142 11.807 194.186 12.4753C194.186 12.6535 194.186 12.8763 193.964 13.0545C193.117 12.609 192.181 12.3862 191.246 12.2971C190.222 12.208 189.197 12.2525 188.217 12.5199C187.148 12.8318 186.3 13.411 185.499 14.1238C184.653 14.8813 184.073 15.7723 183.717 16.8417C183.494 17.51 183.583 17.6883 184.251 17.9555C184.341 18.0001 184.429 18.0001 184.519 18.0447C185.231 18.3565 186.034 18.6238 186.88 18.8021C186.702 19.0694 186.524 19.2475 186.346 19.3812C185.632 20.0495 184.919 20.7179 184.295 21.4754C183.094 22.9456 182.246 24.5496 181.756 26.3763C181.533 27.1783 181.444 28.0248 181.311 28.8714C180.999 30.9208 181.043 32.9258 181.489 34.9307C182.068 37.3813 183.226 39.5644 184.741 41.6139C185.766 43.0396 187.014 44.198 188.529 45.1783C189.776 45.9803 191.158 46.5149 192.583 46.9159C193.608 47.1833 194.678 47.406 195.745 47.6733C196.191 47.7624 196.549 47.9407 196.593 48.4307C196.637 48.7427 196.861 48.9208 197.127 49.0545C197.395 49.1883 197.662 49.3218 197.974 49.3218C199.444 49.4555 200.915 49.411 202.384 48.9654C202.964 48.7873 203.499 48.6981 204.077 48.7427C204.791 48.8317 205.414 48.609 205.994 48.208C206.35 47.9853 206.528 47.6733 206.528 47.2723C206.528 46.6931 206.84 46.4259 207.33 46.203C208.087 45.8466 208.801 45.4902 209.424 44.9555C211.028 43.6189 212.677 42.3713 213.88 40.6338C214.726 39.4308 215.529 38.2278 216.107 36.8911C216.865 35.1536 217.4 33.3268 217.8 31.4555C217.978 30.0298 217.934 28.604 217.666 27.1337ZM188.439 37.8714C188.351 37.9158 188.305 37.9604 188.217 37.9604C188.083 37.9604 187.949 37.9158 187.905 37.8714C187.771 37.8268 187.681 37.7377 187.593 37.6931C187.014 37.2476 186.658 36.713 186.434 36.2674C185.677 34.9307 185.187 33.4159 184.919 31.7673C184.831 31.0099 184.741 30.2525 184.965 29.4505C185.053 28.9605 185.321 28.515 185.722 28.2475C186.078 27.9803 186.346 28.0248 186.478 28.114C186.612 28.1585 186.836 28.3367 186.836 28.7823C186.836 29.0495 186.88 29.406 186.836 29.7624C186.702 31.2328 186.924 32.7031 187.459 34.307C187.548 34.5743 187.637 34.8862 187.727 35.1536C187.949 35.8664 188.217 36.6239 188.529 37.3367C188.573 37.4258 188.707 37.6931 188.439 37.8714ZM189.91 22.8565C189.731 23.1683 189.553 23.4358 189.375 23.6139C188.975 24.0149 188.573 24.4605 188.261 24.9506L188.171 25.0842C187.905 25.4407 187.681 25.7972 187.37 26.109C187.148 26.3763 186.924 26.4209 186.79 26.4209H186.702C186.478 26.3763 186.256 26.1536 186.166 25.8417C185.988 25.3516 186.122 24.906 186.256 24.505C186.478 23.703 187.192 22.6338 187.771 22.1436C188.217 21.7426 188.707 21.5645 189.286 21.6089C189.598 21.6535 189.864 21.7872 189.998 22.0099C190.088 22.2328 190.044 22.5446 189.91 22.8565Z" fill="#222227"/>
<path d="M254.204 40.9457C253.402 40.2328 252.555 39.4754 251.797 38.7178C249.57 36.4902 247.52 34.0842 245.382 31.8119C243.689 29.9853 242.174 27.9803 240.481 26.109C240.303 25.9307 240.169 25.6635 240.035 25.4852C239.723 25.1287 239.767 24.7723 239.991 24.3713C240.703 23.1239 241.372 21.8764 242.13 20.6734C245.248 15.6387 248.277 10.6041 251.485 5.61396C251.931 4.94564 251.931 4.81197 251.308 4.36643C249.481 2.98523 247.565 1.78227 245.471 0.802073C244.891 0.534746 244.313 0.26742 243.689 0.133756C243.332 0.0446473 243.066 0.133756 242.842 0.356529C242.708 0.534746 242.574 0.757519 242.442 0.935736C241.906 1.87138 241.417 2.80702 240.881 3.74267C239.189 6.50504 237.496 9.22286 235.803 11.9407L234.868 13.5446C234.288 14.5694 233.708 15.5496 233.085 16.5743C232.863 16.9753 232.773 16.9753 232.461 16.6189C231.881 15.9952 231.392 15.3268 230.902 14.6585C228.985 12.0744 227.248 9.44563 225.287 6.90604C224.887 6.37137 224.797 6.32682 224.129 6.59416C222.436 7.21792 220.921 8.19811 219.54 9.31198C218.872 9.84663 218.158 10.3813 217.58 11.0942C216.957 11.8516 217.089 12.1189 217.491 12.7427C219.05 15.3268 221.055 17.6437 222.748 20.1387C224.085 22.0545 225.466 23.8813 226.802 25.7526C226.936 25.9307 227.07 26.109 227.07 26.3317C227.07 26.5546 226.892 26.7327 226.802 26.911C225.466 29.2278 224.04 31.5447 222.792 33.9061C221.545 36.2675 220.209 38.5843 218.916 40.9011C217.58 43.2625 216.287 45.5793 214.952 47.8962C213.615 50.213 212.233 52.4852 211.03 54.8466C210.674 55.5595 210.674 55.604 211.208 56.2277C212.411 57.5644 213.748 58.812 215.264 59.8367C216.465 60.6833 217.669 61.4853 218.96 62.109C219.674 62.4208 219.941 62.3318 220.297 61.6634C221.946 58.4556 223.684 55.2922 225.377 52.0842C226.356 50.213 227.338 48.3417 228.273 46.4259L230.546 41.8812C231.481 40.01 232.417 38.1833 233.441 36.401C233.842 35.7327 233.842 35.7327 234.332 36.312L234.376 36.3566C236.783 39.2971 239.189 42.1932 241.684 45.0892C242.708 46.2922 243.733 47.4506 244.891 48.5644C245.515 49.1437 245.738 49.1437 246.452 48.7427C247.164 48.2971 247.831 47.8516 248.501 47.3614C250.282 46.0249 252.065 44.6882 253.668 43.0842C253.936 42.8169 254.158 42.5497 254.338 42.2376C254.738 41.6139 254.738 41.4357 254.204 40.9457ZM221.457 14.213C221.367 14.2575 221.279 14.2575 221.189 14.2575C221.011 14.2575 220.833 14.1684 220.743 14.0347L220.521 13.7229C220.119 13.2328 219.718 12.6981 219.406 12.1189C219.274 11.8516 219.318 11.5397 219.585 11.3169C219.852 11.0942 220.163 11.1387 220.387 11.406C220.877 11.9407 221.279 12.609 221.679 13.1882L221.768 13.2773C221.812 13.3664 221.812 13.4555 221.857 13.5001V13.5892C221.812 13.9456 221.679 14.1239 221.457 14.213ZM229.253 23.7922C229.165 24.0149 228.941 24.104 228.719 24.104C228.407 24.104 228.229 23.8813 228.095 23.7476C227.16 22.6338 226.356 21.5645 225.377 20.2278C224.307 18.7576 223.462 17.5546 222.792 16.3962C222.658 16.2179 222.392 15.7723 222.882 15.4605C223.194 15.2377 223.506 15.3268 223.773 15.6833C224.351 16.3516 224.843 17.0644 225.333 17.7773C225.599 18.1783 225.912 18.5793 226.178 18.9803C226.802 19.8268 227.382 20.6288 228.005 21.4754C228.407 22.0545 228.807 22.5892 229.253 23.1683C229.297 23.3021 229.387 23.5249 229.253 23.7922ZM178.772 35.911C177.525 32.2575 175.342 29.406 171.778 27.7576C171.242 27.4901 171.242 27.4012 171.688 27.0446C173.605 25.6189 174.674 23.6139 175.432 21.4308C175.966 19.8268 176.278 18.1783 176.01 16.4853C175.476 13.0991 173.871 10.4258 170.931 8.5991C168.614 7.12881 166.075 6.23772 163.402 5.65851C161.931 5.34663 160.462 5.21296 158.946 5.07931C157.342 4.94564 155.694 5.07931 154.09 5.25752C153.199 5.34663 152.619 5.74761 152.397 6.68326C152.085 7.97534 151.817 9.26742 151.461 10.5595C150.614 13.812 150.08 17.109 149.679 20.4505C149.545 21.5645 149.501 22.7229 149.411 23.8813C149.367 24.4605 149.367 24.4605 148.832 24.5496C147.897 24.6833 147.005 24.7723 146.07 24.8615C145.312 24.9506 145.223 25.0843 145.045 25.8417C144.956 26.3317 144.288 30.119 144.733 33.5496C144.822 34.3516 145.001 34.4406 145.847 34.3516C146.604 34.2625 147.362 34.1288 148.119 33.9952C148.609 33.9061 148.609 33.9506 148.565 34.3962C148.119 38.0941 147.852 41.8367 147.763 45.3119V50.1238C147.763 50.8367 148.075 51.416 148.699 51.7724C149.367 52.218 150.08 52.6189 150.837 52.8862C152.798 53.5545 154.758 54.0892 156.808 54.1784C159.346 54.3119 161.887 54.2673 164.426 53.9555C166.921 53.6436 169.283 52.9754 171.51 51.8615C172.981 51.1041 174.362 50.1684 175.476 48.8763C177.391 46.604 178.594 44.0645 179.04 41.1238C179.308 39.3863 179.352 37.604 178.772 35.911ZM147.496 29.1833C147.496 29.5397 147.273 29.7624 146.961 29.807H146.827C146.515 29.807 146.293 29.6288 146.204 29.317C146.159 29.0495 146.159 28.7823 146.159 28.604V28.3367C146.159 27.8021 146.159 27.4012 146.248 27.0002C146.382 26.4209 146.738 26.3763 146.961 26.3763C147.139 26.3763 147.54 26.51 147.54 27.1337C147.54 27.8021 147.54 28.4704 147.496 29.1833ZM154.223 12.7427C153.822 14.8367 153.466 17.109 153.109 19.6485C153.02 20.1832 152.976 20.6734 152.887 21.2079C152.842 21.6981 152.753 22.1436 152.708 22.6338C152.664 22.9011 152.619 23.2575 152.174 23.3912H151.996C151.862 23.3912 151.728 23.3466 151.639 23.2575C151.506 23.1683 151.372 22.9456 151.372 22.5001L151.416 21.8764C151.639 19.4258 151.862 16.8863 152.352 14.4357C152.486 13.812 152.619 13.0991 152.931 12.3862C153.109 11.9852 153.377 11.8516 153.689 11.9407C153.956 11.9852 154.312 12.1635 154.223 12.7427ZM155.382 7.79713C155.204 8.64366 155.025 9.40108 154.803 10.114C154.713 10.4258 154.491 10.5595 154.223 10.5595H154.09C153.822 10.5149 153.555 10.3367 153.6 9.75751L153.644 9.44563C153.733 8.82187 153.867 8.15355 154.134 7.48525C154.268 7.12881 154.58 6.99514 154.892 7.08425C155.293 7.17336 155.471 7.44069 155.382 7.79713ZM159.392 16.708C159.48 15.8614 159.614 15.0149 159.792 14.1684C159.926 13.411 160.06 13.3219 160.773 13.3664C162.065 13.5001 163.356 13.6783 164.604 14.1684C166.876 15.0595 168.08 17.1536 167.768 19.5595C167.5 21.8764 166.209 23.3466 164.114 24.1486C162.644 24.7277 161.085 24.9506 159.48 24.9506C158.768 24.9506 158.768 24.906 158.723 24.2378V23.3912C158.902 21.1635 159.08 18.9357 159.392 16.708ZM168.036 42.3268C166.609 43.7081 164.872 44.599 162.912 44.9555C161.397 45.2675 159.838 45.312 158.279 45.2229C157.654 45.1783 157.565 45.0892 157.565 44.4209C157.565 42.9507 157.743 36.4456 157.877 34.6635C157.965 33.6388 157.921 33.6388 158.99 33.4605C161.129 33.1486 163.268 33.0595 165.361 33.6388C166.832 34.0396 168.08 34.7972 168.837 36.1783C169.907 38.0496 169.595 40.7674 168.036 42.3268ZM61.8174 52.7081C60.0352 50.7031 58.5204 48.5199 56.961 46.3367C54.2432 42.5051 52.1045 38.3614 49.9214 34.2625C49.6985 33.8615 49.565 33.4159 49.3867 33.0149C49.2085 32.5248 49.253 32.5248 49.6985 32.3467C50.0995 32.1684 50.5451 32.0794 50.9461 31.8565C53.8866 30.3417 57.2283 27.5793 57.5401 22.7229C57.6739 20.718 57.362 18.713 56.5154 16.8417C56.2036 16.1733 55.9362 15.4605 55.446 14.9258C54.8223 14.213 54.1986 13.4555 53.5748 12.7427C52.8173 11.8961 51.9264 11.2278 50.9015 10.7377C48.451 9.44563 45.7777 8.95554 43.0599 8.91098C40.4312 8.91098 37.7134 8.86643 34.951 9.04465C33.5699 9.13375 32.1886 9.31198 30.8521 9.5793C30.1392 9.71296 29.9609 9.89118 29.9609 10.6486C29.9609 11.8516 30.0055 13.01 30.0501 14.213C30.0947 14.9258 30.1836 15.6833 30.3174 16.3962C30.4065 16.9753 30.5402 17.0644 31.1194 17.0644C31.6095 17.0644 32.0996 17.0644 32.6342 17.109C33.4362 17.1536 33.4362 17.1536 33.4362 18.0001C33.4362 18.0893 33.258 21.4754 33.2135 23.1239C33.1689 24.104 32.7233 29.6288 32.7233 31.4109C32.7233 33.9952 32.545 36.5347 32.545 39.1188C32.545 40.1437 32.2332 45.802 32.3223 47.6289C32.3669 48.7427 32.3669 49.8566 32.545 50.9704C32.6342 51.5495 32.7233 51.6387 33.3025 51.7278C34.4165 51.9061 35.5749 51.8615 36.7333 51.9505C37.6688 51.9951 38.6491 51.9505 39.5847 51.9061C40.1639 51.8615 40.3421 51.6832 40.3421 51.1041V50.6585C40.3421 48.8763 40.2975 47.0942 40.3866 45.3119C40.4758 42.3714 40.6985 39.4308 40.7876 36.4456C40.7876 36.2229 40.7876 35.7773 40.9214 35.7327C41.0549 35.6882 41.2778 36.2229 41.4115 36.4902C42.0798 37.8714 42.8372 39.2526 43.5946 40.5893C45.4659 43.7526 47.4708 46.7823 49.4312 49.9011C50.6788 51.817 52.0599 53.6436 53.4858 55.4258C54.1095 56.2277 54.7332 56.9852 55.4906 57.6536C55.9362 58.0546 56.0699 57.9209 56.6044 57.6536C57.6739 57.0743 60.3471 55.2476 61.6392 54.1338C62.3521 53.5099 62.3966 53.3764 61.8174 52.7081ZM32.857 13.9456C32.857 14.3021 32.6342 14.5694 32.2778 14.6139H32.1886C31.8768 14.6139 31.6541 14.3912 31.5649 14.0793C31.4312 13.3664 31.2976 12.609 31.4312 11.8516V11.7179C31.4312 11.6288 31.4312 11.5842 31.4758 11.4951C31.5649 11.0942 31.8322 10.8714 32.2332 10.9159C32.6342 10.9605 32.857 11.2724 32.8125 11.6734C32.7679 12.1189 32.8125 12.609 32.8125 13.0545V13.4555C32.857 13.6338 32.857 13.812 32.857 13.9456ZM35.6193 34.2179V34.9308H35.5303V35.1536C35.5303 35.51 35.5303 35.8665 35.4857 36.2229C35.4857 36.7576 35.1739 36.8912 34.951 36.8912H34.9064C34.55 36.8912 34.3273 36.6684 34.3273 36.2675C34.2827 35.4209 34.2827 34.5298 34.3719 33.3713V33.2822C34.3719 33.1932 34.3719 33.1041 34.4165 33.0149C34.4609 32.6139 34.7283 32.3912 35.0402 32.4358C35.4411 32.4358 35.6639 32.7031 35.6639 33.1041C35.6639 33.4605 35.6639 33.8169 35.6193 34.2179ZM36.1094 24.505C36.0648 25.708 35.9759 26.911 35.8867 28.114C35.8421 28.8714 35.7976 29.6734 35.753 30.4308C35.753 30.6535 35.7084 31.1437 35.1739 31.1882H35.1293C34.55 31.1882 34.5054 30.6535 34.5054 30.4308C34.3719 28.9606 34.4609 27.5347 34.5946 26.1536C34.5946 25.8862 34.6392 25.5743 34.6392 25.307V24.906L34.6837 24.5942C34.8175 22.9011 34.9064 21.1635 35.1293 19.4704C35.1739 19.0248 35.2629 18.5793 35.352 18.1783C35.4411 17.7773 35.7084 17.5546 36.0648 17.5991C36.2431 17.5991 36.6441 17.7327 36.5996 18.3566C36.3323 20.3615 36.1986 22.4555 36.1094 24.505ZM47.8273 24.6388C46.9807 25.2179 46.0452 25.3962 45.0649 25.5297C44.7085 25.5743 44.3075 25.5743 43.9065 25.6189C43.3273 25.6635 42.748 25.6189 42.2133 25.4852C41.6788 25.3962 41.5896 25.307 41.5896 24.7277C41.6788 23.4358 41.8569 22.1436 42.0798 20.8515C42.2579 19.6931 42.4808 18.4901 42.7035 17.3317C42.8372 16.6634 42.8372 16.708 43.4609 16.708C44.6193 16.7526 45.7331 17.0644 46.758 17.5546C48.4955 18.312 49.4312 19.4258 49.4758 21.6981C49.5204 22.9902 48.852 23.9258 47.8273 24.6388ZM121.075 43.7081C120.986 42.8169 120.897 41.9704 120.585 41.1238C120.406 40.6338 120.05 40.3218 119.515 40.3218C118.357 40.2772 117.199 40.1883 115.996 40.1883C113.545 40.1883 111.139 40.3664 108.733 40.7228C106.372 41.0792 104.011 41.3912 101.738 42.0595C101.605 42.1041 101.382 42.1932 101.337 42.0595C101.293 41.9258 101.56 41.614 101.694 41.3912C103.966 37.916 106.55 34.6635 109.134 31.4109C111.139 28.8268 113.278 26.2872 115.55 23.9258C115.773 23.7031 115.996 23.4358 115.996 23.0794C116.085 20.2278 115.773 17.3763 115.505 14.5248C115.461 13.9902 115.283 13.8565 114.704 13.8565C114.481 13.8565 114.213 13.8565 113.991 13.812C109.045 13.7674 95.5005 13.9902 93.7184 14.1684C92.159 14.3466 90.6441 14.4803 89.0847 14.6585C88.461 14.7476 88.2827 14.9258 88.2827 15.5496C88.2381 15.9506 88.2381 16.3516 88.2381 16.7526C88.2827 18.6238 88.2827 20.4951 88.7729 22.3665C88.951 23.0794 89.1293 23.2129 89.7976 23.1239C90.555 23.0348 91.3124 22.9902 92.0698 22.8565C94.0748 22.5892 96.0798 22.3665 98.0847 22.2328L103.699 21.8318C104.367 21.7872 105.703 21.6089 105.793 21.7872C105.882 21.9209 105.481 22.3665 105.302 22.5892C104.322 23.8368 103.298 24.9952 102.407 26.2872C100.357 29.1833 98.3966 32.0794 96.347 34.9308C94.3421 37.6486 92.5599 40.5447 90.4658 43.1734C90.2431 43.4406 90.0204 43.7526 89.8421 44.0645C89.7084 44.2872 89.664 44.5101 89.7976 44.8219C90.6441 47.1387 91.4907 49.5001 92.2927 51.817C92.3817 52.1288 92.5154 52.3961 92.6045 52.6635C92.6937 52.9754 92.9164 53.0645 93.2282 52.9754L93.7629 52.8417C94.7876 52.5744 95.7679 52.3071 96.7926 52.0397C100.624 51.1041 104.545 50.4357 108.421 49.7674C112.164 49.1437 115.951 48.7427 119.783 48.7427C121.03 48.7427 121.164 48.6536 121.208 47.3614C121.298 46.203 121.164 44.9555 121.075 43.7081ZM91.1788 18.8911C91.1788 19.2477 90.956 19.515 90.5995 19.5595H90.5104C90.1985 19.5595 89.9758 19.3367 89.8867 19.0248C89.753 18.312 89.6194 17.5546 89.753 16.7971V16.6634C89.753 16.5743 89.753 16.5299 89.7976 16.4407C89.8867 16.0397 90.154 15.8169 90.555 15.8614C90.956 15.906 91.1788 16.2179 91.1343 16.6189C91.0897 17.0644 91.1343 17.5546 91.1343 18.0001V18.4011C91.1788 18.5793 91.1788 18.7576 91.1788 18.8911ZM105.837 24.4605L105.971 24.2378C106.283 23.6585 106.639 23.0794 107.129 22.5892C107.352 22.3665 107.664 22.3219 107.931 22.4555C108.154 22.5892 108.288 22.7673 108.288 23.0794C108.288 23.3466 108.154 23.5249 108.02 23.6585C107.976 23.7031 107.931 23.7476 107.887 23.8368C107.664 24.1932 107.397 24.5496 107.129 24.906L107.04 25.0398C106.951 25.1733 106.773 25.3962 106.416 25.3962H106.327C106.104 25.3962 105.926 25.2625 105.793 25.0398C105.703 24.906 105.703 24.6833 105.837 24.4605ZM99.6887 35.599C99.4213 36 99.1986 36.3566 98.9313 36.7576C98.8421 36.9357 98.6639 37.1584 98.352 37.1584H98.3074C98.0847 37.1584 97.9064 37.0694 97.7729 36.8466C97.6392 36.6239 97.6392 36.3566 97.7729 36.1337L98.1739 35.51C98.5303 34.9753 98.8421 34.4406 99.154 33.9061C100.045 32.3912 101.114 30.8764 102.317 29.2278L102.674 28.7377C103.164 28.0694 103.699 27.3566 104.278 26.7327C104.545 26.4654 104.813 26.3763 105.08 26.51C105.347 26.5992 105.436 26.8219 105.481 27.1337V27.2229C105.436 27.4901 105.258 27.713 105.124 27.8911L104.991 28.0249C104.5 28.6931 104.055 29.3616 103.565 30.0298C102.808 31.0991 102.05 32.1238 101.293 33.1932L99.6887 35.599Z" fill="#222227"/>
<path d="M87.6995 33.4605C87.6104 33.0149 87.5212 32.5694 87.3875 32.1238C86.9865 30.6535 86.6301 29.1833 86.1401 27.7576C85.9172 27.0446 85.6499 26.911 84.9371 27.0892C84.2687 27.2229 83.645 27.4012 82.9767 27.5347C81.6846 27.8466 81.7291 28.2032 81.3281 26.5546C80.6153 23.6585 78.5212 14.3021 78.031 11.5843C77.9421 10.9605 77.6746 10.8714 77.3628 10.7823C76.0706 10.4704 74.9122 10.2476 73.6648 10.0694C72.1054 9.80209 70.5014 9.57932 69.1202 9.40111C68.0955 9.35656 67.9172 9.49021 67.5608 10.2031C66.0459 13.411 65.1104 16.7972 63.9964 20.1387C62.838 23.7031 61.5906 27.2675 60.6103 30.8764C59.6747 34.4852 58.8282 38.0942 58.0708 41.7031C57.8033 42.9061 57.8479 43.0397 58.9617 43.5298C61.0113 44.4655 63.15 45.2229 65.3331 45.8021C66.0459 45.9803 66.0905 45.9358 66.3132 45.2675C66.7588 43.7971 67.0262 42.3268 67.3826 40.812C67.7391 39.1634 67.7391 39.1634 69.343 38.6289C70.947 38.0942 72.5064 37.6486 74.1102 37.1585C74.7787 36.9357 74.7787 36.9803 75.0014 37.6486C75.4024 39.1634 75.8034 40.7228 76.2935 42.2377C76.7836 43.9308 77.3628 45.6685 77.8083 47.3615C77.9865 48.0299 78.1202 48.6982 78.343 49.3664C78.5658 50.1239 78.6549 50.1684 79.4123 49.9901C81.5509 49.5447 83.645 48.9209 85.7391 48.208C86.0509 48.1189 86.3182 47.9853 86.5855 47.807C87.1202 47.4506 87.1648 47.3169 87.0311 46.6932C86.6301 45.0446 86.0509 43.4407 85.5608 41.8367C85.0707 40.0991 84.6697 38.3169 84.1351 36.5793C84.0014 36.1783 83.9122 35.7328 83.7787 35.3318C83.6895 35.1091 83.7787 34.9753 84.0014 34.9308C84.1351 34.9308 84.2241 34.8862 84.3578 34.8862C85.249 34.7081 86.1845 34.5744 87.0756 34.3962C87.6993 34.3962 87.8331 34.1734 87.6995 33.4605ZM68.4965 16.5743L68.0509 17.8219C67.6499 18.9357 67.2489 20.1387 66.8479 21.2525C66.6252 22.0099 66.3578 22.7229 66.1351 23.4804C66.0014 23.8814 65.8678 24.3268 65.7786 24.7278C65.3777 25.9753 65.0212 27.2229 64.6202 28.4704L64.353 29.2724C64.2192 29.718 63.9074 29.807 63.7291 29.807H63.551C63.1944 29.718 63.0163 29.4506 63.0163 29.0941V29.0496C63.1945 28.114 63.4618 27.2229 63.7291 26.4209C63.952 25.708 64.1747 24.9506 64.3974 24.2378C64.7984 22.9902 65.1994 21.6535 65.6004 20.4061C66.0459 19.0694 66.5806 17.7327 67.2935 16.1289C67.5608 15.5942 67.9618 15.6833 68.0955 15.7278C68.4965 15.8169 68.6302 16.1733 68.4965 16.5743ZM68.7637 14.213C68.6746 14.213 68.5856 14.213 68.4965 14.1684C68.14 14.0348 67.9618 13.7229 68.0955 13.3219L68.14 13.1882C68.3182 12.5645 68.4965 11.9407 68.8083 11.3615C68.9866 11.0051 69.2985 10.8714 69.6103 10.9605C69.9222 11.0496 70.1004 11.3169 70.1004 11.6734V11.7625L70.0559 11.8962C70.0113 11.9853 69.9667 12.1189 69.9222 12.2526L69.833 12.4754C69.6549 12.9209 69.5212 13.3219 69.343 13.7674C69.2539 14.0348 69.031 14.213 68.7637 14.213ZM72.7291 30.7427C71.6153 31.01 70.635 31.2774 69.5212 31.5893C69.2985 31.6338 69.2093 31.6784 69.2985 31.0545C69.833 28.1586 70.9914 23.1239 71.036 22.9902C71.0806 22.8565 71.1697 22.7229 71.348 22.7674C71.4816 22.7674 71.5261 22.9011 71.5261 23.0348C71.7934 23.8368 71.9717 24.6834 72.1944 25.5298C72.5508 27.0002 72.9074 28.4704 73.2193 29.9853C73.3528 30.5644 73.3083 30.609 72.7291 30.7427ZM146.422 11.0942C144.907 9.75755 143.259 8.68824 141.432 7.79715C141.254 7.70803 141.076 7.66348 140.897 7.57438C140.14 7.3516 139.873 7.44071 139.516 8.15359C138.848 9.35655 138.269 10.6041 137.6 11.8516C136.086 14.6585 134.392 17.3763 132.655 20.0051C132.298 20.5397 132.076 20.5843 131.719 20.0051C129.714 16.9309 127.665 13.9011 125.794 10.7377C124.145 7.88626 122.496 5.03477 121.026 2.09418C120.714 1.47042 120.581 1.42586 119.957 1.69319C117.997 2.53972 116.036 3.47536 114.254 4.63378C113.853 4.9011 113.496 5.12388 113.14 5.43577C112.739 5.74765 112.694 5.97042 112.917 6.41595C113.095 6.81695 113.318 7.17338 113.541 7.52982C114.833 9.75755 116.17 11.9407 117.506 14.1684C119.779 18.0447 122.051 21.8764 124.68 25.4853C125.972 27.2675 127.308 29.0496 128.6 30.8318C128.823 31.0991 128.912 31.411 128.912 31.7674C128.823 36.8466 129.358 44.0645 129.625 46.5149C129.848 48.5199 130.16 50.5248 130.65 52.4852C130.828 53.2872 130.828 53.2427 131.63 53.2872C132.922 53.3764 134.214 53.1535 135.462 52.9308C136.62 52.7525 137.823 52.5298 138.937 52.0843C139.917 51.6833 140.051 51.4606 139.828 50.4357C139.16 47.4506 137.823 37.0695 137.556 34.8862C137.333 32.8368 137.199 30.8318 137.11 28.7823C137.11 28.4259 137.199 28.114 137.422 27.8022C139.249 25.1733 141.076 22.5892 142.769 19.8714C144.284 17.4654 145.62 14.9704 146.69 12.3417C147.001 11.7179 147.001 11.5843 146.422 11.0942ZM118.353 9.98032C118.264 10.0694 118.13 10.0694 118.041 10.0694C117.863 10.0694 117.685 9.98032 117.551 9.80209C116.838 9.00012 116.214 8.06447 115.724 7.03972C115.68 6.95062 115.68 6.90606 115.68 6.8615V6.77239C115.724 6.37141 115.947 6.23774 116.125 6.19318C116.393 6.10409 116.66 6.23774 116.838 6.46051C117.284 7.08427 117.685 7.70803 118.085 8.28724C118.264 8.59912 118.442 8.911 118.576 9.13379C118.709 9.49021 118.62 9.80209 118.353 9.98032ZM125.66 21.5645C125.526 21.7427 125.348 21.8764 125.081 21.8764H124.992C124.68 21.8318 124.457 21.5645 124.323 21.3417C123.744 20.5397 123.209 19.7377 122.719 18.9357L122.318 18.312C121.204 16.5743 120.135 14.8368 119.199 13.1437C119.11 13.01 119.066 12.8763 118.977 12.7427C118.887 12.5645 118.798 12.3863 118.665 12.208C118.353 11.7179 118.576 11.4506 118.754 11.2724C119.199 10.9605 119.556 11.4061 119.645 11.5397C120.09 12.1635 120.491 12.8318 120.892 13.5001C121.115 13.8566 121.293 14.213 121.516 14.5694C122.764 16.5743 124.056 18.5793 125.348 20.5843C125.393 20.6288 125.437 20.718 125.482 20.7625L125.571 20.8961C125.794 21.119 125.794 21.3417 125.66 21.5645ZM29.6004 36.0892C28.7093 35.7328 27.7737 35.4209 26.838 35.1982C25.5013 34.8416 24.1202 34.7526 22.7391 34.7526C22.2044 34.7526 21.848 34.8862 21.5807 35.4209C21.3133 35.9556 21.046 36.4902 20.6896 36.9803C19.9321 38.0942 18.9964 38.9853 17.7043 39.4309C15.0757 40.3664 12.4024 38.7624 11.4667 36.713C10.9767 35.6436 10.6202 34.4852 10.442 33.3268C10.0856 31.0545 10.1747 28.8714 10.9321 26.6882C11.9123 24.0595 13.8727 22.6784 16.5905 22.2774C17.5262 22.1437 18.4619 22.2774 19.3083 22.6338C20.4667 23.0794 21.1797 23.9704 21.8034 24.9952C22.2044 25.708 22.2044 25.708 22.9172 25.4408C25.0114 24.6388 26.9272 23.4804 28.7984 22.2328C29.244 21.921 29.244 21.921 29.0211 21.4308C28.6647 20.6288 28.1747 19.8714 27.7292 19.114C25.4123 14.8813 21.6697 13.0546 16.9915 12.9209C15.5658 12.8763 14.14 13.1882 12.7588 13.5892C11.2885 14.0348 9.86278 14.614 8.65981 15.5496C6.56575 17.1982 4.87269 19.1586 3.80338 21.609C2.46675 24.6834 1.93209 27.9357 2.0212 31.2774C2.06576 37.8269 3.89249 41.8812 5.67467 44.2872C7.45684 46.6486 9.59546 48.5644 12.5361 49.411C14.2291 49.9011 15.9667 50.1684 17.7043 49.9011C19.6203 49.5893 21.4024 48.9654 23.0064 47.8962C24.7439 46.7378 26.2143 45.3565 27.2836 43.5744C28.2637 41.9258 29.0211 40.1437 29.7341 38.3614C29.9123 37.9604 30.0014 37.515 30.1351 37.0695C30.2687 36.4456 30.1796 36.312 29.6004 36.0892ZM8.83804 19.3367C7.90239 20.5397 7.27863 21.921 6.69943 23.2575C5.76378 25.4853 5.27367 27.9357 5.31823 30.52C5.31823 30.8318 5.31823 31.0545 5.36279 31.2774C5.40734 31.812 5.09546 31.9457 4.91725 31.9902H4.78358C4.64991 31.9902 4.51625 31.9457 4.42714 31.9011C4.29349 31.812 4.20437 31.6338 4.20437 31.4555C4.15982 31.2774 4.15982 31.0991 4.11526 30.921C4.02616 30.4754 3.98161 30.0298 3.98161 29.5843V29.317C3.98161 28.1586 4.20437 27.0446 4.38258 26.1536C4.82814 24.0149 5.67467 21.8764 7.05586 19.6487C7.27863 19.2477 7.59051 18.8911 7.94695 18.5347C8.21428 18.2674 8.57071 18.2229 8.8826 18.4901C9.06081 18.713 9.10536 19.0249 8.83804 19.3367ZM9.5509 17.7773C9.28358 17.5546 9.28358 17.1982 9.4618 16.9753C10.2638 15.9952 11.1549 15.416 12.1796 15.1486C12.3578 15.1041 12.5806 15.1486 12.7143 15.2377C12.8479 15.3714 12.937 15.5496 12.937 15.7278C12.937 15.9952 12.7588 16.2179 12.4915 16.2625C11.7786 16.4853 11.244 16.9309 10.7984 17.3763C10.6648 17.51 10.5311 17.6437 10.3083 17.7773C10.1747 17.8664 10.0856 17.911 9.95189 17.911C9.81824 17.9556 9.68457 17.8664 9.5509 17.7773Z" fill="#222227"/>
</svg>
