<svg width="142" height="63" viewBox="0 0 142 63" fill="none" xmlns="http://www.w3.org/2000/svg">
<path d="M0 40.7617L8.57053 62.7894H12.8795L17.6954 50.4807L22.5392 62.7894H26.8482L35.3692 40.7617H0ZM10.6009 57.6043L6.04406 45.2241H15.5543L10.6009 57.6043ZM29.523 45.2241L24.5696 57.6043L20.0124 45.2241H29.523Z" fill="#222227"/>
<path d="M82.4719 40.7617L78.7905 49.6121H76.1416V40.7617H72.0312V62.7898H76.1416V54.0734H78.9281L82.4719 62.7898H86.6433L82.269 51.6008L86.6433 40.7617H82.4719Z" fill="#222227"/>
<path d="M141.301 51.601L141.33 51.527H141.27L136.792 40.762H125.082H124.934V62.79H136.792L141.274 51.6711H141.33L141.301 51.601ZM129.045 58.6915V45.2243H134.422L136.995 51.601L134.31 58.6915H129.045Z" fill="#222227"/>
<path d="M49.5439 45.2241L51.0297 40.7617H38.3984V62.7894H48.5525L50.039 58.6561H42.5088V54.0734H46.7197L48.2054 49.6121H42.5088V45.2241H49.5439Z" fill="#222227"/>
<path d="M116.613 54.4124L110.476 40.762H110.172H106.17H106.062V62.79H110.172V49.5502L116.354 62.79H116.613H120.724V40.762H116.613V54.4124Z" fill="#222227"/>
<path d="M66.0866 45.2241L67.5738 40.7617H54.9414V62.7894H65.0972L66.5826 58.6561H59.0532V54.0734H63.2637L64.7498 49.6121H59.0532V45.2241H66.0866Z" fill="#222227"/>
<path d="M100.859 45.2241L102.346 40.7617H89.7148V62.7894H99.8685L101.355 58.6561H93.8259V54.0734H98.0361L99.5229 49.6121H93.8259V45.2241H100.859Z" fill="#222227"/>
<path d="M38.6346 8.74118H34.3246L25.8047 30.7699H47.2041L38.6346 8.74118ZM36.6032 13.9288L41.1611 26.3101H31.6497L36.6032 13.9288Z" fill="#222227"/>
<path d="M91.4315 8.74121H87.1214L78.6016 30.77H100.001L91.4315 8.74121ZM89.4011 13.9289L93.9583 26.3101H84.4466L89.4011 13.9289Z" fill="#222227"/>
<path d="M35.4609 5.60975L37.5416 0H42.0482L39.9201 5.56233L35.4609 5.60975Z" fill="#222227"/>
<path d="M60.8267 8.74146H48.3438V12.5748H52.3571V30.7702H56.7648V12.5748H60.8267V8.74146Z" fill="#222227"/>
<path d="M76.773 26.31H69.2435V8.74146H65.1328V30.7706H75.2876L76.773 26.31Z" fill="#222227"/>
<path d="M111.983 14.0857L114.992 11.3301C114.992 11.3301 112.205 7.84734 108.788 7.88398C105.368 7.91955 102.397 10.4223 102.397 13.469C102.397 16.5156 105.184 18.4016 107.079 20.0339C108.973 21.667 111.649 23.4085 111.203 25.1483C110.756 26.8891 107.933 27.3971 106.745 26.2367C105.555 25.0761 105.034 23.9157 105.034 23.9157L101.395 25.9461C101.395 25.9461 103.14 31.0605 108.973 30.7699C114.806 30.4803 115.957 25.6207 115.4 23.3719C114.842 21.1231 112.508 19.0837 110.497 17.4586C109.009 16.2577 104.889 13.2574 107.525 12.0543C109.828 11.0025 111.983 14.0857 111.983 14.0857Z" fill="#222227"/>
</svg>
