<svg width="30" height="18" viewBox="0 0 30 18" fill="none" xmlns="http://www.w3.org/2000/svg">
<path fill-rule="evenodd" clip-rule="evenodd" d="M2.2526 3.33333H27.7526C28.535 3.33333 29.1693 2.69907 29.1693 1.91666C29.1693 1.13426 28.535 0.5 27.7526 0.5H2.2526C1.4702 0.5 0.835938 1.13426 0.835938 1.91666C0.835938 2.69907 1.4702 3.33333 2.2526 3.33333ZM27.7527 14.6663H2.25269C1.47028 14.6663 0.836019 15.3006 0.836019 16.083C0.836019 16.8654 1.47028 17.4997 2.25269 17.4997H27.7527C28.5351 17.4997 29.1694 16.8654 29.1694 16.083C29.1694 15.3006 28.5351 14.6663 27.7527 14.6663ZM27.7527 7.58368H2.25269C1.47028 7.58368 0.836019 8.21794 0.836019 9.00035C0.836019 9.78275 1.47028 10.417 2.25269 10.417H27.7527C28.5351 10.417 29.1694 9.78275 29.1694 9.00035C29.1694 8.21794 28.5351 7.58368 27.7527 7.58368Z" fill="#272525"/>
</svg>
