<svg width="99" height="99" viewBox="0 0 99 99" fill="none" xmlns="http://www.w3.org/2000/svg">
<circle cx="49.5" cy="49.5" r="49.5" fill="#1FAB8A" fill-opacity="0.36"/>
<circle cx="50" cy="49" r="35" fill="#1FAB8A"/>
<path fill-rule="evenodd" clip-rule="evenodd" d="M52.4095 56.4998C53.0962 56.4998 53.6529 55.9402 53.6529 55.2498V52.7498C53.6529 52.0595 53.0962 51.4998 52.4095 51.4998C51.7228 51.4998 51.1661 52.0595 51.1661 52.7498V55.2498C51.1661 55.9402 51.7228 56.4998 52.4095 56.4998ZM47.4366 56.4998C48.1233 56.4998 48.68 55.9402 48.68 55.2498V52.7498C48.68 52.0595 48.1233 51.4998 47.4366 51.4998C46.7499 51.4998 46.1932 52.0595 46.1932 52.7498V55.2498C46.1932 55.9402 46.7499 56.4998 47.4366 56.4998ZM58.6267 41.5H56.9107L54.7596 37.1875C54.5805 36.7549 54.1757 36.4594 53.7111 36.422C53.2465 36.3845 52.8001 36.6114 52.5547 37.0098C52.3092 37.4081 52.306 37.911 52.5463 38.3125L54.1255 41.5H45.72L47.2991 38.3125C47.5495 37.708 47.2935 37.0118 46.7123 36.7164C46.1311 36.421 45.4216 36.6265 45.0858 37.1875L42.9347 41.5H41.2188C39.4044 41.5277 37.8731 42.864 37.5907 44.666C37.3083 46.4679 38.3568 48.2128 40.0748 48.8L40.995 58.125C41.1872 60.0483 42.8023 61.5096 44.7252 61.5H55.1451C57.068 61.5096 58.6831 60.0483 58.8753 58.125L59.7955 48.8C61.5175 48.211 62.5659 46.4592 62.2768 44.6539C61.9878 42.8485 60.4456 41.516 58.6267 41.5ZM56.3754 57.8749C56.3113 58.516 55.7729 59.0031 55.132 58.9999H44.7121C44.0712 59.0031 43.5328 58.516 43.4687 57.8749L42.5859 48.9999H57.2582L56.3754 57.8749ZM58.6274 46.4998H41.2195C40.5328 46.4998 39.9761 45.9402 39.9761 45.2498C39.9761 44.5595 40.5328 43.9998 41.2195 43.9998H58.6274C59.3141 43.9998 59.8708 44.5595 59.8708 45.2498C59.8708 45.9402 59.3141 46.4998 58.6274 46.4998Z" fill="#FAFAFA"/>
</svg>
