<svg width="99" height="124" viewBox="0 0 99 124" fill="none" xmlns="http://www.w3.org/2000/svg">
<circle cx="49.5" cy="49.5" r="49.5" fill="#1FAB8A" fill-opacity="0.36"/>
<circle cx="50" cy="49" r="35" fill="#1FAB8A"/>
<path fill-rule="evenodd" clip-rule="evenodd" d="M52.4095 56.4998C53.0962 56.4998 53.6529 55.9402 53.6529 55.2498V52.7498C53.6529 52.0595 53.0962 51.4998 52.4095 51.4998C51.7228 51.4998 51.1661 52.0595 51.1661 52.7498V55.2498C51.1661 55.9402 51.7228 56.4998 52.4095 56.4998ZM47.4366 56.4998C48.1233 56.4998 48.68 55.9402 48.68 55.2498V52.7498C48.68 52.0595 48.1233 51.4998 47.4366 51.4998C46.7499 51.4998 46.1932 52.0595 46.1932 52.7498V55.2498C46.1932 55.9402 46.7499 56.4998 47.4366 56.4998ZM58.6267 41.5H56.9107L54.7596 37.1875C54.5805 36.7549 54.1757 36.4594 53.7111 36.422C53.2465 36.3845 52.8001 36.6114 52.5547 37.0098C52.3092 37.4081 52.306 37.911 52.5463 38.3125L54.1255 41.5H45.72L47.2991 38.3125C47.5495 37.708 47.2935 37.0118 46.7123 36.7164C46.1311 36.421 45.4216 36.6265 45.0858 37.1875L42.9347 41.5H41.2188C39.4044 41.5277 37.8731 42.864 37.5907 44.666C37.3083 46.4679 38.3568 48.2128 40.0748 48.8L40.995 58.125C41.1872 60.0483 42.8023 61.5096 44.7252 61.5H55.1451C57.068 61.5096 58.6831 60.0483 58.8753 58.125L59.7955 48.8C61.5175 48.211 62.5659 46.4592 62.2768 44.6539C61.9878 42.8485 60.4456 41.516 58.6267 41.5ZM56.3754 57.8749C56.3113 58.516 55.7729 59.0031 55.132 58.9999H44.7121C44.0712 59.0031 43.5328 58.516 43.4687 57.8749L42.5859 48.9999H57.2582L56.3754 57.8749ZM58.6274 46.4998H41.2195C40.5328 46.4998 39.9761 45.9402 39.9761 45.2498C39.9761 44.5595 40.5328 43.9998 41.2195 43.9998H58.6274C59.3141 43.9998 59.8708 44.5595 59.8708 45.2498C59.8708 45.9402 59.3141 46.4998 58.6274 46.4998Z" fill="#FAFAFA"/>
<circle cx="70.5" cy="23.5" r="9.5" fill="#FAFAFA"/>
<path d="M71.3347 22.3021C72.0103 22.4288 72.5634 22.7201 72.994 23.1761C73.4247 23.6321 73.64 24.2106 73.64 24.9114C73.64 25.7728 73.3445 26.4526 72.7534 26.9508C72.1623 27.449 71.4445 27.6981 70.6 27.6981C69.9245 27.6981 69.3249 27.5461 68.8014 27.2421C68.2778 26.9297 67.9063 26.4821 67.6867 25.8994L68.6747 25.3168C68.9365 26.1359 69.5783 26.5454 70.6 26.5454C71.1489 26.5454 71.5965 26.4019 71.9427 26.1148C72.2889 25.8277 72.462 25.4266 72.462 24.9114C72.462 24.3963 72.2889 23.9952 71.9427 23.7081C71.5965 23.4126 71.1489 23.2648 70.6 23.2648H70.296L69.8274 22.5428L71.8794 19.7688H67.94V18.6668H73.26V19.7054L71.3347 22.3021Z" fill="#272525"/>
<path d="M22.372 113.098C23.5393 113.211 24.429 113.574 25.041 114.186C25.653 114.787 25.959 115.557 25.959 116.498C25.959 117.178 25.789 117.796 25.449 118.351C25.109 118.895 24.599 119.331 23.919 119.66C23.2503 119.977 22.4287 120.136 21.454 120.136C20.604 120.136 19.788 120.011 19.006 119.762C18.224 119.501 17.5837 119.144 17.085 118.691L17.867 117.348C18.275 117.733 18.7963 118.045 19.431 118.283C20.0657 118.51 20.74 118.623 21.454 118.623C22.338 118.623 23.0237 118.436 23.511 118.062C24.0097 117.688 24.259 117.172 24.259 116.515C24.259 115.858 24.0153 115.348 23.528 114.985C23.0407 114.622 22.304 114.441 21.318 114.441H20.366V113.251L23.358 109.579H17.629V108.1H25.483V109.256L22.372 113.098ZM36.0153 108.1V109.256L31.2043 120H29.4023L34.1113 109.579H28.6713V111.704H27.0393V108.1H36.0153ZM40.6066 112.843C42.3066 112.843 43.5533 113.166 44.3466 113.812C45.1513 114.447 45.5536 115.319 45.5536 116.43C45.5536 117.133 45.3836 117.767 45.0436 118.334C44.715 118.889 44.2106 119.331 43.5306 119.66C42.862 119.977 42.0346 120.136 41.0486 120.136C40.21 120.136 39.3996 120.011 38.6176 119.762C37.8356 119.501 37.1896 119.144 36.6796 118.691L37.4616 117.348C37.8696 117.733 38.391 118.045 39.0256 118.283C39.6603 118.51 40.329 118.623 41.0316 118.623C41.927 118.623 42.6183 118.436 43.1056 118.062C43.6043 117.677 43.8536 117.155 43.8536 116.498C43.8536 115.784 43.5816 115.246 43.0376 114.883C42.4936 114.509 41.5643 114.322 40.2496 114.322H37.5466L38.1756 108.1H44.8906V109.579H39.6036L39.2806 112.843H40.6066ZM58.9288 112.418H53.9308V120H52.2988V110.99H58.9288V112.418ZM65.3766 110.905C66.2492 110.905 67.0312 111.098 67.7226 111.483C68.4139 111.868 68.9522 112.407 69.3376 113.098C69.7342 113.789 69.9326 114.588 69.9326 115.495C69.9326 116.402 69.7342 117.206 69.3376 117.909C68.9522 118.6 68.4139 119.139 67.7226 119.524C67.0312 119.909 66.2492 120.102 65.3766 120.102C64.7306 120.102 64.1356 119.977 63.5916 119.728C63.0589 119.479 62.6056 119.116 62.2316 118.64V123.298H60.5996V110.99H62.1636V112.418C62.5262 111.919 62.9852 111.545 63.5406 111.296C64.0959 111.035 64.7079 110.905 65.3766 110.905ZM65.2406 118.674C65.8186 118.674 66.3342 118.544 66.7876 118.283C67.2522 118.011 67.6149 117.637 67.8756 117.161C68.1476 116.674 68.2836 116.118 68.2836 115.495C68.2836 114.872 68.1476 114.322 67.8756 113.846C67.6149 113.359 67.2522 112.985 66.7876 112.724C66.3342 112.463 65.8186 112.333 65.2406 112.333C64.6739 112.333 64.1582 112.469 63.6936 112.741C63.2402 113.002 62.8776 113.37 62.6056 113.846C62.3449 114.322 62.2146 114.872 62.2146 115.495C62.2146 116.118 62.3449 116.674 62.6056 117.161C62.8662 117.637 63.2289 118.011 63.6936 118.283C64.1582 118.544 64.6739 118.674 65.2406 118.674ZM72.3037 110.99H73.9357V114.815H79.0697V110.99H80.7017V120H79.0697V116.226H73.9357V120H72.3037V110.99Z" fill="black"/>
</svg>
