<svg width="23" height="34" viewBox="0 0 23 34" fill="none" xmlns="http://www.w3.org/2000/svg">
<path d="M20.6327 23.7452C19.7262 23.2154 18.9473 22.7859 18.1963 22.3143C16.9194 21.5197 15.6936 20.6781 14.8296 19.3926C13.9543 18.0875 13.8556 16.7257 14.6548 15.4114C15.1467 14.6051 15.8562 13.9344 16.4926 13.2275C16.7428 12.9525 17.0748 12.7434 17.5061 12.3899C16.6794 12.345 16.0294 12.3199 15.3813 12.2676C13.7969 12.1465 12.2063 12.09 10.6392 11.8633C8.49028 11.5634 7.52578 10.1793 7.90328 8.02903C8.05192 7.18597 8.40825 6.37096 8.67945 5.54418C8.76249 5.29605 8.88019 5.06272 9.00139 4.77514C7.55884 5.21632 6.19388 5.65622 4.82213 6.03912C1.62011 6.93038 0.429055 4.64128 0.733937 2.3502C0.815354 1.73743 1.04921 1.13241 1.26724 0.545212C1.42633 0.157429 1.77204 -0.103094 2.19825 0.0773257C2.58604 0.236413 2.60274 0.627153 2.51095 1.0109C2.42569 1.39087 2.31331 1.7691 2.27199 2.14981C2.22442 2.59507 2.18062 3.04685 2.22095 3.49358C2.33686 4.74965 2.9563 5.27983 4.20833 5.09661C5.09224 4.96926 5.96154 4.71108 6.82156 4.46696C7.62181 4.23994 8.41627 3.97274 9.21074 3.70555C9.62153 3.57282 10.0399 3.45316 10.3938 3.77975C10.8012 4.15379 10.6397 4.61264 10.4929 5.03684C10.3092 5.57806 10.046 6.08692 9.89322 6.63642C9.69154 7.32732 9.50393 8.02751 9.4145 8.73194C9.29628 9.688 9.60129 10.156 10.5345 10.4005C11.4266 10.634 12.353 10.8216 13.2734 10.9082C15.2461 11.0836 17.2146 11.1917 19.1897 11.296C19.6573 11.322 20.0318 11.4278 20.1909 11.8843C20.3452 12.3175 20.097 12.6262 19.7681 12.8857C19.1811 13.3464 18.566 13.7886 18.0044 14.2782C17.5136 14.7096 17.0173 15.1615 16.6156 15.6719C15.539 17.0333 15.5926 18.1513 16.699 19.4796C17.529 20.4801 18.5265 21.2881 19.6243 21.9686C20.4138 22.4615 21.2338 22.902 22.0381 23.3603C22.4645 23.6015 22.9051 23.8519 22.8189 24.4413C22.7307 24.9971 22.2621 25.1806 21.7954 25.3369C21.5965 25.3995 21.3891 25.4322 21.1854 25.4715C20.7744 25.5434 20.3616 25.6425 19.9447 25.6743C16.8464 25.9312 15.3059 27.8912 14.5291 30.6462C14.3874 31.1545 14.4039 31.7108 14.3651 32.2467C14.3439 32.5113 14.4012 32.7916 14.3491 33.048C14.3162 33.2323 14.1865 33.49 14.0436 33.529C13.8877 33.5755 13.6365 33.442 13.4921 33.3426C13.1816 33.1214 12.9871 32.6941 12.9388 32.339C12.8459 31.6354 12.7949 30.8989 12.9087 30.2065C13.1543 28.6721 13.8457 27.3068 14.7808 26.0619C15.5782 25.0009 16.6893 24.4378 17.9531 24.1694C18.7807 24.0049 19.6124 23.9077 20.6327 23.7452Z" fill="#EACEFF"/>
</svg>
