<svg width="22" height="22" viewBox="0 0 22 22" fill="none" xmlns="http://www.w3.org/2000/svg">
<path fill-rule="evenodd" clip-rule="evenodd" d="M16.6089 15.2367C19.3581 11.7059 19.1098 6.59769 15.864 3.35186C12.3492 -0.16286 6.65076 -0.162859 3.13604 3.35186C-0.37868 6.86658 -0.37868 12.5651 3.13604 16.0798C6.38187 19.3256 11.4901 19.5739 15.0209 16.8247C15.0361 16.8419 15.052 16.8588 15.0685 16.8753L19.8414 21.6482C20.2808 22.0876 20.9931 22.0876 21.4324 21.6482C21.8718 21.2089 21.8718 20.4966 21.4324 20.0573L16.6595 15.2843C16.643 15.2678 16.6261 15.252 16.6089 15.2367ZM14.273 4.94285C16.909 7.57889 16.909 11.8528 14.273 14.4888C11.6369 17.1248 7.36307 17.1248 4.72703 14.4888C2.09099 11.8528 2.09099 7.57889 4.72703 4.94285C7.36307 2.30681 11.6369 2.30681 14.273 4.94285Z" fill="#272525"/>
</svg>
