<svg width="88" height="43" viewBox="0 0 88 43" fill="none" xmlns="http://www.w3.org/2000/svg">
<path d="M0.616469 10.3104C3.87544 16.1923 9.36465 20.9826 14.7518 24.8933C19.3536 28.2387 24.5208 29.8171 30.2063 29.5109C40.3209 28.9612 54.0008 24.8383 58.4769 14.5981C62.6626 5.01752 48.1896 -2.80398 40.6508 2.51246C37.1405 4.99399 38.3577 10.7266 39.5278 14.1034C41.7895 20.6292 47.2237 25.3566 52.4616 29.5344C58.3906 34.2619 64.9713 37.9999 72.3217 40.0103C75.0466 40.7563 77.1355 40.9133 79.8841 40.8112C81.4782 40.7563 85.9465 40.1908 86.7161 42.0913C86.8967 42.5389 87.8234 41.573 87.6428 41.1411C86.7554 38.9658 82.3028 39.5862 80.5201 39.649C76.1225 39.8061 72.2824 38.848 68.1361 37.2381C62.8667 35.1807 58.1 32.2594 53.6709 28.757C49.0927 25.1289 44.3888 21.2024 41.6481 15.9253C40.3838 13.483 39.6142 10.8052 39.4257 8.05664C39.3236 6.58814 39.4885 6.59596 40.3052 4.97825C41.2712 3.05428 41.0984 3.03859 43.0381 2.54386C44.3181 2.21403 45.6688 2.05698 46.9881 2.15121C51.5507 2.48103 57.888 5.77144 58.312 10.8601C58.7911 16.6085 52.548 21.3046 48.1032 23.7625C42.8103 26.6838 36.7243 28.0267 30.7325 28.3329C24.9841 28.6314 19.8091 26.9587 15.1994 23.5112C10.0164 19.6319 4.71571 15.0693 1.54312 9.35234C1.29183 8.91258 0.396586 9.90993 0.616469 10.3104Z" fill="#272525"/>
</svg>
