<svg width="33" height="34" viewBox="0 0 33 34" fill="none" xmlns="http://www.w3.org/2000/svg">
<path d="M31.7873 19.6728C32.8012 11.1385 31.3002 5.7505 28.5928 3.31352L28.5942 3.31211C24.2243 -0.849588 9.46654 -1.46556 4.23858 3.49902C1.89081 5.9275 1.06385 9.49164 0.973228 13.904C0.882602 18.3177 0.774984 26.5859 8.47957 28.8289H8.48665L8.47957 32.2542C8.47957 32.2542 8.42718 33.6419 9.31361 33.9209C10.3275 34.2494 10.7863 33.6051 13.9398 29.8385C19.213 30.2959 23.2629 29.248 23.7231 29.0951C24.7879 28.7382 30.8131 27.941 31.7873 19.6728ZM14.4594 27.4284C14.4594 27.4284 11.1219 31.5901 10.0839 32.6705C9.74408 33.0217 9.37167 32.9891 9.37733 32.2924C9.37733 31.8351 9.40282 26.6057 9.40282 26.6057C2.8707 24.7337 3.25586 17.6932 3.32666 14.0102C3.39746 10.3257 4.07149 7.30813 6.05959 5.27613C10.6461 0.975667 23.5843 1.93715 26.8808 5.03541C30.9108 8.60804 29.4764 18.7015 29.4849 19.0455C28.6565 25.9472 23.774 26.3848 22.8763 26.6836C22.4925 26.811 18.9312 27.7272 14.4594 27.4284Z" fill="#8E24AA"/>
<path d="M16.3054 6.08423C15.7602 6.08423 15.7602 6.93384 16.3054 6.94092C20.535 6.97349 24.0184 9.92165 24.0567 15.3294C24.0567 15.9001 24.8921 15.893 24.885 15.3224H24.8836C24.8383 9.49543 21.0349 6.1168 16.3054 6.08423Z" fill="#8E24AA"/>
<path d="M21.8695 14.4337C21.8568 14.9973 22.6908 15.0242 22.6979 14.4535C22.7673 11.2406 20.7862 8.59401 17.0635 8.31506C16.5183 8.27541 16.4617 9.1321 17.0054 9.17175C20.234 9.41672 21.9346 11.6201 21.8695 14.4337Z" fill="#8E24AA"/>
<path d="M20.9776 18.0877C20.2781 17.6827 19.5658 17.9348 19.2713 18.3327L18.6553 19.1299C18.3424 19.5349 17.7576 19.4811 17.7576 19.4811C13.4897 18.3525 12.3484 13.8864 12.3484 13.8864C12.3484 13.8864 12.296 13.2817 12.6868 12.9574L13.4571 12.3202C13.8423 12.0144 14.0858 11.278 13.6936 10.5544C12.6457 8.66123 11.942 8.00844 11.5837 7.50717C11.207 7.03563 10.6406 6.92943 10.0516 7.24803H10.0388C8.81397 7.96454 7.47299 9.30552 7.90205 10.6861C8.63413 12.1418 9.97935 16.7821 14.2671 20.2882C16.2821 21.9464 19.471 23.6456 20.8247 24.0378L20.8374 24.0577C22.1713 24.5023 23.4684 23.1089 24.1608 21.8472V21.8373C24.4681 21.227 24.3661 20.6493 23.9173 20.2712C23.1215 19.4952 21.9207 18.6385 20.9776 18.0877Z" fill="#8E24AA"/>
<path d="M17.6469 11.4749C19.0078 11.5542 19.6676 12.2651 19.7384 13.725C19.7639 14.2956 20.5923 14.256 20.5668 13.6853C20.4762 11.7794 19.4821 10.7173 17.6923 10.6182C17.1471 10.5856 17.0961 11.4423 17.6469 11.4749Z" fill="#8E24AA"/>
</svg>
