<svg width="34" height="34" viewBox="0 0 34 34" fill="none" xmlns="http://www.w3.org/2000/svg">
<g clip-path="url(#clip0_1_946)">
<path d="M17.0122 0H17.0037C7.63454 0 0.015625 7.62104 0.015625 16.9923C0.015625 20.7093 1.21358 24.1545 3.25053 26.9519L1.13287 33.2645L7.66428 31.1766C10.3512 32.9565 13.5564 33.9846 17.0122 33.9846C26.3813 33.9846 34.0002 26.3614 34.0002 16.9923C34.0002 7.62317 26.3813 0 17.0122 0Z" fill="#4CAF50"/>
<path d="M26.8989 23.9955C26.489 25.1531 24.862 26.1131 23.5642 26.3935C22.6763 26.5826 21.5166 26.7334 17.6126 25.1148C12.619 23.046 9.40324 17.9717 9.1526 17.6425C8.91258 17.3133 7.13477 14.9556 7.13477 12.5172C7.13477 10.0788 8.37308 8.89146 8.87223 8.38169C9.28217 7.96326 9.95973 7.77209 10.6097 7.77209C10.82 7.77209 11.009 7.78272 11.1789 7.79121C11.6781 7.81245 11.9287 7.84219 12.2579 8.63021C12.6679 9.61788 13.6662 12.0563 13.7851 12.3069C13.9062 12.5575 14.0273 12.8974 13.8573 13.2266C13.698 13.5665 13.5578 13.7173 13.3072 14.0061C13.0566 14.295 12.8187 14.5159 12.568 14.826C12.3387 15.0958 12.0795 15.3846 12.3684 15.8838C12.6573 16.3723 13.6556 18.0014 15.1254 19.3099C17.0222 20.9985 18.56 21.538 19.1101 21.7674C19.52 21.9373 20.0085 21.8969 20.308 21.5783C20.6882 21.1684 21.1576 20.4887 21.6356 19.8196C21.9754 19.3396 22.4045 19.2801 22.8548 19.45C23.3135 19.6093 25.7413 20.8094 26.2405 21.0579C26.7396 21.3086 27.0688 21.4275 27.1899 21.6378C27.3089 21.8481 27.3089 22.8358 26.8989 23.9955Z" fill="#FAFAFA"/>
</g>
<defs>
<clipPath id="clip0_1_946">
<rect width="33.9846" height="33.9846" fill="white" transform="translate(0.015625)"/>
</clipPath>
</defs>
</svg>
